<!-- Uploaded to: SVG Repo, www.svgrepo.com, Transformed by: SVG Repo Mixer Tools -->
<svg xmlns="http://www.w3.org/2000/svg" xmlns:xlink="http://www.w3.org/1999/xlink" width="24" height="24" viewBox="0 0 24 24">
<path fill-rule="nonzero" fill="rgb(10.980392%, 15.294118%, 29.803922%)" fill-opacity="1" d="M 13.773438 1.425781 C 13.59375 0.609375 12.867188 0 12 0 C 11.128906 0 10.402344 0.609375 10.222656 1.425781 C 9.160156 1.585938 8.441406 1.890625 8.441406 2.238281 C 8.441406 2.574219 9.113281 2.867188 10.117188 3.03125 C 10.125 4.0625 10.964844 4.898438 12 4.898438 C 13.03125 4.898438 13.871094 4.0625 13.878906 3.03125 C 14.886719 2.867188 15.554688 2.574219 15.554688 2.238281 C 15.554688 1.890625 14.839844 1.585938 13.773438 1.425781 Z M 13.773438 1.425781 "/>
<path fill-rule="nonzero" fill="rgb(10.980392%, 15.294118%, 29.803922%)" fill-opacity="1" d="M 9.546875 5.496094 C 8.359375 5.496094 7.40625 6.46875 7.40625 7.640625 L 7.40625 14.3125 C 7.40625 14.816406 7.820312 15.21875 8.320312 15.21875 C 8.320312 15.21875 8.324219 15.21875 8.324219 15.21875 C 8.824219 15.21875 9.222656 14.8125 9.222656 14.308594 C 9.222656 14.308594 9.222656 7.636719 9.222656 7.636719 C 9.222656 7.378906 9.59375 7.390625 9.59375 7.636719 L 9.59375 7.820312 L 10.308594 7.820312 L 10.308594 5.496094 Z M 9.546875 5.496094 "/>
<path fill-rule="nonzero" fill="rgb(10.980392%, 15.294118%, 29.803922%)" fill-opacity="1" d="M 11.113281 5.496094 L 11.113281 7.820312 L 12.882812 7.820312 L 12.882812 5.496094 C 12.472656 5.496094 12.050781 5.496094 11.113281 5.496094 Z M 11.113281 5.496094 "/>
<path fill-rule="nonzero" fill="rgb(10.980392%, 15.294118%, 29.803922%)" fill-opacity="1" d="M 14.453125 5.496094 L 13.6875 5.496094 L 13.6875 7.820312 L 14.402344 7.820312 L 14.402344 7.636719 C 14.402344 7.390625 14.78125 7.378906 14.777344 7.640625 L 14.777344 14.308594 C 14.777344 14.8125 15.171875 15.21875 15.675781 15.21875 C 16.175781 15.21875 16.59375 14.816406 16.59375 14.3125 L 16.59375 7.640625 C 16.59375 6.46875 15.640625 5.496094 14.453125 5.496094 Z M 14.453125 5.496094 "/>
<path fill-rule="nonzero" fill="rgb(10.980392%, 15.294118%, 29.803922%)" fill-opacity="1" d="M 14.402344 8.625 L 9.59375 8.625 L 9.59375 22.910156 C 9.59375 23.511719 10.082031 24 10.683594 24 C 11.285156 24 11.773438 23.511719 11.773438 22.910156 L 11.773438 14.199219 L 12.242188 14.199219 L 12.242188 22.910156 C 12.242188 23.511719 12.730469 24 13.332031 24 C 13.933594 24 14.421875 23.511719 14.421875 22.910156 C 14.421875 12.910156 14.402344 11.121094 14.402344 8.625 Z M 12.785156 11.886719 L 11.210938 11.886719 C 10.914062 11.886719 10.671875 11.648438 10.671875 11.351562 L 10.671875 9.789062 C 10.671875 9.71875 10.730469 9.660156 10.800781 9.660156 L 13.195312 9.660156 C 13.265625 9.660156 13.324219 9.71875 13.324219 9.789062 L 13.324219 11.351562 C 13.324219 11.648438 13.082031 11.886719 12.785156 11.886719 Z M 12.785156 11.886719 "/>
</svg>
