<!-- Uploaded to: SVG Repo, www.svgrepo.com, Transformed by: SVG Repo Mixer Tools -->
<svg xmlns="http://www.w3.org/2000/svg" xmlns:xlink="http://www.w3.org/1999/xlink" width="24" height="24" viewBox="0 0 24 24">
<path fill-rule="evenodd" fill="rgb(100%, 100%, 100%)" fill-opacity="1" d="M 3 5 C 3 3.894531 3.894531 3 5 3 L 11 3 L 11 11 L 3 11 Z M 11 13 L 3 13 L 3 19 C 3 20.105469 3.894531 21 5 21 L 11 21 Z M 13 21 L 19 21 C 20.105469 21 21 20.105469 21 19 L 21 13 L 13 13 Z M 13 11 L 13 3 L 19 3 C 20.105469 3 21 3.894531 21 5 L 21 11 Z M 13 11 "/>
</svg>
