
<svg xmlns="http://www.w3.org/2000/svg" xmlns:xlink="http://www.w3.org/1999/xlink" width="18" height="18" viewBox="0 0 18 18">
<defs>
<linearGradient id="linear-pattern-0" gradientUnits="userSpaceOnUse" x1="7" y1="8" x2="9.886751" y2="13" gradientTransform="matrix(1, 0, 0, 1, 0, 1)">
<stop offset="0" stop-color="rgb(93.333333%, 93.333333%, 93.333333%)" stop-opacity="1"/>
<stop offset="1" stop-color="rgb(84.313725%, 84.313725%, 84.313725%)" stop-opacity="1"/>
</linearGradient>
</defs>
<path fill-rule="evenodd" fill="url(#linear-pattern-0)" stroke-width="0.999996" stroke-linecap="butt" stroke-linejoin="round" stroke="rgb(53.333333%, 54.117647%, 52.156863%)" stroke-opacity="1" stroke-miterlimit="0.4" d="M 3.524306 14.5 L 8 7.5 L 12.524306 14.5 Z M 3.524306 14.5 " transform="matrix(1.125, 0, 0, 1.125, 0, 0)"/>
<path fill-rule="evenodd" fill="rgb(53.333333%, 54.117647%, 52.156863%)" fill-opacity="1" d="M 14.625 3.9375 C 14.625 4.871094 13.871094 5.625 12.9375 5.625 C 12.003906 5.625 11.25 4.871094 11.25 3.9375 C 11.25 3.003906 12.003906 2.25 12.9375 2.25 C 13.871094 2.25 14.625 3.003906 14.625 3.9375 Z M 14.625 3.9375 "/>
<path fill-rule="nonzero" fill="rgb(53.333333%, 54.117647%, 52.156863%)" fill-opacity="1" stroke-width="2.4" stroke-linecap="round" stroke-linejoin="round" stroke="rgb(53.333333%, 54.117647%, 52.156863%)" stroke-opacity="1" stroke-miterlimit="4" d="M 4.463713 4.421445 C 3.889908 4.421445 3.492116 4.489942 3.273859 4.620085 C 3.052081 4.750228 2.939432 4.976266 2.939432 5.29135 C 2.939432 5.544787 3.023919 5.743427 3.185852 5.894119 C 3.354825 6.041386 3.580123 6.113307 3.865266 6.113307 C 4.259537 6.113307 4.576362 5.97289 4.812221 5.695479 C 5.0516 5.414644 5.171289 5.044763 5.171289 4.582412 L 5.171289 4.421445 Z M 5.878865 4.130335 L 5.878865 6.596207 L 5.171289 6.596207 L 5.171289 5.938641 C 5.009356 6.202353 4.80518 6.397568 4.565801 6.520861 C 4.322902 6.644155 4.027199 6.705801 3.678691 6.705801 C 3.235136 6.705801 2.883108 6.582508 2.619087 6.335921 C 2.358587 6.085909 2.231857 5.753701 2.231857 5.335873 C 2.231857 4.852973 2.393789 4.486517 2.717655 4.236505 C 3.041521 3.989918 3.530839 3.866624 4.17505 3.866624 L 5.171289 3.866624 L 5.171289 3.798128 C 5.171289 3.47277 5.06216 3.219333 4.847423 3.041242 C 4.632686 2.863151 4.333463 2.770681 3.942712 2.770681 C 3.696292 2.770681 3.456913 2.801504 3.221055 2.859726 C 2.988716 2.921373 2.763419 3.006994 2.545161 3.126862 L 2.545161 2.469297 C 2.805662 2.369977 3.059122 2.294631 3.302021 2.246683 C 3.548441 2.195311 3.784299 2.171337 4.016638 2.171337 C 4.643247 2.171337 5.107924 2.332304 5.417709 2.657662 C 5.727493 2.979595 5.878865 3.47277 5.878865 4.130335 Z M 5.878865 4.130335 " transform="matrix(1.109642, 0, 0, 1.14057, 0, 0)"/>
<path fill-rule="nonzero" fill="rgb(93.333333%, 93.333333%, 92.54902%)" fill-opacity="1" stroke-width="0.4" stroke-linecap="butt" stroke-linejoin="miter" stroke="rgb(93.333333%, 93.333333%, 92.54902%)" stroke-opacity="1" stroke-miterlimit="4" d="M 4.463713 4.421445 C 3.889908 4.421445 3.492116 4.489942 3.273859 4.620085 C 3.052081 4.750228 2.939432 4.976266 2.939432 5.29135 C 2.939432 5.544787 3.023919 5.743427 3.185852 5.894119 C 3.354825 6.041386 3.580123 6.113307 3.865266 6.113307 C 4.259537 6.113307 4.576362 5.97289 4.812221 5.695479 C 5.0516 5.414644 5.171289 5.044763 5.171289 4.582412 L 5.171289 4.421445 Z M 5.878865 4.130335 L 5.878865 6.596207 L 5.171289 6.596207 L 5.171289 5.938641 C 5.009356 6.202353 4.80518 6.397568 4.565801 6.520861 C 4.322902 6.644155 4.027199 6.705801 3.678691 6.705801 C 3.235136 6.705801 2.883108 6.582508 2.619087 6.335921 C 2.358587 6.085909 2.231857 5.753701 2.231857 5.335873 C 2.231857 4.852973 2.393789 4.486517 2.717655 4.236505 C 3.041521 3.989918 3.530839 3.866624 4.17505 3.866624 L 5.171289 3.866624 L 5.171289 3.798128 C 5.171289 3.47277 5.06216 3.219333 4.847423 3.041242 C 4.632686 2.863151 4.333463 2.770681 3.942712 2.770681 C 3.696292 2.770681 3.456913 2.801504 3.221055 2.859726 C 2.988716 2.921373 2.763419 3.006994 2.545161 3.126862 L 2.545161 2.469297 C 2.805662 2.369977 3.059122 2.294631 3.302021 2.246683 C 3.548441 2.195311 3.784299 2.171337 4.016638 2.171337 C 4.643247 2.171337 5.107924 2.332304 5.417709 2.657662 C 5.727493 2.979595 5.878865 3.47277 5.878865 4.130335 Z M 5.878865 4.130335 " transform="matrix(1.109642, 0, 0, 1.14057, 0, 0)"/>
<path fill-rule="evenodd" fill="rgb(53.333333%, 54.117647%, 52.156863%)" fill-opacity="1" d="M 16.875 8.4375 C 16.875 9.371094 16.121094 10.125 15.1875 10.125 C 14.253906 10.125 13.5 9.371094 13.5 8.4375 C 13.5 7.503906 14.253906 6.75 15.1875 6.75 C 16.121094 6.75 16.875 7.503906 16.875 8.4375 Z M 16.875 8.4375 "/>
</svg>
