<!-- Uploaded to: SVG Repo, www.svgrepo.com, Transformed by: SVG Repo Mixer Tools -->
<svg xmlns="http://www.w3.org/2000/svg" xmlns:xlink="http://www.w3.org/1999/xlink" width="24" height="24" viewBox="0 0 24 24">
<path fill-rule="nonzero" fill="rgb(100%, 47.058824%, 0%)" fill-opacity="1" d="M 12 4 C 16.96875 4 21 8.03125 21 13 C 21 17.96875 16.96875 22 12 22 C 7.03125 22 3 17.96875 3 13 C 3 8.03125 7.03125 4 12 4 Z M 12 8 C 11.488281 8 11.066406 8.386719 11.007812 8.882812 L 11 9 L 11 12.984375 C 10.996094 13.203125 11.066406 13.421875 11.203125 13.601562 L 11.292969 13.707031 L 13.398438 15.8125 C 13.789062 16.203125 14.421875 16.203125 14.8125 15.8125 C 15.171875 15.453125 15.199219 14.886719 14.894531 14.492188 L 14.8125 14.398438 L 13 12.585938 L 13 9 C 13 8.449219 12.550781 8 12 8 Z M 18 2.605469 C 19.253906 3.328125 20.359375 4.273438 21.273438 5.382812 C 21.625 5.808594 21.5625 6.4375 21.136719 6.789062 C 20.707031 7.140625 20.078125 7.078125 19.726562 6.652344 C 18.964844 5.726562 18.042969 4.941406 17 4.335938 C 16.519531 4.0625 16.359375 3.449219 16.632812 2.972656 C 16.910156 2.492188 17.523438 2.328125 18 2.605469 Z M 7.367188 2.972656 C 7.640625 3.449219 7.480469 4.0625 7 4.335938 C 5.957031 4.941406 5.035156 5.726562 4.273438 6.652344 C 3.921875 7.078125 3.292969 7.140625 2.863281 6.789062 C 2.4375 6.4375 2.375 5.808594 2.726562 5.382812 C 3.640625 4.273438 4.75 3.328125 6 2.605469 C 6.476562 2.328125 7.089844 2.492188 7.367188 2.972656 Z M 7.367188 2.972656 "/>
</svg>
