<!-- Uploaded to: SVG Repo, www.svgrepo.com, Transformed by: SVG Repo Mixer Tools -->
<svg xmlns="http://www.w3.org/2000/svg" xmlns:xlink="http://www.w3.org/1999/xlink" width="24" height="24" viewBox="0 0 24 24">
<path fill-rule="nonzero" fill="rgb(3.529412%, 14.117647%, 29.411765%)" fill-opacity="1" d="M 19 3 L 5 3 C 3.34375 3 2 4.34375 2 6 L 2 21 C 2 21.359375 2.195312 21.691406 2.511719 21.871094 C 2.660156 21.953125 2.828125 22 3 22 C 3.179688 22 3.355469 21.953125 3.511719 21.859375 L 8 19.140625 C 8.164062 19.042969 8.355469 18.992188 8.550781 19 L 19 19 C 20.65625 19 22 17.65625 22 16 L 22 6 C 22 4.34375 20.65625 3 19 3 Z M 8 12 C 7.449219 12 7 11.550781 7 11 C 7 10.449219 7.449219 10 8 10 C 8.550781 10 9 10.449219 9 11 C 9 11.550781 8.550781 12 8 12 Z M 12 12 C 11.449219 12 11 11.550781 11 11 C 11 10.449219 11.449219 10 12 10 C 12.550781 10 13 10.449219 13 11 C 13 11.550781 12.550781 12 12 12 Z M 16 12 C 15.449219 12 15 11.550781 15 11 C 15 10.449219 15.449219 10 16 10 C 16.550781 10 17 10.449219 17 11 C 17 11.550781 16.550781 12 16 12 Z M 16 12 "/>
</svg>
