<?xml version="1.0" encoding="UTF-8" standalone="no"?>
<svg
   width="24"
   height="24"
   viewBox="0 0 24 24"
   fill="none"
   version="1.1"
   xmlns="http://www.w3.org/2000/svg"
   xmlns:svg="http://www.w3.org/2000/svg">
  <!-- Map pin base -->
  <path
     d="M 12,2 C 8.13,2 5,5.13 5,9 c 0,5.25 7,13 7,13 s 7,-7.75 7,-13 c 0,-3.87 -3.13,-7 -7,-7 z"
     fill="#616161" />
  <!-- Pin shadow -->
  <path
     d="M 12,22 C 12,22 5,14.25 5,9 C 5,5.13 8.13,2 12,2"
     fill="#424242"
     opacity="0.3" />
  <!-- Text annotation elements -->
  <path
     d="M 8,6 H 16 V 8 H 8 Z M 8,10 H 12 V 12 H 8 Z"
     fill="#ffffff" />
  <!-- Text lines -->
  <path
     d="M 9,7 H 15"
     stroke="#616161"
     stroke-width="1"
     stroke-linecap="round" />
  <path
     d="M 9,11 H 11"
     stroke="#616161"
     stroke-width="1"
     stroke-linecap="round" />
  <!-- Highlight effect -->
  <path
     d="M 12,2 C 8.13,2 5,5.13 5,9 c 0,5.25 7,13 7,13 s 7,-7.75 7,-13 c 0,-3.87 -3.13,-7 -7,-7 z"
     fill="none"
     stroke="#ffffff"
     stroke-width="0.5"
     opacity="0.2" />
</svg> 