<!-- Uploaded to: SVG Repo, www.svgrepo.com, Transformed by: SVG Repo Mixer Tools -->
<svg xmlns="http://www.w3.org/2000/svg" xmlns:xlink="http://www.w3.org/1999/xlink" width="24" height="24" viewBox="0 0 24 24">
<path fill-rule="nonzero" fill="rgb(98.039216%, 98.039216%, 98.431373%)" fill-opacity="1" d="M 8.675781 17.828125 C 8.605469 17.789062 8.511719 17.734375 8.46875 17.703125 C 8.425781 17.671875 8.367188 17.648438 8.335938 17.648438 C 8.257812 17.648438 8.132812 17.480469 8.050781 17.273438 C 8.011719 17.164062 7.9375 17.046875 7.875 16.988281 C 7.753906 16.878906 7.734375 16.773438 7.820312 16.722656 C 7.851562 16.703125 7.859375 16.6875 7.839844 16.6875 C 7.824219 16.6875 7.777344 16.636719 7.746094 16.574219 C 7.707031 16.503906 7.605469 16.40625 7.476562 16.320312 C 7.113281 16.078125 7.078125 16.070312 6.78125 16.089844 L 6.519531 16.109375 L 6.488281 15.988281 C 6.363281 15.507812 6.367188 15.527344 6.433594 15.355469 C 6.472656 15.269531 6.535156 15.15625 6.574219 15.105469 C 6.613281 15.054688 6.65625 14.980469 6.664062 14.9375 C 6.6875 14.851562 6.871094 14.726562 6.941406 14.753906 C 6.992188 14.773438 7.042969 14.722656 7.074219 14.613281 C 7.097656 14.542969 7.089844 14.539062 7.007812 14.554688 C 6.921875 14.574219 6.90625 14.558594 6.761719 14.316406 L 6.605469 14.058594 L 6.660156 13.859375 C 6.703125 13.703125 6.75 13.625 6.886719 13.480469 C 6.984375 13.382812 7.0625 13.277344 7.0625 13.25 C 7.0625 13.222656 6.988281 13.144531 6.902344 13.078125 C 6.765625 12.972656 6.742188 12.9375 6.707031 12.785156 C 6.660156 12.566406 6.617188 12.480469 6.46875 12.324219 C 6.40625 12.257812 6.355469 12.195312 6.355469 12.179688 C 6.355469 12.167969 6.402344 12.160156 6.460938 12.15625 C 6.519531 12.15625 6.664062 12.152344 6.789062 12.148438 L 7.011719 12.144531 L 7.191406 11.628906 L 7.117188 11.527344 C 7.078125 11.46875 7.035156 11.414062 7.019531 11.402344 C 6.964844 11.367188 7.03125 11.253906 7.160156 11.171875 C 7.265625 11.097656 7.28125 11.078125 7.253906 11.023438 C 7.230469 10.984375 7.226562 10.828125 7.242188 10.59375 C 7.261719 10.257812 7.257812 10.21875 7.191406 10.113281 C 7.117188 9.984375 7.105469 9.917969 7.160156 9.953125 C 7.191406 9.972656 7.476562 9.699219 7.476562 9.644531 C 7.476562 9.632812 7.527344 9.605469 7.589844 9.582031 C 7.648438 9.5625 7.699219 9.535156 7.699219 9.523438 C 7.699219 9.511719 7.765625 9.433594 7.84375 9.347656 C 8.085938 9.085938 8.066406 9 7.761719 8.929688 L 7.59375 8.890625 L 7.59375 8.703125 C 7.589844 8.515625 7.585938 8.511719 7.492188 8.5 C 7.441406 8.496094 7.378906 8.472656 7.355469 8.457031 C 7.328125 8.433594 7.304688 8.433594 7.28125 8.453125 C 7.261719 8.476562 7.191406 8.476562 7.085938 8.457031 C 6.929688 8.429688 6.921875 8.429688 6.839844 8.519531 C 6.730469 8.636719 6.535156 8.710938 6.46875 8.65625 C 6.445312 8.636719 6.394531 8.628906 6.355469 8.640625 C 6.308594 8.652344 6.273438 8.644531 6.246094 8.605469 C 6.210938 8.554688 6.1875 8.550781 6.078125 8.585938 C 5.914062 8.632812 5.910156 8.632812 5.910156 8.570312 C 5.910156 8.527344 5.890625 8.53125 5.820312 8.601562 C 5.699219 8.71875 5.601562 8.710938 5.539062 8.589844 C 5.488281 8.492188 5.492188 8.484375 5.558594 8.414062 C 5.625 8.339844 5.625 8.339844 5.5625 8.277344 C 5.527344 8.242188 5.496094 8.199219 5.488281 8.175781 C 5.464844 8.105469 4.996094 8.316406 4.8125 8.480469 L 4.644531 8.632812 L 4.636719 8.402344 C 4.625 8.179688 4.628906 8.175781 4.738281 8.078125 C 4.871094 7.957031 4.882812 7.921875 4.773438 7.945312 C 4.671875 7.960938 4.664062 7.890625 4.757812 7.804688 L 4.828125 7.742188 L 4.75 7.726562 C 4.671875 7.707031 4.667969 7.679688 4.703125 7.429688 L 4.730469 7.277344 L 4.605469 7.390625 C 4.460938 7.523438 4.445312 7.527344 4.417969 7.425781 C 4.40625 7.371094 4.425781 7.296875 4.480469 7.199219 C 4.554688 7.0625 4.535156 7 4.445312 7.09375 C 4.394531 7.140625 4.296875 7.066406 4.324219 7 C 4.347656 6.933594 4.28125 6.832031 4.210938 6.832031 C 4.148438 6.832031 4.132812 6.789062 4.148438 6.65625 C 4.15625 6.5625 4.3125 6.382812 4.429688 6.335938 C 4.484375 6.308594 4.53125 6.273438 4.53125 6.25 C 4.53125 6.226562 4.574219 6.183594 4.621094 6.15625 C 4.699219 6.113281 4.71875 6.113281 4.796875 6.15625 C 4.875 6.203125 4.894531 6.203125 5.035156 6.148438 C 5.121094 6.117188 5.21875 6.085938 5.253906 6.085938 C 5.289062 6.082031 5.324219 6.066406 5.335938 6.050781 C 5.347656 6.035156 5.386719 6.042969 5.425781 6.0625 C 5.464844 6.082031 5.492188 6.085938 5.492188 6.066406 C 5.492188 6.03125 5.414062 5.945312 5.359375 5.929688 C 5.304688 5.910156 5.476562 5.664062 5.574219 5.621094 C 5.617188 5.601562 5.652344 5.570312 5.652344 5.550781 C 5.652344 5.523438 5.890625 5.390625 5.945312 5.390625 C 5.960938 5.390625 5.972656 5.421875 5.972656 5.457031 L 5.972656 5.519531 L 6.035156 5.457031 C 6.113281 5.378906 6.207031 5.371094 6.261719 5.441406 C 6.285156 5.46875 6.328125 5.480469 6.359375 5.46875 C 6.4375 5.445312 6.589844 5.527344 6.671875 5.636719 L 6.734375 5.726562 L 7.480469 5.726562 C 8.183594 5.726562 8.238281 5.722656 8.382812 5.65625 L 8.539062 5.582031 L 8.632812 5.664062 C 8.707031 5.726562 8.765625 5.742188 8.886719 5.742188 C 8.972656 5.742188 9.128906 5.773438 9.226562 5.808594 C 9.507812 5.902344 10.082031 6 10.371094 6 C 10.554688 5.996094 10.695312 5.976562 10.851562 5.921875 C 10.996094 5.875 11.09375 5.859375 11.128906 5.875 C 11.164062 5.890625 11.226562 5.886719 11.292969 5.855469 C 11.398438 5.8125 11.410156 5.816406 11.511719 5.890625 C 11.570312 5.933594 11.640625 5.96875 11.667969 5.96875 C 11.695312 5.96875 11.792969 5.996094 11.886719 6.03125 C 12.042969 6.089844 12.058594 6.09375 12.105469 6.046875 C 12.246094 5.90625 12.402344 5.914062 12.742188 6.066406 C 13.015625 6.191406 13.316406 6.199219 13.523438 6.09375 L 13.660156 6.027344 L 13.789062 6.132812 C 13.894531 6.214844 13.945312 6.234375 14.054688 6.230469 L 14.183594 6.226562 L 14.171875 6.417969 C 14.15625 6.617188 14.191406 6.664062 14.269531 6.542969 C 14.316406 6.464844 14.355469 6.460938 14.355469 6.539062 C 14.355469 6.617188 14.472656 6.664062 14.75 6.703125 C 14.929688 6.730469 14.992188 6.75 15.027344 6.804688 C 15.054688 6.84375 15.109375 6.917969 15.148438 6.964844 L 15.222656 7.050781 L 15.390625 6.988281 L 15.5625 6.921875 L 15.757812 7.058594 C 15.945312 7.1875 15.960938 7.191406 16.074219 7.15625 C 16.171875 7.128906 16.207031 7.128906 16.265625 7.167969 C 16.316406 7.199219 16.34375 7.203125 16.359375 7.179688 C 16.375 7.15625 16.445312 7.148438 16.570312 7.164062 C 16.734375 7.179688 16.757812 7.175781 16.757812 7.125 C 16.757812 7.097656 16.785156 7.039062 16.816406 6.996094 L 16.871094 6.921875 L 17.097656 6.976562 C 17.230469 7.003906 17.351562 7.054688 17.382812 7.089844 C 17.417969 7.128906 17.480469 7.152344 17.554688 7.152344 C 17.648438 7.152344 17.679688 7.171875 17.742188 7.261719 C 17.78125 7.324219 17.8125 7.425781 17.8125 7.488281 C 17.8125 7.632812 17.875 7.65625 18.023438 7.570312 C 18.140625 7.5 18.144531 7.5 18.296875 7.554688 C 18.382812 7.585938 18.453125 7.621094 18.453125 7.628906 C 18.453125 7.640625 18.472656 7.671875 18.5 7.703125 C 18.539062 7.757812 18.546875 7.757812 18.691406 7.691406 C 18.835938 7.621094 18.839844 7.617188 18.9375 7.675781 C 19.082031 7.761719 19.246094 7.792969 19.296875 7.746094 C 19.398438 7.640625 19.550781 7.59375 19.734375 7.605469 C 19.890625 7.617188 19.933594 7.632812 20.011719 7.714844 C 20.058594 7.769531 20.121094 7.820312 20.148438 7.828125 C 20.1875 7.84375 20.1875 7.855469 20.136719 7.914062 C 20.105469 7.949219 20.066406 7.980469 20.058594 7.976562 C 19.945312 7.964844 19.921875 8.066406 20.003906 8.207031 C 20.03125 8.25 20.050781 8.339844 20.050781 8.40625 C 20.050781 8.511719 20.03125 8.550781 19.902344 8.675781 C 19.816406 8.753906 19.65625 8.871094 19.539062 8.929688 C 18.921875 9.253906 18.847656 9.304688 18.671875 9.515625 C 18.640625 9.550781 18.5625 9.589844 18.496094 9.597656 C 18.339844 9.621094 18.203125 9.65625 17.925781 9.742188 C 17.800781 9.78125 17.640625 9.824219 17.566406 9.839844 C 17.347656 9.886719 17.1875 9.988281 17.0625 10.15625 C 16.996094 10.246094 16.929688 10.320312 16.914062 10.320312 C 16.847656 10.320312 16.890625 10.378906 16.980469 10.414062 C 17.121094 10.472656 17.097656 10.527344 16.898438 10.609375 C 16.710938 10.683594 16.648438 10.746094 16.453125 11.058594 C 16.386719 11.171875 16.304688 11.28125 16.273438 11.304688 C 16.242188 11.324219 16.199219 11.394531 16.179688 11.453125 C 16.160156 11.515625 16.117188 11.574219 16.082031 11.582031 C 16.046875 11.59375 16.011719 11.640625 16 11.683594 C 15.988281 11.730469 15.925781 11.828125 15.859375 11.90625 C 15.691406 12.097656 15.574219 12.347656 15.574219 12.496094 C 15.574219 12.566406 15.601562 12.710938 15.632812 12.824219 C 15.667969 12.933594 15.703125 13.0625 15.714844 13.109375 C 15.738281 13.230469 15.886719 13.390625 16.019531 13.445312 C 16.148438 13.5 16.246094 13.578125 16.246094 13.628906 C 16.242188 13.648438 16.164062 13.71875 16.066406 13.785156 C 15.972656 13.851562 15.894531 13.917969 15.894531 13.933594 C 15.894531 13.945312 15.832031 13.980469 15.757812 14.011719 C 15.621094 14.0625 15.445312 14.199219 15.445312 14.253906 C 15.445312 14.269531 15.414062 14.289062 15.378906 14.296875 C 15.339844 14.308594 15.316406 14.339844 15.316406 14.390625 C 15.316406 14.433594 15.28125 14.5 15.238281 14.539062 C 15.1875 14.582031 15.15625 14.640625 15.15625 14.695312 C 15.15625 14.746094 15.136719 14.8125 15.113281 14.847656 C 15.089844 14.882812 15.050781 14.964844 15.03125 15.027344 C 15.011719 15.09375 14.972656 15.164062 14.945312 15.183594 C 14.878906 15.242188 14.886719 15.34375 14.964844 15.34375 C 15.042969 15.34375 15.050781 15.425781 14.972656 15.453125 C 14.941406 15.464844 14.765625 15.492188 14.582031 15.511719 C 14.273438 15.542969 14.234375 15.554688 14.132812 15.648438 C 14.070312 15.703125 13.964844 15.789062 13.898438 15.835938 C 13.753906 15.941406 13.671875 16.066406 13.601562 16.289062 C 13.574219 16.375 13.53125 16.460938 13.511719 16.480469 C 13.492188 16.496094 13.4375 16.5625 13.386719 16.628906 C 13.273438 16.78125 13.199219 16.804688 13.078125 16.722656 C 12.9375 16.621094 12.808594 16.636719 12.664062 16.765625 C 12.53125 16.886719 12.421875 16.910156 12.324219 16.832031 C 12.253906 16.78125 11.699219 16.761719 11.699219 16.8125 C 11.699219 16.863281 11.601562 16.878906 11.535156 16.84375 C 11.4375 16.792969 11.160156 16.78125 10.726562 16.816406 L 10.347656 16.84375 L 10.183594 17.011719 C 10.023438 17.179688 10.019531 17.183594 9.851562 17.175781 C 9.71875 17.167969 9.644531 17.1875 9.496094 17.261719 C 9.335938 17.34375 9.300781 17.375 9.242188 17.515625 C 9.203125 17.605469 9.15625 17.679688 9.136719 17.679688 C 9.121094 17.679688 9.058594 17.730469 9 17.792969 C 8.878906 17.917969 8.855469 17.921875 8.675781 17.828125 Z M 17.78125 13.742188 C 17.78125 13.726562 17.796875 13.710938 17.8125 13.710938 C 17.832031 13.710938 17.84375 13.726562 17.84375 13.742188 C 17.84375 13.761719 17.832031 13.773438 17.8125 13.773438 C 17.796875 13.773438 17.78125 13.761719 17.78125 13.742188 Z M 17.582031 13.449219 C 17.53125 13.433594 17.492188 13.394531 17.492188 13.363281 C 17.492188 13.296875 17.628906 13.160156 17.773438 13.089844 C 17.871094 13.039062 17.886719 13.039062 17.960938 13.085938 C 18 13.113281 18.035156 13.15625 18.035156 13.175781 C 18.03125 13.21875 17.730469 13.488281 17.691406 13.484375 C 17.679688 13.484375 17.628906 13.46875 17.582031 13.449219 Z M 19.75 12.75 C 19.714844 12.714844 19.660156 12.6875 19.621094 12.6875 C 19.515625 12.6875 19.417969 12.597656 19.394531 12.476562 C 19.371094 12.347656 19.367188 12.347656 19.226562 12.429688 C 19.128906 12.492188 19.117188 12.492188 19.046875 12.445312 C 18.886719 12.339844 18.910156 12.292969 19.21875 12.082031 C 19.28125 12.042969 19.375 11.976562 19.429688 11.9375 C 19.550781 11.847656 19.859375 11.722656 19.898438 11.746094 C 19.914062 11.757812 19.921875 11.789062 19.910156 11.8125 C 19.898438 11.847656 19.90625 11.855469 19.941406 11.84375 C 19.984375 11.828125 19.988281 11.839844 19.972656 11.917969 C 19.949219 12.027344 20.015625 12.0625 20.1875 12.03125 C 20.355469 12.003906 20.382812 12.042969 20.320312 12.21875 C 20.292969 12.300781 20.257812 12.367188 20.238281 12.367188 C 20.222656 12.367188 20.1875 12.421875 20.160156 12.488281 C 20.101562 12.632812 19.933594 12.816406 19.859375 12.816406 C 19.832031 12.816406 19.78125 12.785156 19.75 12.75 Z M 21.203125 11.871094 C 21.125 11.828125 21.007812 11.792969 20.945312 11.792969 C 20.839844 11.792969 20.828125 11.78125 20.8125 11.6875 C 20.804688 11.628906 20.800781 11.578125 20.804688 11.570312 C 20.8125 11.566406 20.910156 11.554688 21.019531 11.542969 L 21.226562 11.527344 L 21.328125 11.652344 C 21.429688 11.773438 21.464844 11.953125 21.386719 11.949219 C 21.367188 11.949219 21.285156 11.914062 21.203125 11.871094 Z M 21.203125 11.871094 "/>
<path fill-rule="nonzero" fill="rgb(27.843137%, 0%, 87.843137%)" fill-opacity="1" d="M 11.019531 0 C 10.46875 0 9.917969 0.0429688 9.375 0.125 C 8.84375 0.207031 8.324219 0.328125 7.8125 0.484375 C 4.261719 1.589844 1.492188 4.480469 0.558594 8.101562 C 0.46875 8.449219 0.398438 8.800781 0.34375 9.15625 C 0.316406 9.335938 0.292969 9.515625 0.273438 9.695312 C 0.21875 10.246094 0.207031 10.800781 0.234375 11.355469 C 0.242188 11.539062 0.257812 11.722656 0.273438 11.902344 C 0.292969 12.085938 0.316406 12.265625 0.34375 12.441406 L 0.34375 12.445312 C 0.398438 12.796875 0.46875 13.148438 0.558594 13.496094 C 1.492188 17.121094 4.261719 20.007812 7.808594 21.113281 C 7.980469 21.167969 8.148438 21.214844 8.320312 21.261719 L 8.324219 21.261719 C 8.496094 21.304688 8.667969 21.34375 8.84375 21.378906 C 9.019531 21.417969 9.199219 21.449219 9.375 21.476562 C 9.554688 21.503906 9.734375 21.527344 9.917969 21.542969 C 10.46875 21.601562 11.023438 21.613281 11.574219 21.585938 C 11.851562 21.570312 12.125 21.542969 12.398438 21.507812 C 12.484375 21.5 12.574219 21.488281 12.660156 21.476562 L 12.664062 21.476562 C 13.191406 21.394531 13.714844 21.273438 14.230469 21.113281 C 15.570312 20.695312 16.816406 20.019531 17.894531 19.121094 C 16.921875 19.515625 15.863281 19.679688 14.816406 19.613281 C 13.617188 20.132812 12.324219 20.398438 11.019531 20.398438 C 9.808594 20.402344 8.609375 20.171875 7.480469 19.726562 C 7.558594 19.652344 7.648438 19.589844 7.761719 19.554688 C 9.160156 19.894531 8.550781 18.164062 9.503906 17.769531 C 10.140625 16.601562 8.105469 16.417969 7.378906 15.992188 C 6.152344 15.808594 6.269531 14.3125 5.152344 13.992188 C 4.242188 13.84375 4.570312 12.527344 3.902344 12.597656 C 3.324219 12.707031 3.097656 11.914062 2.773438 11.96875 C 2.695312 12.050781 2.371094 11.4375 2.019531 12.113281 C 1.183594 11.929688 1.550781 11.085938 1.429688 10.449219 C 1.464844 9.410156 1.667969 8.386719 2.035156 7.414062 C 2.238281 7.597656 2.140625 8.1875 2.175781 8.589844 C 2.574219 8.761719 2.386719 7.082031 3.214844 7.042969 C 3.777344 6.410156 4.429688 5.871094 5.113281 5.433594 C 5.382812 5.625 5.957031 5.601562 6.40625 5.179688 C 5.90625 5.078125 5.867188 4.695312 6.539062 4.542969 C 7.605469 4.085938 6.058594 5.046875 6.929688 5.183594 C 7.875 5.464844 7.074219 4.363281 7.523438 3.933594 C 7.050781 3.613281 7.804688 2.367188 6.984375 2.921875 C 7.269531 2.71875 6.828125 2.335938 7.082031 2.1875 C 7.183594 2.480469 7.714844 2.886719 7.902344 2.207031 C 8.273438 2.273438 8.347656 1.910156 8.457031 1.546875 C 8.726562 1.472656 8.996094 1.410156 9.273438 1.359375 C 9.179688 1.707031 8.847656 2.246094 8.820312 2.59375 C 9.25 3.847656 9.976562 2.109375 10.742188 2.066406 C 11.402344 2.085938 11.539062 1.644531 11.558594 1.214844 C 12.441406 1.265625 13.292969 1.433594 14.097656 1.707031 C 14.167969 2.320312 14.433594 3.296875 15.109375 3.082031 C 14.96875 3.113281 15.554688 3.691406 15.253906 3.789062 C 15.089844 4.878906 14.207031 3.066406 13.757812 3.089844 C 13.089844 3.203125 13.886719 3.53125 13.644531 3.695312 C 13.011719 4.238281 14.195312 4.808594 14.097656 3.894531 C 14.175781 4.632812 14.425781 4.609375 15.023438 4.570312 C 13.84375 4.769531 15.269531 5.191406 15.230469 5.589844 C 15.617188 5.589844 16.003906 5.617188 16.386719 5.679688 C 16.472656 5.613281 16.585938 5.578125 16.734375 5.597656 C 16.722656 5.644531 16.714844 5.6875 16.714844 5.734375 C 16.800781 5.753906 16.890625 5.773438 16.980469 5.796875 C 17.007812 5.757812 17.148438 5.800781 17.296875 5.882812 L 17.304688 5.882812 C 17.554688 5.957031 17.800781 6.046875 18.042969 6.148438 C 18.078125 6.046875 18.144531 6.007812 18.285156 6.140625 C 18.332031 6.21875 18.378906 6.277344 18.425781 6.324219 C 18.5 6.363281 18.570312 6.402344 18.644531 6.441406 C 18.863281 6.472656 19.050781 6.285156 19.109375 6.269531 C 19.222656 6.238281 19.363281 6.246094 19.488281 6.269531 C 19.601562 6.488281 19.710938 6.707031 19.808594 6.933594 C 19.730469 6.964844 19.636719 6.992188 19.539062 7.019531 C 20.527344 7.777344 21.316406 8.796875 21.785156 9.949219 C 21.710938 8.96875 21.5 8 21.15625 7.074219 C 21.136719 7.015625 21.109375 6.957031 21.085938 6.894531 C 21.046875 6.792969 21.007812 6.691406 20.964844 6.585938 C 20.925781 6.5 20.886719 6.410156 20.84375 6.324219 C 20.8125 6.253906 20.785156 6.183594 20.75 6.113281 C 20.703125 6.019531 20.652344 5.925781 20.605469 5.832031 C 20.574219 5.769531 20.542969 5.707031 20.511719 5.648438 C 20.429688 5.496094 20.34375 5.347656 20.253906 5.203125 C 18.8125 2.828125 16.476562 1.050781 13.714844 0.339844 C 13.367188 0.25 13.015625 0.179688 12.664062 0.125 L 12.660156 0.125 C 12.480469 0.0976562 12.300781 0.0742188 12.121094 0.0546875 C 11.9375 0.0390625 11.757812 0.0234375 11.574219 0.015625 C 11.390625 0.00390625 11.203125 0 11.019531 0 Z M 7.378906 1.914062 C 7.28125 2.007812 7.132812 2.105469 6.960938 2.132812 C 6.699219 2.351562 6.699219 2.292969 6.789062 2.179688 C 6.980469 2.085938 7.175781 1.996094 7.378906 1.914062 Z M 15 2.0625 C 15.03125 2.078125 15.066406 2.089844 15.097656 2.105469 C 15.09375 2.136719 15.039062 2.101562 15 2.0625 Z M 11.738281 2.140625 C 11.546875 2.148438 11.402344 2.230469 11.480469 2.4375 C 11.59375 2.546875 11.757812 2.574219 11.910156 2.574219 C 12.832031 2.460938 12.164062 2.121094 11.738281 2.140625 Z M 15.007812 2.308594 C 15.046875 2.3125 15.144531 2.347656 15.320312 2.4375 C 15.679688 2.890625 14.828125 2.292969 15.007812 2.308594 Z M 6.433594 2.359375 C 6.398438 2.632812 6.125 3.042969 5.84375 3.070312 C 5.617188 3.050781 5.464844 3.40625 5.289062 3.523438 C 5.28125 3.554688 5.285156 3.328125 5.339844 3.058594 C 5.6875 2.800781 6.054688 2.566406 6.433594 2.359375 Z M 13.230469 2.640625 C 13.21875 2.648438 13.210938 2.667969 13.207031 2.714844 C 13.375 2.90625 13.28125 2.621094 13.230469 2.640625 Z M 13.882812 2.796875 C 13.871094 2.792969 13.867188 2.824219 13.894531 2.917969 C 14.078125 3.125 13.925781 2.808594 13.882812 2.796875 Z M 15.734375 2.800781 C 15.882812 2.800781 16.296875 3.058594 16.214844 3.339844 C 15.8125 3.664062 15.996094 3.492188 15.917969 3.132812 C 15.648438 2.894531 15.644531 2.800781 15.734375 2.800781 Z M 4.089844 4.15625 C 4.109375 4.175781 4.128906 4.199219 4.15625 4.238281 C 4.066406 4.503906 3.992188 4.398438 3.976562 4.273438 C 4.011719 4.234375 4.050781 4.195312 4.089844 4.15625 Z M 6.03125 4.367188 C 6.058594 4.367188 6.101562 4.390625 6.164062 4.449219 C 6.027344 4.554688 5.953125 4.367188 6.03125 4.367188 Z M 18.292969 4.535156 C 18.464844 4.730469 18.628906 4.9375 18.78125 5.144531 C 18.644531 5.382812 18.316406 4.765625 18.292969 4.535156 Z M 4.042969 4.648438 C 4.054688 4.644531 4.070312 4.652344 4.085938 4.679688 C 3.882812 5.273438 3.941406 4.667969 4.042969 4.648438 Z M 17.105469 5.257812 C 17.113281 5.257812 17.121094 5.257812 17.128906 5.257812 C 17.246094 5.277344 17.722656 5.550781 17.914062 5.738281 C 18.03125 6 17.53125 5.535156 17.433594 5.566406 C 17.148438 5.355469 17.070312 5.269531 17.105469 5.257812 Z M 3.792969 5.261719 C 3.816406 5.265625 3.835938 5.292969 3.84375 5.351562 C 3.476562 5.605469 3.6875 5.242188 3.792969 5.261719 Z M 18.5625 5.746094 C 18.582031 5.738281 18.632812 5.765625 18.746094 5.871094 C 18.765625 6.136719 18.507812 5.769531 18.5625 5.746094 Z M 19.09375 6.464844 C 19.050781 6.46875 19.003906 6.519531 18.972656 6.632812 C 19.011719 6.660156 19.054688 6.683594 19.097656 6.710938 C 19.328125 6.75 19.21875 6.445312 19.09375 6.464844 Z M 2.558594 8.414062 C 2.539062 8.414062 2.527344 8.464844 2.539062 8.605469 C 2.75 8.855469 2.617188 8.414062 2.558594 8.414062 Z M 2.441406 8.773438 C 2.421875 8.769531 2.390625 8.828125 2.351562 9 C 2.46875 9.347656 2.5 8.78125 2.441406 8.773438 Z M 1.835938 8.953125 C 1.417969 8.910156 2.1875 9.652344 2.21875 9.976562 C 2.996094 10.1875 2.109375 10.425781 2.765625 10.6875 C 3.757812 11.042969 3.144531 10.25 2.726562 10.082031 C 2.890625 9.816406 2.308594 9.625 2.09375 9.023438 C 1.980469 8.984375 1.898438 8.960938 1.835938 8.953125 Z M 2.652344 9.296875 C 2.648438 9.292969 2.640625 9.292969 2.636719 9.296875 C 2.613281 9.3125 2.613281 9.382812 2.675781 9.535156 L 2.722656 9.570312 C 2.765625 9.425781 2.695312 9.308594 2.652344 9.296875 Z M 2.050781 10.101562 C 1.996094 10.089844 1.988281 10.15625 2.121094 10.382812 C 2.539062 10.527344 2.175781 10.128906 2.050781 10.101562 Z M 16.171875 10.632812 C 16.167969 10.652344 16.164062 10.675781 16.160156 10.695312 C 16.164062 10.675781 16.167969 10.652344 16.171875 10.632812 Z M 3.476562 10.710938 C 3.425781 10.714844 3.378906 10.769531 3.367188 10.914062 C 3.839844 11.109375 3.632812 10.691406 3.476562 10.710938 Z M 4.234375 11.496094 C 4.214844 11.488281 4.191406 11.582031 4.175781 11.867188 L 4.1875 12.023438 C 4.355469 12.472656 4.296875 11.523438 4.234375 11.496094 Z M 16.652344 12.195312 C 16.65625 12.203125 16.660156 12.214844 16.664062 12.234375 C 16.664062 12.234375 16.664062 12.230469 16.664062 12.230469 C 16.664062 12.234375 16.660156 12.210938 16.65625 12.203125 C 16.65625 12.199219 16.65625 12.195312 16.652344 12.195312 Z M 1.699219 12.203125 C 1.71875 12.207031 1.734375 12.253906 1.746094 12.386719 C 1.789062 12.675781 1.769531 12.964844 1.738281 13.253906 C 1.652344 12.941406 1.585938 12.621094 1.539062 12.300781 C 1.605469 12.316406 1.660156 12.191406 1.699219 12.203125 Z M 1.699219 12.203125 "/>
<path fill-rule="nonzero" fill="rgb(27.843137%, 0%, 87.843137%)" fill-opacity="1" d="M 15.21875 6.542969 C 13.953125 6.554688 12.679688 6.957031 11.597656 7.78125 C 8.9375 9.808594 8.417969 13.628906 10.445312 16.289062 C 12.34375 18.78125 15.808594 19.382812 18.425781 17.789062 L 18.925781 18.445312 C 18.828125 18.671875 18.835938 18.890625 18.949219 19.042969 L 22.578125 23.808594 C 22.796875 24.089844 23.316406 24.058594 23.742188 23.730469 C 24.171875 23.40625 24.34375 22.914062 24.125 22.628906 L 20.496094 17.863281 C 20.382812 17.714844 20.175781 17.648438 19.925781 17.679688 L 19.425781 17.023438 C 21.660156 14.921875 22.003906 11.425781 20.105469 8.933594 C 19.09375 7.601562 17.632812 6.808594 16.089844 6.597656 C 15.800781 6.558594 15.511719 6.542969 15.21875 6.542969 Z M 14.984375 7.894531 C 15.292969 7.875 15.605469 7.886719 15.910156 7.925781 C 17.152344 8.09375 18.277344 8.75 19.035156 9.75 C 19.3125 10.117188 19.539062 10.527344 19.699219 10.960938 C 19.78125 11.101562 19.839844 11.253906 19.886719 11.410156 C 19.933594 11.582031 19.964844 11.765625 19.953125 11.941406 C 20.199219 13.636719 19.503906 15.332031 18.136719 16.371094 C 17.140625 17.128906 15.882812 17.464844 14.640625 17.296875 C 13.398438 17.128906 12.277344 16.472656 11.519531 15.472656 C 10.757812 14.476562 10.425781 13.21875 10.59375 11.976562 C 10.761719 10.734375 11.417969 9.613281 12.414062 8.855469 C 13.15625 8.285156 14.050781 7.953125 14.984375 7.894531 Z M 14.984375 7.894531 "/>
</svg>
