<!-- Uploaded to: SVG Repo, www.svgrepo.com, Generator: SVG Repo Mixer Tools -->
<svg xmlns="http://www.w3.org/2000/svg" xmlns:xlink="http://www.w3.org/1999/xlink" width="24" height="24" viewBox="0 0 24 24">
<path fill-rule="evenodd" fill="rgb(3.529412%, 14.117647%, 29.411765%)" fill-opacity="1" d="M 11 3.019531 C 11 2.1875 11.949219 1.710938 12.617188 2.210938 L 18.492188 6.621094 C 19.082031 7.058594 19.082031 7.941406 18.492188 8.378906 L 13.667969 12 L 18.492188 15.621094 C 19.082031 16.058594 19.082031 16.941406 18.492188 17.378906 L 12.617188 21.789062 C 11.949219 22.289062 11 21.8125 11 20.980469 L 11 14 L 6.601562 17.300781 C 6.160156 17.632812 5.53125 17.542969 5.199219 17.101562 C 4.867188 16.65625 4.957031 16.03125 5.398438 15.699219 L 10.332031 12 L 5.398438 8.300781 C 4.957031 7.96875 4.867188 7.34375 5.199219 6.898438 C 5.53125 6.457031 6.160156 6.367188 6.601562 6.699219 L 11 10 Z M 11 3.019531 "/>
</svg>
