<!-- Uploaded to: SVG Repo, www.svgrepo.com, Transformed by: SVG Repo Mixer Tools -->
<svg xmlns="http://www.w3.org/2000/svg" xmlns:xlink="http://www.w3.org/1999/xlink" width="24" height="24" viewBox="0 0 24 24">
<path fill-rule="evenodd" fill="rgb(100%, 100%, 100%)" fill-opacity="1" d="M 4 5 C 4 3.34375 5.34375 2 7 2 L 18 2 C 19.105469 2 20 2.894531 20 4 L 20 16.988281 C 20 17.15625 19.960938 17.3125 19.886719 17.460938 L 19.339844 18.554688 C 19.199219 18.835938 19.199219 19.164062 19.339844 19.445312 L 19.886719 20.535156 C 19.957031 20.671875 20 20.832031 20 21 C 20 21.550781 19.550781 22 19 22 L 7 22 C 5.34375 22 4 20.65625 4 19 Z M 7 18 L 17.40625 18 C 17.179688 18.648438 17.179688 19.351562 17.40625 20 L 7 20 C 6.449219 20 6 19.550781 6 19 C 6 18.449219 6.449219 18 7 18 Z M 10 7 C 9.449219 7 9 7.449219 9 8 C 9 8.550781 9.449219 9 10 9 L 14 9 C 14.550781 9 15 8.550781 15 8 C 15 7.449219 14.550781 7 14 7 Z M 10 7 "/>
</svg>
