<!-- Uploaded to: SVG Repo, www.svgrepo.com, Transformed by: SVG Repo Mixer Tools -->
<svg xmlns="http://www.w3.org/2000/svg" xmlns:xlink="http://www.w3.org/1999/xlink" width="24" height="24" viewBox="0 0 24 24">
<path fill-rule="nonzero" fill="rgb(100%, 47.058824%, 0%)" fill-opacity="1" d="M 0 19.511719 L 0 4.511719 C 0 3.265625 0.441406 2.199219 1.320312 1.320312 C 2.199219 0.441406 3.265625 0 4.511719 0 L 19.511719 0 C 20.742188 0 21.800781 0.441406 22.679688 1.320312 C 23.558594 2.199219 24 3.265625 24 4.511719 L 24 19.511719 C 24 20.761719 23.558594 21.816406 22.679688 22.679688 C 21.800781 23.542969 20.742188 23.984375 19.511719 24 L 4.511719 24 C 3.265625 24 2.199219 23.558594 1.320312 22.679688 C 0.441406 21.800781 0 20.742188 0 19.511719 Z M 3 19.511719 C 3 19.929688 3.144531 20.28125 3.433594 20.566406 C 3.71875 20.855469 4.078125 21 4.511719 21 L 19.511719 21 C 19.910156 21 20.265625 20.855469 20.566406 20.566406 C 20.871094 20.28125 21.015625 19.929688 21 19.511719 L 21 4.511719 C 21 4.097656 20.855469 3.742188 20.566406 3.457031 C 20.28125 3.167969 19.929688 3.015625 19.511719 3 L 4.511719 3 C 4.097656 3 3.734375 3.152344 3.433594 3.457031 C 3.128906 3.761719 2.984375 4.113281 3 4.511719 Z M 6 18 L 6 15 L 9 15 L 9 18 Z M 6 13.511719 L 6 10.511719 L 9 10.511719 L 9 13.511719 Z M 6 9 L 6 6 L 9 6 L 9 9 Z M 10.511719 18 L 10.511719 15 L 18 15 L 18 18 Z M 10.511719 13.511719 L 10.511719 10.511719 L 18 10.511719 L 18 13.511719 Z M 10.511719 9 L 10.511719 6 L 18 6 L 18 9 Z M 10.511719 9 "/>
</svg>
