<!-- Uploaded to: SVG Repo, www.svgrepo.com, Generator: SVG Repo Mixer Tools -->
<svg xmlns="http://www.w3.org/2000/svg" xmlns:xlink="http://www.w3.org/1999/xlink" width="24" height="24" viewBox="0 0 24 24">
<path fill-rule="evenodd" fill="rgb(3.529412%, 14.117647%, 29.411765%)" fill-opacity="1" d="M 9 2 C 7.894531 2 7 2.894531 7 4 L 7 6 L 9 6 L 9 4 L 20 4 L 20 15 L 18 15 L 18 17 L 20 17 C 21.105469 17 22 16.105469 22 15 L 22 4 C 22 2.894531 21.105469 2 20 2 Z M 4 7 C 2.894531 7 2 7.894531 2 9 L 2 20 C 2 21.105469 2.894531 22 4 22 L 15 22 C 16.105469 22 17 21.105469 17 20 L 17 9 C 17 7.894531 16.105469 7 15 7 Z M 4 7 "/>
</svg>
