<!-- Uploaded to: SVG Repo, www.svgrepo.com, Transformed by: SVG Repo Mixer Tools -->
<svg xmlns="http://www.w3.org/2000/svg" xmlns:xlink="http://www.w3.org/1999/xlink" width="24" height="24" viewBox="0 0 24 24">
<path fill-rule="evenodd" fill="rgb(100%, 100%, 100%)" fill-opacity="1" d="M 12 14.121094 L 17.304688 19.425781 C 17.890625 20.011719 18.839844 20.011719 19.425781 19.425781 C 20.011719 18.839844 20.011719 17.890625 19.425781 17.304688 L 14.121094 12 L 19.425781 6.695312 C 20.011719 6.109375 20.011719 5.160156 19.425781 4.574219 C 18.839844 3.988281 17.890625 3.988281 17.304688 4.574219 L 12 9.878906 L 6.695312 4.574219 C 6.109375 3.988281 5.160156 3.988281 4.574219 4.574219 C 3.988281 5.160156 3.988281 6.109375 4.574219 6.695312 L 9.878906 12 L 4.574219 17.304688 C 3.988281 17.890625 3.988281 18.839844 4.574219 19.425781 C 5.160156 20.011719 6.109375 20.011719 6.695312 19.425781 Z M 12 14.121094 "/>
</svg>
