<!-- Uploaded to: SVG Repo, www.svgrepo.com, Generator: SVG Repo Mixer Tools -->
<svg xmlns="http://www.w3.org/2000/svg" xmlns:xlink="http://www.w3.org/1999/xlink" width="18" height="18" viewBox="0 0 18 18">
<path fill-rule="evenodd" fill="rgb(3.529412%, 14.117647%, 29.411765%)" fill-opacity="1" d="M 9 10.589844 L 12.976562 14.570312 C 13.417969 15.007812 14.128906 15.007812 14.570312 14.570312 C 15.007812 14.128906 15.007812 13.417969 14.570312 12.976562 L 10.589844 9 L 14.570312 5.023438 C 15.007812 4.582031 15.007812 3.871094 14.570312 3.433594 C 14.128906 2.992188 13.417969 2.992188 12.976562 3.433594 L 9 7.410156 L 5.023438 3.433594 C 4.582031 2.992188 3.871094 2.992188 3.429688 3.433594 C 2.992188 3.871094 2.992188 4.582031 3.429688 5.023438 L 7.410156 9 L 3.429688 12.976562 C 2.992188 13.417969 2.992188 14.128906 3.429688 14.570312 C 3.871094 15.007812 4.582031 15.007812 5.023438 14.570312 Z M 9 10.589844 "/>
</svg>
