<!-- Uploaded to: SVG Repo, www.svgrepo.com, Transformed by: SVG Repo Mixer Tools -->
<svg xmlns="http://www.w3.org/2000/svg" xmlns:xlink="http://www.w3.org/1999/xlink" width="24" height="24" viewBox="0 0 24 24">
<path fill-rule="nonzero" fill="rgb(3.529412%, 14.117647%, 29.411765%)" fill-opacity="1" d="M 16.949219 6.050781 L 7.101562 6.050781 L 8.800781 3.5 C 9 3.199219 9.300781 3.050781 9.648438 3.050781 L 14.449219 3.050781 C 14.800781 3.050781 15.101562 3.199219 15.300781 3.5 Z M 16.949219 6.050781 "/>
<path fill-rule="nonzero" fill="rgb(3.529412%, 14.117647%, 29.411765%)" fill-opacity="1" d="M 7 5.5 L 4 5.5 L 4 4.601562 C 4 4.25 4.25 4 4.601562 4 L 6.398438 4 C 6.75 4 7 4.25 7 4.601562 Z M 7 5.5 "/>
<path fill-rule="nonzero" fill="rgb(3.529412%, 14.117647%, 29.411765%)" fill-opacity="1" d="M 20 21 L 4 21 C 2.898438 21 2 20.101562 2 19 L 2 7 C 2 5.898438 2.898438 5 4 5 L 20 5 C 21.101562 5 22 5.898438 22 7 L 22 19 C 22 20.101562 21.101562 21 20 21 Z M 20 21 "/>
<path fill-rule="nonzero" fill="rgb(90.980392%, 91.764706%, 96.470588%)" fill-opacity="1" d="M 17 12.5 C 17 9.75 14.75 7.5 12 7.5 C 10.800781 7.5 9.699219 7.898438 8.851562 8.601562 L 9.449219 9.398438 C 10.148438 8.851562 11 8.5 12 8.5 C 14.199219 8.5 16 10.300781 16 12.5 L 14.25 12.5 L 16.5 15.300781 L 18.75 12.5 Z M 17 12.5 "/>
<path fill-rule="nonzero" fill="rgb(90.980392%, 91.764706%, 96.470588%)" fill-opacity="1" d="M 14.550781 15.601562 C 13.851562 16.148438 12.949219 16.5 12 16.5 C 9.800781 16.5 8 14.699219 8 12.5 L 9.75 12.5 L 7.5 9.699219 L 5.25 12.5 L 7 12.5 C 7 15.25 9.25 17.5 12 17.5 C 13.199219 17.5 14.300781 17.101562 15.148438 16.398438 Z M 14.550781 15.601562 "/>
</svg>
