
<svg xmlns="http://www.w3.org/2000/svg" xmlns:xlink="http://www.w3.org/1999/xlink" width="24" height="24" viewBox="0 0 24 24">
<path fill-rule="nonzero" fill="rgb(0%, 13.333333%, 33.333333%)" fill-opacity="1" d="M 9 3 L 7.152344 5 L 4 5 C 3.449219 5 2.980469 5.195312 2.585938 5.589844 C 2.195312 5.980469 2 6.449219 2 7 L 2 19 C 2 19.550781 2.195312 20.019531 2.585938 20.410156 C 2.980469 20.804688 3.449219 21 4 21 L 12.78125 21 L 11.867188 19.441406 L 12.375 19 L 4 19 L 4 7 L 8.050781 7 L 9.875 5 L 14.125 5 L 15.949219 7 L 20 7 L 20 12.898438 L 20.179688 13.804688 L 20.550781 14.007812 L 22 13.558594 L 22 7 C 22 6.449219 21.804688 5.980469 21.410156 5.585938 C 21.019531 5.195312 20.550781 5 20 5 L 16.847656 5 L 15 3 Z M 12 8.5 C 10.75 8.5 9.6875 8.9375 8.8125 9.8125 C 7.9375 10.6875 7.5 11.75 7.5 13 C 7.5 14.25 7.9375 15.3125 8.8125 16.1875 C 9.6875 17.0625 10.75 17.5 12 17.5 C 12.28125 17.5 12.515625 17.398438 12.78125 17.351562 L 11.867188 16.558594 L 12.550781 15.398438 C 12.371094 15.4375 12.199219 15.5 12 15.5 C 11.300781 15.5 10.707031 15.257812 10.226562 14.777344 C 9.742188 14.292969 9.5 13.699219 9.5 13 C 9.5 12.300781 9.742188 11.707031 10.226562 11.222656 C 10.707031 10.742188 11.300781 10.5 12 10.5 C 12.699219 10.5 13.292969 10.742188 13.777344 11.222656 C 14.257812 11.707031 14.5 12.300781 14.5 13 C 14.5 13.242188 14.429688 13.457031 14.375 13.675781 L 15.449219 14.003906 L 15.820312 13.804688 L 16.179688 12 L 16.3125 12 C 16.132812 11.1875 15.808594 10.433594 15.1875 9.8125 C 14.3125 8.9375 13.25 8.5 12 8.5 Z M 12 8.5 "/>
<path fill-rule="nonzero" fill="rgb(0%, 13.333333%, 33.333333%)" fill-opacity="1" d="M 19 13 L 19.300781 14.5 C 19.5 14.582031 19.6875 14.671875 19.863281 14.761719 C 20.039062 14.855469 20.214844 14.964844 20.398438 15.101562 L 21.851562 14.648438 L 22.851562 16.351562 L 21.699219 17.351562 C 21.734375 17.550781 21.75 17.765625 21.75 18 C 21.75 18.234375 21.734375 18.449219 21.699219 18.648438 L 22.851562 19.648438 L 21.851562 21.351562 L 20.398438 20.898438 C 20.214844 21.035156 20.039062 21.144531 19.863281 21.238281 C 19.6875 21.328125 19.5 21.417969 19.300781 21.5 L 19 23 L 17 23 L 16.699219 21.5 C 16.5 21.417969 16.3125 21.328125 16.136719 21.238281 C 15.960938 21.144531 15.785156 21.035156 15.601562 20.898438 L 14.148438 21.351562 L 13.148438 19.648438 L 14.300781 18.648438 C 14.265625 18.449219 14.25 18.234375 14.25 18 C 14.25 17.765625 14.265625 17.550781 14.300781 17.351562 L 13.148438 16.351562 L 14.148438 14.648438 L 15.601562 15.101562 C 15.785156 14.964844 15.960938 14.855469 16.136719 14.761719 C 16.3125 14.671875 16.5 14.582031 16.699219 14.5 L 17 13 Z M 18 16 C 17.449219 16 16.980469 16.195312 16.585938 16.585938 C 16.195312 16.980469 16 17.449219 16 18 C 16 18.550781 16.195312 19.019531 16.585938 19.414062 C 16.980469 19.804688 17.449219 20 18 20 C 18.550781 20 19.019531 19.804688 19.414062 19.414062 C 19.804688 19.019531 20 18.550781 20 18 C 20 17.449219 19.804688 16.980469 19.414062 16.585938 C 19.019531 16.195312 18.550781 16 18 16 Z M 18 16 "/>
</svg>
