<!-- Uploaded to: SVG Repo, www.svgrepo.com, Generator: SVG Repo Mixer Tools -->
<svg xmlns="http://www.w3.org/2000/svg" xmlns:xlink="http://www.w3.org/1999/xlink" width="24" height="24" viewBox="0 0 24 24">
<path fill-rule="nonzero" fill="rgb(10.980392%, 15.294118%, 29.803922%)" fill-opacity="1" d="M 7.75 2.5 C 7.75 2.085938 7.414062 1.75 7 1.75 C 6.585938 1.75 6.25 2.085938 6.25 2.5 L 6.25 4.078125 C 4.8125 4.195312 3.867188 4.476562 3.171875 5.171875 C 2.476562 5.867188 2.195312 6.8125 2.078125 8.25 L 21.921875 8.25 C 21.804688 6.8125 21.523438 5.867188 20.828125 5.171875 C 20.132812 4.476562 19.1875 4.195312 17.75 4.078125 L 17.75 2.5 C 17.75 2.085938 17.414062 1.75 17 1.75 C 16.585938 1.75 16.25 2.085938 16.25 2.5 L 16.25 4.011719 C 15.585938 4 14.839844 4 14 4 L 10 4 C 9.160156 4 8.414062 4 7.75 4.011719 Z M 7.75 2.5 "/>
<path fill-rule="evenodd" fill="rgb(10.980392%, 15.294118%, 29.803922%)" fill-opacity="1" d="M 22 12 L 22 14 C 22 17.769531 22 19.65625 20.828125 20.828125 C 19.65625 22 17.769531 22 14 22 L 10 22 C 6.230469 22 4.34375 22 3.171875 20.828125 C 2 19.65625 2 17.769531 2 14 L 2 12 C 2 11.160156 2 10.414062 2.011719 9.75 L 21.988281 9.75 C 22 10.414062 22 11.160156 22 12 Z M 16.5 18 C 17.328125 18 18 17.328125 18 16.5 C 18 15.671875 17.328125 15 16.5 15 C 15.671875 15 15 15.671875 15 16.5 C 15 17.328125 15.671875 18 16.5 18 Z M 16.5 18 "/>
</svg>
