<!-- Uploaded to: SVG Repo, www.svgrepo.com, Generator: SVG Repo Mixer Tools -->
<svg xmlns="http://www.w3.org/2000/svg" xmlns:xlink="http://www.w3.org/1999/xlink" width="24" height="24" viewBox="0 0 24 24">
<path fill-rule="nonzero" fill="rgb(3.529412%, 14.117647%, 29.411765%)" fill-opacity="1" d="M 14.792969 3 C 15.140625 3 15.476562 3.121094 15.742188 3.339844 L 15.855469 3.4375 L 17.414062 5 L 20 5 C 21.054688 5 21.917969 5.816406 21.996094 6.851562 L 22 7 L 22 19 C 22 20.054688 21.183594 20.917969 20.148438 20.996094 L 20 21 L 4 21 C 2.945312 21 2.082031 20.183594 2.003906 19.148438 L 2 19 L 2 7 C 2 5.945312 2.816406 5.082031 3.851562 5.003906 L 4 5 L 6.585938 5 L 8.144531 3.4375 C 8.394531 3.191406 8.714844 3.042969 9.058594 3.007812 L 9.207031 3 Z M 12 7.5 C 9.238281 7.5 7 9.738281 7 12.5 C 7 15.261719 9.238281 17.5 12 17.5 C 14.761719 17.5 17 15.261719 17 12.5 C 17 9.738281 14.761719 7.5 12 7.5 Z M 12 9.5 C 13.65625 9.5 15 10.84375 15 12.5 C 15 14.15625 13.65625 15.5 12 15.5 C 10.34375 15.5 9 14.15625 9 12.5 C 9 10.84375 10.34375 9.5 12 9.5 Z M 12 9.5 "/>
</svg>
