
<svg xmlns="http://www.w3.org/2000/svg" xmlns:xlink="http://www.w3.org/1999/xlink" width="24" height="24" viewBox="0 0 24 24">
<path fill-rule="nonzero" fill="rgb(0%, 13.333333%, 33.333333%)" fill-opacity="1" d="M 4 20 C 3.449219 20 2.980469 19.804688 2.585938 19.414062 C 2.195312 19.019531 2 18.550781 2 18 L 2 6 C 2 5.449219 2.195312 4.980469 2.585938 4.585938 C 2.980469 4.195312 3.449219 4 4 4 L 20 4 C 20.550781 4 21.019531 4.195312 21.414062 4.585938 C 21.804688 4.980469 22 5.449219 22 6 L 22 18 C 22 18.550781 21.804688 19.019531 21.414062 19.414062 C 21.019531 19.804688 20.550781 20 20 20 Z M 4 18 L 20 18 L 20 6 L 4 6 Z M 4 18 L 4 6 Z M 4 18 "/>
<path fill="none" stroke-width="40" stroke-linecap="square" stroke-linejoin="miter" stroke="rgb(0%, 0%, 0%)" stroke-opacity="1" stroke-miterlimit="4" d="M 260 -620 L 260 -340 " transform="matrix(0.025, 0, 0, 0.025, 0, 24)"/>
<path fill="none" stroke-width="40" stroke-linecap="square" stroke-linejoin="miter" stroke="rgb(0%, 0%, 0%)" stroke-opacity="1" stroke-miterlimit="4" d="M 700 -340 L 260 -340 " transform="matrix(0.025, 0, 0, 0.025, 0, 24)"/>
<path fill="none" stroke-width="40" stroke-linecap="square" stroke-linejoin="miter" stroke="rgb(0%, 0%, 0%)" stroke-opacity="1" stroke-miterlimit="4" d="M 220 -660 L 300 -660 " transform="matrix(0.025, 0, 0, 0.025, 0, 24)"/>
<path fill="none" stroke-width="40" stroke-linecap="square" stroke-linejoin="miter" stroke="rgb(0%, 0%, 0%)" stroke-opacity="1" stroke-miterlimit="4" d="M 740 -380 L 740 -300 " transform="matrix(0.025, 0, 0, 0.025, 0, 24)"/>
<path fill="none" stroke-width="40" stroke-linecap="square" stroke-linejoin="miter" stroke="rgb(0%, 0%, 0%)" stroke-opacity="1" stroke-miterlimit="4" d="M 220 -380 L 220 -300 " transform="matrix(0.025, 0, 0, 0.025, 0, 24)"/>
<path fill="none" stroke-width="40" stroke-linecap="square" stroke-linejoin="miter" stroke="rgb(0%, 0%, 0%)" stroke-opacity="1" stroke-miterlimit="4" d="M 300 -300 L 220 -300 " transform="matrix(0.025, 0, 0, 0.025, 0, 24)"/>
</svg>
