<!-- Uploaded to: SVG Repo, www.svgrepo.com, Transformed by: SVG Repo Mixer Tools -->
<svg xmlns="http://www.w3.org/2000/svg" xmlns:xlink="http://www.w3.org/1999/xlink" width="24" height="24" viewBox="0 0 24 24">
<path fill-rule="nonzero" fill="rgb(100%, 100%, 100%)" fill-opacity="1" d="M 2.667969 20.945312 L 12.207031 20.945312 C 12.0625 21.332031 11.890625 21.726562 11.703125 22.132812 C 11.394531 22.785156 11.675781 23.566406 12.328125 23.875 C 12.507812 23.957031 12.695312 24 12.890625 24 C 13.378906 24 13.851562 23.722656 14.078125 23.25 C 14.453125 22.457031 14.753906 21.6875 14.984375 20.945312 L 21.335938 20.945312 C 22.0625 20.945312 22.640625 20.359375 22.640625 19.640625 C 22.640625 18.917969 22.054688 18.332031 21.335938 18.332031 L 15.492188 18.332031 C 15.605469 16.707031 15.304688 15.234375 14.566406 13.933594 C 14.015625 12.960938 13.269531 12.1875 12.453125 11.570312 L 22.097656 2.230469 C 22.605469 1.714844 22.597656 0.886719 22.085938 0.378906 C 21.570312 -0.128906 20.742188 -0.125 20.234375 0.390625 L 10.105469 10.21875 C 8.117188 9.367188 6.308594 9.179688 6.175781 9.167969 C 5.457031 9.101562 4.820312 9.621094 4.746094 10.339844 C 4.675781 11.0625 5.199219 11.703125 5.921875 11.773438 C 5.9375 11.773438 6.902344 11.882812 8.09375 12.265625 L 1.734375 18.71875 C 1.367188 19.09375 1.257812 19.65625 1.457031 20.148438 C 1.664062 20.628906 2.140625 20.945312 2.667969 20.945312 Z M 10.605469 13.449219 C 11.269531 13.910156 11.875 14.496094 12.292969 15.234375 C 12.789062 16.113281 12.976562 17.144531 12.859375 18.324219 L 5.792969 18.324219 Z M 10.605469 13.449219 "/>
</svg>
