<!-- Uploaded to: SVG Repo, www.svgrepo.com, Transformed by: SVG Repo Mixer Tools -->
<svg xmlns="http://www.w3.org/2000/svg" xmlns:xlink="http://www.w3.org/1999/xlink" width="24" height="24" viewBox="0 0 24 24">
<path fill-rule="nonzero" fill="rgb(3.529412%, 14.117647%, 29.411765%)" fill-opacity="1" d="M 18 3 L 4 3 C 3.449219 3 3 3.449219 3 4 L 3 18 C 3 18.550781 2.550781 19 2 19 C 1.449219 19 1 18.550781 1 18 L 1 4 C 1 2.34375 2.34375 1 4 1 L 18 1 C 18.550781 1 19 1.449219 19 2 C 19 2.550781 18.550781 3 18 3 Z M 18 3 "/>
<path fill-rule="nonzero" fill="rgb(3.529412%, 14.117647%, 29.411765%)" fill-opacity="1" d="M 13 11 C 13 10.449219 13.449219 10 14 10 C 14.550781 10 15 10.449219 15 11 L 15 13 L 17 13 C 17.550781 13 18 13.449219 18 14 C 18 14.550781 17.550781 15 17 15 L 15 15 L 15 17 C 15 17.550781 14.550781 18 14 18 C 13.449219 18 13 17.550781 13 17 L 13 15 L 11 15 C 10.449219 15 10 14.550781 10 14 C 10 13.449219 10.449219 13 11 13 L 13 13 Z M 13 11 "/>
<path fill-rule="evenodd" fill="rgb(3.529412%, 14.117647%, 29.411765%)" fill-opacity="1" d="M 20 5 C 21.65625 5 23 6.34375 23 8 L 23 20 C 23 21.65625 21.65625 23 20 23 L 8 23 C 6.34375 23 5 21.65625 5 20 L 5 8 C 5 6.34375 6.34375 5 8 5 Z M 20 7 C 20.550781 7 21 7.449219 21 8 L 21 20 C 21 20.550781 20.550781 21 20 21 L 8 21 C 7.449219 21 7 20.550781 7 20 L 7 8 C 7 7.449219 7.449219 7 8 7 Z M 20 7 "/>
</svg>
