<!-- Uploaded to: SVG Repo, www.svgrepo.com, Generator: SVG Repo Mixer Tools -->
<svg xmlns="http://www.w3.org/2000/svg" xmlns:xlink="http://www.w3.org/1999/xlink" width="24" height="24" viewBox="0 0 24 24">
<path fill-rule="nonzero" fill="rgb(3.529412%, 14.117647%, 29.411765%)" fill-opacity="1" d="M 12 17 C 13.105469 17 14 17.894531 14 19 C 14 20.105469 13.105469 21 12 21 C 10.894531 21 10 20.105469 10 19 C 10 17.894531 10.894531 17 12 17 Z M 12 10 C 13.105469 10 14 10.894531 14 12 C 14 13.105469 13.105469 14 12 14 C 10.894531 14 10 13.105469 10 12 C 10 10.894531 10.894531 10 12 10 Z M 12 3 C 13.105469 3 14 3.894531 14 5 C 14 6.105469 13.105469 7 12 7 C 10.894531 7 10 6.105469 10 5 C 10 3.894531 10.894531 3 12 3 Z M 12 3 "/>
</svg>
