<!-- Uploaded to: SVG Repo, www.svgrepo.com, Generator: SVG Repo Mixer Tools -->
<svg xmlns="http://www.w3.org/2000/svg" xmlns:xlink="http://www.w3.org/1999/xlink" width="24" height="24" viewBox="0 0 24 24">
<path fill-rule="evenodd" fill="rgb(3.529412%, 14.117647%, 29.411765%)" fill-opacity="1" d="M 20.132812 3.160156 C 18.960938 1.988281 17.058594 1.988281 15.890625 3.160156 L 15.183594 3.867188 L 20.132812 8.816406 L 20.839844 8.109375 C 22.011719 6.9375 22.011719 5.039062 20.839844 3.867188 Z M 18.71875 10.230469 L 13.765625 5.28125 L 4.675781 14.375 C 4.476562 14.570312 4.339844 14.824219 4.277344 15.097656 L 3.246094 19.550781 C 3.082031 20.273438 3.726562 20.917969 4.449219 20.75 L 8.902344 19.722656 C 9.175781 19.660156 9.425781 19.523438 9.625 19.324219 Z M 18.71875 10.230469 "/>
<path fill-rule="nonzero" fill="rgb(3.529412%, 14.117647%, 29.411765%)" fill-opacity="1" d="M 18.28125 12.421875 C 18.695312 12.191406 19.199219 12.207031 19.601562 12.460938 L 22.875 14.539062 C 23.277344 14.796875 23.515625 15.25 23.503906 15.738281 L 23.390625 19.691406 C 23.375 20.175781 23.109375 20.617188 22.695312 20.847656 L 19.308594 22.722656 C 18.894531 22.953125 18.390625 22.941406 17.988281 22.683594 L 14.714844 20.605469 C 14.3125 20.351562 14.074219 19.894531 14.085938 19.410156 L 14.199219 15.457031 C 14.214844 14.96875 14.480469 14.527344 14.894531 14.296875 Z M 18.84375 15.941406 C 17.964844 15.914062 17.234375 16.625 17.207031 17.527344 C 17.183594 18.425781 17.871094 19.179688 18.75 19.207031 C 19.625 19.230469 20.355469 18.523438 20.382812 17.621094 C 20.40625 16.71875 19.71875 15.96875 18.84375 15.941406 Z M 18.84375 15.941406 "/>
</svg>
