<!-- Uploaded to: SVG Repo, www.svgrepo.com, Transformed by: SVG Repo Mixer Tools -->
<svg xmlns="http://www.w3.org/2000/svg" xmlns:xlink="http://www.w3.org/1999/xlink" width="24" height="24" viewBox="0 0 24 24">
<path fill-rule="evenodd" fill="rgb(100%, 100%, 100%)" fill-opacity="1" d="M 14.277344 2 C 15.140625 2 15.90625 2.550781 16.175781 3.367188 L 16.722656 5 L 20 5 C 20.550781 5 21 5.449219 21 6 C 21 6.550781 20.550781 7 20 7 L 19.996094 7.070312 L 19.128906 19.214844 C 19.019531 20.785156 17.710938 22 16.136719 22 L 7.863281 22 C 6.289062 22 4.980469 20.785156 4.871094 19.214844 L 4.003906 7.070312 C 4 7.046875 4 7.023438 4 7 C 3.449219 7 3 6.550781 3 6 C 3 5.449219 3.449219 5 4 5 L 7.277344 5 L 7.824219 3.367188 C 8.09375 2.550781 8.859375 2 9.722656 2 Z M 9 10 C 8.488281 10 8.066406 10.386719 8.007812 10.882812 L 8 11 L 8 17 C 8 17.550781 8.449219 18 9 18 C 9.511719 18 9.933594 17.613281 9.992188 17.117188 L 10 17 L 10 11 C 10 10.449219 9.550781 10 9 10 Z M 15 10 C 14.449219 10 14 10.449219 14 11 L 14 17 C 14 17.550781 14.449219 18 15 18 C 15.550781 18 16 17.550781 16 17 L 16 11 C 16 10.449219 15.550781 10 15 10 Z M 14.277344 4 L 9.722656 4 L 9.386719 5 L 14.613281 5 Z M 14.277344 4 "/>
</svg>
