<!-- Uploaded to: SVG Repo, www.svgrepo.com, Transformed by: SVG Repo Mixer Tools -->
<svg xmlns="http://www.w3.org/2000/svg" xmlns:xlink="http://www.w3.org/1999/xlink" width="24" height="24" viewBox="0 0 24 24">
<path fill-rule="nonzero" fill="rgb(100%, 100%, 100%)" fill-opacity="1" d="M 9.359375 0 C 8.695312 0 8.160156 0.535156 8.160156 1.199219 L 8.160156 10.800781 C 8.160156 11.464844 8.695312 12 9.359375 12 L 14.640625 12 C 15.304688 12 15.839844 11.464844 15.839844 10.800781 L 15.839844 1.199219 C 15.839844 0.535156 15.304688 0 14.640625 0 Z M 11.996094 3.601562 C 11.996094 3.601562 12 3.601562 12 3.601562 C 13.324219 3.601562 14.398438 4.675781 14.398438 6 C 14.398438 7.324219 13.324219 8.398438 12 8.398438 C 10.675781 8.398438 9.601562 7.324219 9.601562 6 C 9.601562 4.675781 10.671875 3.601562 11.996094 3.601562 Z M 6.28125 4.859375 C 5.976562 4.859375 5.679688 4.980469 5.460938 5.199219 C 5.242188 5.417969 5.121094 5.710938 5.121094 6.019531 L 5.121094 14.140625 C 5.121094 14.449219 5.242188 14.742188 5.460938 14.960938 C 5.679688 15.179688 5.976562 15.300781 6.28125 15.300781 L 9.269531 15.300781 L 9.269531 18.539062 L 9.773438 18.539062 L 8.308594 24 L 10.046875 24 L 11.511719 18.539062 L 12.488281 18.539062 L 13.953125 24 L 15.691406 24 L 14.226562 18.539062 L 14.730469 18.539062 L 14.730469 15.300781 L 17.71875 15.300781 C 18.023438 15.300781 18.320312 15.179688 18.539062 14.960938 C 18.757812 14.742188 18.878906 14.449219 18.878906 14.140625 L 18.878906 6.019531 C 18.878906 5.710938 18.757812 5.417969 18.539062 5.199219 C 18.320312 4.980469 18.023438 4.859375 17.71875 4.859375 L 16.800781 4.859375 C 16.800781 6.828125 16.804688 8.792969 16.792969 10.761719 C 16.855469 11.855469 15.921875 12.875 14.835938 12.953125 C 13.023438 12.96875 11.214844 12.957031 9.402344 12.957031 C 8.320312 13.011719 7.304688 12.109375 7.210938 11.03125 C 7.1875 9.042969 7.203125 7.054688 7.199219 5.066406 L 7.199219 4.859375 Z M 6.28125 4.859375 "/>
</svg>
