
<svg xmlns="http://www.w3.org/2000/svg" xmlns:xlink="http://www.w3.org/1999/xlink" width="24" height="24" viewBox="0 0 24 24">
<path fill-rule="nonzero" fill="rgb(0%, 13.333333%, 33.333333%)" fill-opacity="1" d="M 9.269531 11.21875 C 7.019531 10.417969 5.894531 9.207031 5.894531 7.585938 C 5.894531 6.308594 6.488281 5.285156 7.675781 4.519531 C 8.871094 3.753906 10.359375 3.371094 12.125 3.371094 C 13.730469 3.371094 15.007812 3.640625 15.953125 4.175781 C 16.902344 4.703125 17.378906 5.335938 17.378906 6.078125 C 17.378906 6.46875 17.230469 6.808594 16.929688 7.105469 C 16.636719 7.390625 16.292969 7.535156 15.90625 7.535156 C 15.265625 7.535156 14.738281 7.089844 14.328125 6.199219 C 13.761719 4.964844 12.910156 4.347656 11.769531 4.347656 C 10.867188 4.347656 10.125 4.644531 9.542969 5.238281 C 8.960938 5.832031 8.667969 6.660156 8.667969 7.722656 C 8.667969 9.8125 9.75 10.859375 11.90625 10.859375 C 12.132812 10.859375 12.394531 10.835938 12.691406 10.789062 C 13.203125 10.722656 13.601562 10.6875 13.886719 10.6875 C 14.578125 10.6875 14.929688 10.886719 14.929688 11.285156 C 14.929688 11.730469 14.574219 11.953125 13.867188 11.953125 C 13.617188 11.953125 13.242188 11.914062 12.742188 11.832031 C 12.363281 11.765625 12.074219 11.730469 11.871094 11.730469 C 9.585938 11.730469 8.445312 12.890625 8.445312 15.214844 C 8.445312 16.34375 8.746094 17.257812 9.355469 17.957031 C 9.957031 18.640625 10.804688 18.984375 11.886719 18.984375 C 13.242188 18.984375 14.140625 18.28125 14.585938 16.875 C 14.8125 16.132812 15.0625 15.617188 15.339844 15.332031 C 15.625 15.050781 16.003906 14.90625 16.472656 14.90625 C 16.859375 14.90625 17.203125 15.050781 17.515625 15.332031 C 17.835938 15.605469 17.992188 15.960938 17.992188 16.394531 C 17.992188 17.433594 17.410156 18.296875 16.246094 18.984375 C 15.082031 19.65625 13.675781 19.992188 12.023438 19.992188 C 10.210938 19.992188 8.59375 19.558594 7.179688 18.691406 C 5.777344 17.824219 5.074219 16.664062 5.074219 15.214844 C 5.074219 13.402344 6.472656 12.070312 9.269531 11.21875 "/>
</svg>
