<!-- Uploaded to: SVG Repo, www.svgrepo.com, Transformed by: SVG Repo Mixer Tools -->
<svg xmlns="http://www.w3.org/2000/svg" xmlns:xlink="http://www.w3.org/1999/xlink" width="24" height="24" viewBox="0 0 24 24">
<path fill-rule="evenodd" fill="rgb(100%, 100%, 100%)" fill-opacity="1" d="M 3.5 12.898438 C 2.71875 13.679688 2.71875 14.945312 3.5 15.726562 L 7.359375 19.585938 L 4.085938 19.585938 C 3.535156 19.585938 3.085938 20.035156 3.085938 20.585938 C 3.085938 21.136719 3.535156 21.585938 4.085938 21.585938 L 20.085938 21.585938 C 20.636719 21.585938 21.085938 21.136719 21.085938 20.585938 C 21.085938 20.035156 20.636719 19.585938 20.085938 19.585938 L 10.957031 19.585938 L 20.46875 10.070312 C 21.25 9.289062 21.25 8.023438 20.46875 7.242188 L 16.226562 3 C 15.445312 2.21875 14.179688 2.21875 13.398438 3 Z M 7.824219 11.402344 L 4.914062 14.3125 L 9.15625 18.554688 L 12.070312 15.644531 Z M 9.238281 9.988281 L 13.484375 14.230469 L 19.054688 8.65625 L 14.8125 4.414062 Z M 9.238281 9.988281 "/>
</svg>
