
<svg xmlns="http://www.w3.org/2000/svg" xmlns:xlink="http://www.w3.org/1999/xlink" width="24" height="24" viewBox="0 0 24 24">
<path fill-rule="nonzero" fill="rgb(100%, 100%, 100%)" fill-opacity="1" d="M 11.742188 13.949219 L 12.292969 16 L 14.339844 15.449219 L 18.765625 7.789062 L 16.167969 6.289062 Z M 19.925781 5.78125 C 20.082031 5.511719 19.988281 5.167969 19.71875 5.011719 L 18.097656 4.074219 C 17.828125 3.917969 17.484375 4.011719 17.328125 4.28125 L 16.59375 5.550781 L 19.191406 7.046875 Z M 19.925781 5.78125 "/>
<path fill-rule="nonzero" fill="rgb(100%, 100%, 100%)" fill-opacity="1" d="M 5.957031 12.929688 L 6.054688 12.910156 L 6.09375 12.816406 L 6.140625 12.902344 L 6.238281 12.910156 L 6.175781 12.984375 L 6.199219 13.078125 L 6.105469 13.039062 L 6.023438 13.089844 L 6.035156 12.992188 Z M 5.957031 12.929688 "/>
<path fill="none" stroke-width="1.4" stroke-linecap="butt" stroke-linejoin="miter" stroke="rgb(100%, 100%, 100%)" stroke-opacity="1" stroke-miterlimit="4" d="M 5.144914 7.82086 L 6.707414 17.203672 L 15.445695 18.715391 " transform="matrix(1, 0, 0, 1, 0.60118, -0.32086)"/>
<path fill-rule="nonzero" fill="rgb(100%, 100%, 100%)" fill-opacity="1" stroke-width="1.9319" stroke-linecap="butt" stroke-linejoin="miter" stroke="rgb(100%, 100%, 100%)" stroke-opacity="1" stroke-miterlimit="4" d="M 4.363664 6.922422 L 5.933976 6.922422 L 5.933976 8.488829 L 4.363664 8.488829 Z M 4.363664 6.922422 " transform="matrix(1, 0, 0, 1, 0.60118, -0.32086)"/>
<path fill-rule="nonzero" fill="rgb(100%, 100%, 100%)" fill-opacity="1" stroke-width="1.9319" stroke-linecap="butt" stroke-linejoin="miter" stroke="rgb(100%, 100%, 100%)" stroke-opacity="1" stroke-miterlimit="4" d="M 5.832414 16.168516 L 7.39882 16.168516 L 7.39882 17.738829 L 5.832414 17.738829 Z M 5.832414 16.168516 " transform="matrix(1, 0, 0, 1, 0.60118, -0.32086)"/>
<path fill-rule="nonzero" fill="rgb(100%, 100%, 100%)" fill-opacity="1" stroke-width="1.9319" stroke-linecap="butt" stroke-linejoin="miter" stroke="rgb(100%, 100%, 100%)" stroke-opacity="1" stroke-miterlimit="4" d="M 14.965226 17.785704 L 16.531632 17.785704 L 16.531632 19.356016 L 14.965226 19.356016 Z M 14.965226 17.785704 " transform="matrix(1, 0, 0, 1, 0.60118, -0.32086)"/>
</svg>
