
<svg xmlns="http://www.w3.org/2000/svg" xmlns:xlink="http://www.w3.org/1999/xlink" width="24" height="24" viewBox="0 0 24 24">
<path fill-rule="nonzero" fill="rgb(0%, 13.333333%, 33.333333%)" fill-opacity="1" d="M 12 22 C 10.617188 22 9.316406 21.738281 8.101562 21.210938 C 6.882812 20.6875 5.824219 19.976562 4.925781 19.074219 C 4.023438 18.175781 3.3125 17.117188 2.789062 15.898438 C 2.261719 14.683594 2 13.382812 2 12 C 2 10.617188 2.261719 9.316406 2.789062 8.101562 C 3.3125 6.882812 4.023438 5.824219 4.925781 4.925781 C 5.824219 4.023438 6.882812 3.3125 8.101562 2.789062 C 9.316406 2.261719 10.617188 2 12 2 L 13 2 L 13 10.273438 C 13.300781 10.457031 13.542969 10.695312 13.726562 10.988281 C 13.910156 11.277344 14 11.617188 14 12 C 14 12.550781 13.804688 13.019531 13.414062 13.414062 C 13.019531 13.804688 12.550781 14 12 14 C 11.449219 14 10.980469 13.804688 10.585938 13.414062 C 10.195312 13.019531 10 12.550781 10 12 C 10 11.617188 10.089844 11.273438 10.273438 10.976562 C 10.457031 10.675781 10.699219 10.441406 11 10.273438 L 11 8.125 C 10.132812 8.359375 9.417969 8.828125 8.851562 9.539062 C 8.285156 10.246094 8 11.066406 8 12 C 8 13.101562 8.390625 14.042969 9.175781 14.824219 C 9.957031 15.609375 10.898438 16 12 16 C 13.101562 16 14.042969 15.609375 14.824219 14.824219 C 15.609375 14.042969 16 13.101562 16 12 C 16 11.398438 15.878906 10.847656 15.636719 10.335938 C 15.394531 9.828125 15.066406 9.382812 14.648438 9 L 16.074219 7.574219 C 16.660156 8.125 17.125 8.777344 17.476562 9.539062 C 17.824219 10.296875 18 11.117188 18 12 C 18 13.667969 17.417969 15.082031 16.25 16.25 C 15.082031 17.417969 13.667969 18 12 18 C 10.332031 18 8.917969 17.417969 7.75 16.25 C 6.582031 15.082031 6 13.667969 6 12 C 6 10.5 6.476562 9.195312 7.425781 8.085938 C 8.375 6.980469 9.566406 6.308594 11 6.074219 L 11 4.050781 C 9.015625 4.300781 7.355469 5.175781 6.011719 6.675781 C 4.671875 8.175781 4 9.949219 4 12 C 4 14.234375 4.773438 16.125 6.324219 17.675781 C 7.875 19.226562 9.765625 20 12 20 C 14.234375 20 16.125 19.226562 17.675781 17.675781 C 19.226562 16.125 20 14.234375 20 12 C 20 10.851562 19.773438 9.773438 19.324219 8.773438 C 18.875 7.773438 18.257812 6.910156 17.476562 6.175781 L 18.898438 4.75 C 19.851562 5.667969 20.605469 6.746094 21.164062 7.988281 C 21.722656 9.230469 22 10.566406 22 12 C 22 13.382812 21.738281 14.683594 21.210938 15.898438 C 20.6875 17.117188 19.976562 18.175781 19.074219 19.074219 C 18.175781 19.976562 17.117188 20.6875 15.898438 21.210938 C 14.683594 21.738281 13.382812 22 12 22 Z M 12 22 "/>
</svg>
