<!-- Uploaded to: SVG Repo, www.svgrepo.com, Transformed by: SVG Repo Mixer Tools -->
<svg xmlns="http://www.w3.org/2000/svg" xmlns:xlink="http://www.w3.org/1999/xlink" width="24" height="24" viewBox="0 0 24 24">
<path fill-rule="nonzero" fill="rgb(100%, 100%, 100%)" fill-opacity="1" d="M 13.460938 13.835938 L 13.386719 14.007812 L 13.425781 14.195312 L 14.25 17.363281 L 14.4375 18.148438 L 15.09375 17.679688 L 17.8125 15.75 L 17.945312 15.65625 L 18 15.507812 L 23.15625 2.457031 L 23.363281 1.929688 L 22.835938 1.726562 L 19.554688 0.429688 L 19.050781 0.242188 L 18.84375 0.730469 Z M 19.179688 1.460938 L 22.460938 2.757812 L 22.144531 2.042969 L 16.988281 15.09375 L 17.175781 14.851562 L 14.457031 16.78125 L 15.300781 17.101562 L 14.511719 13.929688 L 14.492188 14.289062 L 19.875 1.164062 Z M 19.179688 1.460938 "/>
<path fill-rule="nonzero" fill="rgb(100%, 100%, 100%)" fill-opacity="1" d="M 20.4375 7.070312 L 17.925781 6.132812 C 17.757812 6.074219 17.679688 5.886719 17.738281 5.71875 L 17.925781 5.230469 C 17.980469 5.0625 18.167969 4.988281 18.335938 5.042969 L 20.851562 5.980469 C 21.019531 6.039062 21.09375 6.226562 21.039062 6.394531 L 20.851562 6.882812 C 20.792969 7.050781 20.605469 7.125 20.4375 7.070312 Z M 16.835938 15.132812 L 14.324219 14.195312 C 14.15625 14.136719 14.082031 13.949219 14.136719 13.78125 L 14.324219 13.292969 C 14.382812 13.125 14.570312 13.050781 14.738281 13.105469 L 17.25 14.042969 C 17.417969 14.101562 17.492188 14.289062 17.4375 14.457031 L 17.25 14.945312 C 17.195312 15.113281 17.007812 15.1875 16.835938 15.132812 Z M 21.113281 5.25 L 18.601562 4.3125 C 18.429688 4.257812 18.355469 4.070312 18.414062 3.898438 L 18.601562 3.414062 C 18.65625 3.242188 18.84375 3.167969 19.011719 3.226562 L 21.523438 4.164062 C 21.695312 4.21875 21.769531 4.40625 21.710938 4.574219 L 21.523438 5.0625 C 21.46875 5.230469 21.28125 5.324219 21.113281 5.25 Z M 21.113281 5.25 "/>
<path fill-rule="nonzero" fill="rgb(100%, 100%, 100%)" fill-opacity="1" d="M 21.804688 22.632812 L 1.875 22.632812 C 1.144531 22.632812 0.5625 22.050781 0.5625 21.320312 L 0.5625 6.804688 C 0.5625 6.074219 1.144531 5.492188 1.875 5.492188 L 15.375 5.492188 C 15.695312 5.492188 15.9375 5.738281 15.9375 6.054688 C 15.9375 6.375 15.695312 6.617188 15.375 6.617188 L 1.875 6.617188 C 1.78125 6.617188 1.6875 6.710938 1.6875 6.804688 L 1.6875 21.320312 C 1.6875 21.414062 1.78125 21.507812 1.875 21.507812 L 21.804688 21.507812 C 21.898438 21.507812 21.992188 21.414062 21.992188 21.320312 L 21.992188 7.5 C 21.992188 7.179688 22.238281 6.9375 22.554688 6.9375 C 22.875 6.9375 23.117188 7.179688 23.117188 7.5 L 23.117188 21.320312 C 23.117188 22.050781 22.539062 22.632812 21.804688 22.632812 Z M 21.804688 22.632812 "/>
<path fill-rule="nonzero" fill="rgb(100%, 100%, 100%)" fill-opacity="1" d="M 8.585938 11.492188 L 4.726562 11.492188 C 4.40625 11.492188 4.125 11.230469 4.125 10.894531 C 4.125 10.574219 4.386719 10.292969 4.726562 10.292969 L 8.605469 10.292969 C 8.925781 10.292969 9.207031 10.554688 9.207031 10.894531 C 9.1875 11.230469 8.925781 11.492188 8.585938 11.492188 Z M 9.601562 13.6875 L 4.726562 13.6875 C 4.40625 13.6875 4.125 13.425781 4.125 13.085938 C 4.125 12.769531 4.386719 12.488281 4.726562 12.488281 L 9.601562 12.488281 C 9.917969 12.488281 10.199219 12.75 10.199219 13.085938 C 10.179688 13.425781 9.917969 13.6875 9.601562 13.6875 Z M 10.351562 15.863281 L 4.726562 15.863281 C 4.40625 15.863281 4.125 15.601562 4.125 15.261719 C 4.125 14.945312 4.386719 14.664062 4.726562 14.664062 L 10.351562 14.664062 C 10.667969 14.664062 10.949219 14.925781 10.949219 15.261719 C 10.929688 15.601562 10.667969 15.863281 10.351562 15.863281 Z M 10.351562 15.863281 "/>
</svg>
