<!-- Uploaded to: SVG Repo, www.svgrepo.com, Generator: SVG Repo Mixer Tools -->
<svg xmlns="http://www.w3.org/2000/svg" xmlns:xlink="http://www.w3.org/1999/xlink" width="24" height="24" viewBox="0 0 24 24">
<path fill-rule="nonzero" fill="rgb(3.529412%, 14.117647%, 29.411765%)" fill-opacity="1" d="M 13.300781 3.148438 L 21.933594 18.101562 C 22.511719 19.101562 21.789062 20.351562 20.632812 20.351562 L 3.367188 20.351562 C 2.210938 20.351562 1.488281 19.101562 2.066406 18.101562 L 10.699219 3.148438 C 11.277344 2.148438 12.722656 2.148438 13.300781 3.148438 Z M 12 15 C 11.449219 15 11 15.449219 11 16 C 11 16.550781 11.449219 17 12 17 C 12.550781 17 13 16.550781 13 16 C 13 15.449219 12.550781 15 12 15 Z M 12 8 C 11.488281 8 11.066406 8.386719 11.007812 8.882812 L 11 9 L 11 13 C 11 13.550781 11.449219 14 12 14 C 12.511719 14 12.933594 13.613281 12.992188 13.117188 L 13 13 L 13 9 C 13 8.449219 12.550781 8 12 8 Z M 12 8 "/>
</svg>
