<!-- Uploaded to: SVG Repo, www.svgrepo.com, Generator: SVG Repo Mixer Tools -->
<svg xmlns="http://www.w3.org/2000/svg" xmlns:xlink="http://www.w3.org/1999/xlink" width="24" height="24" viewBox="0 0 24 24">
<path fill-rule="nonzero" fill="rgb(3.529412%, 14.117647%, 29.411765%)" fill-opacity="1" d="M 5 10 C 6.105469 10 7 10.894531 7 12 C 7 13.105469 6.105469 14 5 14 C 3.894531 14 3 13.105469 3 12 C 3 10.894531 3.894531 10 5 10 Z M 12 10 C 13.105469 10 14 10.894531 14 12 C 14 13.105469 13.105469 14 12 14 C 10.894531 14 10 13.105469 10 12 C 10 10.894531 10.894531 10 12 10 Z M 19 10 C 20.105469 10 21 10.894531 21 12 C 21 13.105469 20.105469 14 19 14 C 17.894531 14 17 13.105469 17 12 C 17 10.894531 17.894531 10 19 10 Z M 19 10 "/>
</svg>
