<!-- Uploaded to: SVG Repo, www.svgrepo.com, Transformed by: SVG Repo Mixer Tools -->
<svg xmlns="http://www.w3.org/2000/svg" xmlns:xlink="http://www.w3.org/1999/xlink" width="24" height="24" viewBox="0 0 24 24">
<path fill-rule="nonzero" fill="rgb(100%, 47.058824%, 0%)" fill-opacity="1" d="M 18.898438 2 C 19.507812 2 20 2.492188 20 3.101562 L 20 5 C 20 7.792969 18.363281 10.203125 16 11.324219 L 16 20 C 16 21.105469 15.105469 22 14 22 L 10 22 C 8.894531 22 8 21.105469 8 20 L 8 11.324219 C 5.636719 10.203125 4 7.792969 4 5 L 4 3.101562 C 4 2.492188 4.492188 2 5.101562 2 Z M 12 11 C 11.488281 11 11.066406 11.386719 11.007812 11.882812 L 11 12 L 11 14 C 11 14.550781 11.449219 15 12 15 C 12.511719 15 12.933594 14.613281 12.992188 14.117188 L 13 14 L 13 12 C 13 11.449219 12.550781 11 12 11 Z M 18 5 L 6 5 C 6 6.105469 6.894531 7 8 7 L 16 7 C 17.105469 7 18 6.105469 18 5 Z M 18 5 "/>
</svg>
