<?xml version="1.0" encoding="UTF-8"?>
<svg xmlns="http://www.w3.org/2000/svg" xmlns:xlink="http://www.w3.org/1999/xlink" width="24" height="24" viewBox="0 0 24 24">
<path fill-rule="nonzero" fill="rgb(3.529412%, 14.117647%, 29.411765%)" fill-opacity="1" d="M 2.148438 2.300781 L 2.21875 2.214844 C 2.484375 1.949219 2.902344 1.925781 3.195312 2.144531 L 3.28125 2.214844 L 21.78125 20.726562 C 22.046875 20.992188 22.070312 21.40625 21.851562 21.703125 L 21.78125 21.785156 C 21.515625 22.050781 21.097656 22.074219 20.804688 21.859375 L 20.71875 21.785156 L 14.117188 15.179688 L 7.796875 21.769531 C 7.285156 22.300781 6.421875 21.855469 6.507812 21.164062 L 6.527344 21.066406 L 8.292969 14 L 5.75 14 C 5.285156 14 4.941406 13.585938 5.007812 13.140625 L 5.027344 13.042969 L 6.574219 7.632812 L 2.21875 3.277344 C 1.953125 3.011719 1.929688 2.59375 2.148438 2.300781 L 2.21875 2.214844 Z M 8.75 2 L 15.75 2 C 16.226562 2 16.574219 2.4375 16.488281 2.890625 L 16.460938 2.988281 L 14.789062 8 L 19.25 8 C 19.875 8 20.210938 8.707031 19.859375 9.1875 L 19.792969 9.269531 L 16.195312 13.015625 L 7.515625 4.332031 L 8.027344 2.542969 C 8.109375 2.257812 8.351562 2.050781 8.640625 2.007812 Z M 8.75 2 "/>
</svg>
