<!-- Uploaded to: SVG Repo, www.svgrepo.com, Transformed by: SVG Repo Mixer Tools -->
<svg xmlns="http://www.w3.org/2000/svg" xmlns:xlink="http://www.w3.org/1999/xlink" width="24" height="24" viewBox="0 0 24 24">
<path fill="none" stroke-width="2" stroke-linecap="round" stroke-linejoin="round" stroke="rgb(100%, 47.058824%, 0%)" stroke-opacity="1" stroke-miterlimit="4" d="M 19 9 L 19 17.800781 C 19 18.921875 19 19.480469 18.78125 19.90625 C 18.589844 20.285156 18.285156 20.589844 17.90625 20.78125 C 17.480469 21 16.921875 21 15.800781 21 L 8.199219 21 C 7.078125 21 6.519531 21 6.09375 20.78125 C 5.714844 20.589844 5.410156 20.285156 5.21875 19.90625 C 5 19.480469 5 18.921875 5 17.800781 L 5 6.199219 C 5 5.078125 5 4.519531 5.21875 4.09375 C 5.410156 3.714844 5.714844 3.410156 6.09375 3.21875 C 6.519531 3 7.078125 3 8.199219 3 L 13 3 M 19 9 L 13 3 M 19 9 L 14 9 C 13.449219 9 13 8.550781 13 8 L 13 3 "/>
<path fill-rule="nonzero" fill="rgb(100%, 47.058824%, 0%)" fill-opacity="1" d="M 11.597656 9.957031 C 10.121094 9.957031 8.910156 11.382812 8.910156 13.121094 C 8.910156 13.796875 9.09375 14.421875 9.402344 14.9375 L 11.269531 18.75 C 11.53125 19.15625 11.707031 19.078125 11.925781 18.730469 L 13.988281 14.585938 C 14.027344 14.5 14.0625 14.402344 14.089844 14.308594 C 14.222656 13.929688 14.289062 13.527344 14.289062 13.121094 C 14.289062 11.382812 13.078125 9.957031 11.597656 9.957031 Z M 11.597656 11.4375 C 12.394531 11.4375 13.027344 12.183594 13.027344 13.121094 C 13.027344 14.058594 12.394531 14.800781 11.597656 14.800781 C 10.804688 14.800781 10.171875 14.058594 10.171875 13.121094 C 10.171875 12.183594 10.804688 11.4375 11.597656 11.4375 Z M 11.597656 11.4375 "/>
</svg>
