<?xml version="1.0" encoding="UTF-8" standalone="no"?>
<!-- Uploaded to: SVG Repo, www.svgrepo.com, Transformed by: SVG Repo Mixer Tools -->

<svg
   width="48"
   height="48"
   viewBox="0 0 48 48"
   version="1.1"
   id="svg2"
   sodipodi:docname="ic_folder_favorite_gray_48dp.svg"
   inkscape:version="1.4 (e7c3feb100, 2024-10-09)"
   xmlns:inkscape="http://www.inkscape.org/namespaces/inkscape"
   xmlns:sodipodi="http://sodipodi.sourceforge.net/DTD/sodipodi-0.dtd"
   xmlns:xlink="http://www.w3.org/1999/xlink"
   xmlns="http://www.w3.org/2000/svg"
   xmlns:svg="http://www.w3.org/2000/svg">
  <defs
     id="defs2">
    <linearGradient
       id="swatch2"
       inkscape:swatch="solid">
      <stop
         style="stop-color:#e37200;stop-opacity:1;"
         offset="0"
         id="stop2" />
    </linearGradient>
    <linearGradient
       inkscape:collect="always"
       xlink:href="#swatch2"
       id="linearGradient2"
       x1="0"
       y1="22.5"
       x2="48"
       y2="22.5"
       gradientUnits="userSpaceOnUse"
       gradientTransform="matrix(0.97188798,0,0,0.98089082,0.64722841,-0.06432279)" />
  </defs>
  <sodipodi:namedview
     id="namedview2"
     pagecolor="#ffffff"
     bordercolor="#000000"
     borderopacity="0.25"
     inkscape:showpageshadow="2"
     inkscape:pageopacity="0.0"
     inkscape:pagecheckerboard="0"
     inkscape:deskcolor="#d1d1d1"
     inkscape:zoom="18.208333"
     inkscape:cx="24"
     inkscape:cy="24"
     inkscape:window-width="2048"
     inkscape:window-height="1080"
     inkscape:window-x="0"
     inkscape:window-y="0"
     inkscape:window-maximized="1"
     inkscape:current-layer="svg2" />
  <path
     fill-rule="nonzero"
     fill="#09244b"
     fill-opacity="1"
     d="M 0.64722841,2.8783497 H 18.141212 l 8.746992,8.8280173 H 47.297851 V 41.133092 H 0.64722841 Z m 0,0"
     id="path1"
     style="stroke:url(#linearGradient2);stroke-width:0.976379" />
  <path
     fill-rule="nonzero"
     fill="#e66100"
     fill-opacity="1"
     d="M 34.937035,15.281018 H 15.95266 l -1.769531,-4.632813 c -0.101563,-0.261719 -0.339844,-0.433594 -0.605469,-0.433594 -0.261719,0 -0.5,0.171875 -0.601562,0.433594 l -1.953126,5.101563 -5.1484368,0.402343 c -0.265625,0.01953 -0.492187,0.210938 -0.574219,0.480469 -0.082031,0.265625 -0.00391,0.5625 0.199219,0.742188 l 3.945313,3.558593 -1.230469,5.351563 c -0.0625,0.273437 0.035156,0.558594 0.25,0.726562 0.210937,0.164063 0.5,0.175782 0.722656,0.02734 l 3.7421868,-2.472656 v 12.359375 c 0,0.382812 0.289063,0.691406 0.648438,0.691406 h 21.359375 c 0.363281,0 0.652344,-0.308594 0.652344,-0.691406 V 15.972424 c 0,-0.382813 -0.289063,-0.691406 -0.652344,-0.691406 z m -1.585937,14.800781 c -0.03125,-0.01953 -0.05859,-0.04297 -0.09375,-0.0625 -0.308594,-0.1875 -0.632813,-0.363281 -0.960938,-0.53125 -0.0625,-0.03125 -0.125,-0.06641 -0.1875,-0.09375 -0.328125,-0.160157 -0.667969,-0.3125 -1.015625,-0.449219 -0.0625,-0.02734 -0.128906,-0.05078 -0.191406,-0.07422 -0.363281,-0.140625 -0.734375,-0.273437 -1.113281,-0.390625 -0.02734,-0.0078 -0.05469,-0.01172 -0.07813,-0.01953 -0.375,-0.113281 -0.757812,-0.214844 -1.144531,-0.300781 -0.05469,-0.01563 -0.105469,-0.02734 -0.160156,-0.03906 -0.390625,-0.08594 -0.789063,-0.160156 -1.191406,-0.21875 -0.07422,-0.01172 -0.152344,-0.02344 -0.230469,-0.03516 -0.398438,-0.05469 -0.804688,-0.101563 -1.21875,-0.132813 -0.06641,-0.0039 -0.132812,-0.0078 -0.199219,-0.01172 -0.433593,-0.02734 -0.867187,-0.04687 -1.308593,-0.04687 -0.441407,0 -0.875,0.01953 -1.308594,0.04687 -0.06641,0.0039 -0.132813,0.0078 -0.199219,0.01172 -0.410156,0.03125 -0.816406,0.07813 -1.21875,0.132813 -0.07813,0.01172 -0.152344,0.02344 -0.230469,0.03516 -0.402344,0.0625 -0.800781,0.132813 -1.191406,0.21875 -0.05469,0.01172 -0.105469,0.02344 -0.15625,0.03906 -0.390625,0.08594 -0.773438,0.1875 -1.148438,0.300781 -0.02344,0.0078 -0.05078,0.01563 -0.07812,0.01953 -0.378907,0.117188 -0.75,0.25 -1.113282,0.390625 -0.0625,0.02344 -0.125,0.04687 -0.191406,0.07031 -0.347656,0.140625 -0.6875,0.292968 -1.015625,0.453125 -0.0625,0.02734 -0.121094,0.05859 -0.183594,0.08984 -0.332031,0.167969 -0.65625,0.34375 -0.964843,0.535157 -0.03125,0.01953 -0.0625,0.03906 -0.09375,0.05859 -0.296876,0.1875 -0.585938,0.386719 -0.863282,0.589844 -0.02344,0.01563 -0.05078,0.03516 -0.07031,0.05078 v -6.152344 l 3.734375,2.472656 c 0.05469,0.03906 0.113281,0.0625 0.175781,0.08203 0.01953,0.0039 0.03906,0.0039 0.0625,0.0078 0.03516,0.0078 0.07031,0.01563 0.105469,0.01563 0.0039,0 0.0078,0 0.01172,0 0.04687,-0.0039 0.08984,-0.01172 0.132812,-0.02344 0.01953,-0.0039 0.04297,-0.0039 0.0625,-0.01172 0.0625,-0.02344 0.121094,-0.05469 0.175781,-0.09766 0.214844,-0.164062 0.3125,-0.453125 0.25,-0.726562 l -1.042969,-4.535156 h 16.386719 v 8.96875 c -0.02344,-0.01563 -0.05078,-0.03516 -0.07422,-0.05078 -0.269531,-0.203125 -0.558593,-0.402344 -0.859374,-0.585937 z m 0.9375,-13.414063 v 3.691406 H 18.347191 l 3.308594,-2.984374 c 0.05078,-0.04297 0.09375,-0.09375 0.125,-0.152344 0.01563,-0.01953 0.01953,-0.04297 0.03125,-0.06641 0.01563,-0.03516 0.03516,-0.07422 0.04687,-0.113282 0.0078,-0.02344 0.0078,-0.05078 0.01172,-0.07813 0.0078,-0.03906 0.01563,-0.07813 0.01563,-0.117187 0,-0.02734 -0.0078,-0.05469 -0.01172,-0.08203 0,-0.03125 0,-0.06641 -0.0078,-0.09766 z m 0,0"
     id="path2" />
</svg>
