<?xml version="1.0" encoding="UTF-8"?>
<svg xmlns="http://www.w3.org/2000/svg" xmlns:xlink="http://www.w3.org/1999/xlink" width="24" height="24" viewBox="0 0 24 24">
<path fill-rule="nonzero" fill="rgb(3.529412%, 14.117647%, 29.411765%)" fill-opacity="1" d="M 12.75 1.996094 C 13.226562 1.996094 13.574219 2.433594 13.488281 2.886719 L 13.460938 2.984375 L 11.792969 7.996094 L 16.25 7.996094 C 16.875 7.996094 17.210938 8.703125 16.859375 9.183594 L 16.792969 9.265625 L 4.796875 21.765625 C 4.285156 22.296875 3.421875 21.851562 3.507812 21.160156 L 3.527344 21.066406 L 5.292969 13.996094 L 2.75 13.996094 C 2.285156 13.996094 1.941406 13.582031 2.007812 13.136719 L 2.03125 13.039062 L 5.03125 2.539062 C 5.109375 2.253906 5.351562 2.046875 5.640625 2.003906 L 5.75 1.996094 Z M 18.144531 11.371094 L 18.195312 11.472656 L 21.945312 20.96875 C 22.097656 21.355469 21.90625 21.792969 21.523438 21.945312 C 21.167969 22.082031 20.773438 21.9375 20.59375 21.613281 L 20.550781 21.519531 L 19.550781 18.996094 L 15.441406 18.996094 L 14.445312 21.519531 C 14.304688 21.875 13.925781 22.0625 13.570312 21.972656 L 13.472656 21.945312 C 13.117188 21.804688 12.929688 21.425781 13.019531 21.066406 L 13.050781 20.96875 L 16.800781 11.472656 C 17.035156 10.878906 17.839844 10.84375 18.144531 11.371094 Z M 17.496094 13.789062 L 16.03125 17.496094 L 18.960938 17.496094 Z M 17.496094 13.789062 "/>
</svg>
