<!-- Uploaded to: SVG Repo, www.svgrepo.com, Generator: SVG Repo Mixer Tools -->
<svg xmlns="http://www.w3.org/2000/svg" xmlns:xlink="http://www.w3.org/1999/xlink" width="24" height="24" viewBox="0 0 24 24">
<path fill-rule="nonzero" fill="rgb(3.529412%, 14.117647%, 29.411765%)" fill-opacity="1" d="M 12 2 L 12 8.5 C 12 9.28125 12.59375 9.921875 13.355469 9.992188 L 13.5 10 L 20 10 L 20 20 C 20 21.054688 19.183594 21.917969 18.148438 21.996094 L 18 22 L 6 22 C 4.945312 22 4.082031 21.183594 4.003906 20.148438 L 4 20 L 4 4 C 4 2.945312 4.816406 2.082031 5.851562 2.003906 L 6 2 Z M 14 2.042969 C 14.320312 2.113281 14.625 2.257812 14.878906 2.472656 L 15 2.585938 L 19.414062 7 C 19.652344 7.238281 19.820312 7.527344 19.914062 7.839844 L 19.957031 8 L 14 8 Z M 14 2.042969 "/>
</svg>
