<!-- Uploaded to: SVG Repo, www.svgrepo.com, Generator: SVG Repo Mixer Tools -->
<svg xmlns="http://www.w3.org/2000/svg" xmlns:xlink="http://www.w3.org/1999/xlink" width="24" height="24" viewBox="0 0 24 24">
<path fill-rule="evenodd" fill="rgb(3.529412%, 14.117647%, 29.411765%)" fill-opacity="1" d="M 5 3 C 3.894531 3 3 3.894531 3 5 L 3 9.128906 C 2.382812 9.402344 1.996094 10.082031 2.140625 10.792969 L 3.859375 19.390625 C 4.046875 20.328125 4.867188 21 5.820312 21 L 18.179688 21 C 19.132812 21 19.953125 20.328125 20.140625 19.390625 L 21.859375 10.792969 C 22.003906 10.082031 21.617188 9.402344 21 9.128906 L 21 7.5 C 21 6.394531 20.105469 5.5 19 5.5 L 12.480469 5.5 L 11.082031 3.75 C 10.703125 3.277344 10.125 3 9.519531 3 Z M 19 9 L 19 7.5 L 12.480469 7.5 C 11.875 7.5 11.296875 7.222656 10.917969 6.75 L 9.519531 5 L 5 5 L 5 9 Z M 19 9 "/>
</svg>
