<!-- Uploaded to: SVG Repo, www.svgrepo.com, Transformed by: SVG Repo Mixer Tools -->
<svg xmlns="http://www.w3.org/2000/svg" xmlns:xlink="http://www.w3.org/1999/xlink" width="24" height="24" viewBox="0 0 24 24">
<path fill-rule="nonzero" fill="rgb(100%, 100%, 100%)" fill-opacity="1" d="M 16.539062 11.738281 L 16.527344 11.769531 C 16.53125 11.757812 16.535156 11.75 16.539062 11.742188 Z M 16.539062 11.738281 "/>
<path fill-rule="nonzero" fill="rgb(100%, 100%, 100%)" fill-opacity="1" d="M 12 0 C 7.382812 0 3.601562 3.773438 3.601562 8.375 C 3.601562 10.160156 4.167969 11.816406 5.132812 13.179688 L 5.789062 14.308594 L 8.707031 11.390625 C 7.949219 10.570312 7.53125 9.492188 7.535156 8.375 C 7.535156 5.898438 9.515625 3.925781 12 3.925781 C 13.167969 3.925781 14.222656 4.363281 15.011719 5.082031 L 17.78125 2.316406 C 16.269531 0.882812 14.234375 0 12 0 Z M 20.359375 7.546875 L 8.648438 19.253906 L 10.976562 23.277344 C 11.792969 24.347656 12.335938 24.144531 13.015625 23.222656 L 19.460938 12.257812 C 19.589844 12.023438 19.691406 11.773438 19.78125 11.515625 C 20.296875 10.261719 20.496094 8.894531 20.359375 7.542969 Z M 20.359375 7.546875 "/>
<path fill-rule="nonzero" fill="rgb(100%, 100%, 100%)" fill-opacity="1" d="M 20.910156 0.542969 L 23.457031 3.089844 L 3.089844 23.457031 L 0.546875 20.910156 Z M 20.910156 0.542969 "/>
</svg>
