<!-- Uploaded to: SVG Repo, www.svgrepo.com, Generator: SVG Repo Mixer Tools -->
<svg xmlns="http://www.w3.org/2000/svg" xmlns:xlink="http://www.w3.org/1999/xlink" width="24" height="24" viewBox="0 0 24 24">
<path fill-rule="nonzero" fill="rgb(10.980392%, 15.294118%, 29.803922%)" fill-opacity="1" d="M 18 8 C 18 9.105469 17.105469 10 16 10 C 14.894531 10 14 9.105469 14 8 C 14 6.894531 14.894531 6 16 6 C 17.105469 6 18 6.894531 18 8 Z M 18 8 "/>
<path fill-rule="evenodd" fill="rgb(10.980392%, 15.294118%, 29.803922%)" fill-opacity="1" d="M 11.941406 1.25 L 12.058594 1.25 C 14.367188 1.25 16.175781 1.25 17.585938 1.441406 C 19.03125 1.632812 20.171875 2.039062 21.066406 2.933594 C 21.960938 3.828125 22.367188 4.96875 22.558594 6.414062 C 22.75 7.824219 22.75 9.632812 22.75 11.941406 L 22.75 12.03125 C 22.75 13.941406 22.75 15.503906 22.644531 16.773438 C 22.542969 18.054688 22.328125 19.121094 21.851562 20.007812 C 21.640625 20.398438 21.382812 20.75 21.066406 21.066406 C 20.171875 21.960938 19.03125 22.367188 17.585938 22.558594 C 16.175781 22.75 14.367188 22.75 12.058594 22.75 L 11.941406 22.75 C 9.632812 22.75 7.824219 22.75 6.414062 22.558594 C 4.96875 22.367188 3.828125 21.960938 2.933594 21.066406 C 2.140625 20.273438 1.730469 19.285156 1.511719 18.058594 C 1.300781 16.855469 1.261719 15.359375 1.253906 13.5 C 1.25 13.027344 1.25 12.527344 1.25 12 L 1.25 11.941406 C 1.25 9.632812 1.25 7.824219 1.441406 6.414062 C 1.632812 4.96875 2.039062 3.828125 2.933594 2.933594 C 3.828125 2.039062 4.96875 1.632812 6.414062 1.441406 C 7.824219 1.25 9.632812 1.25 11.941406 1.25 Z M 6.613281 2.925781 C 5.335938 3.097656 4.5625 3.425781 3.996094 3.996094 C 3.425781 4.5625 3.097656 5.335938 2.925781 6.613281 C 2.75 7.914062 2.75 9.621094 2.75 12 C 2.75 12.289062 2.75 12.570312 2.75 12.84375 L 3.75 11.96875 C 4.664062 11.171875 6.035156 11.214844 6.890625 12.070312 L 11.183594 16.363281 C 11.871094 17.050781 12.949219 17.144531 13.746094 16.582031 L 14.042969 16.375 C 15.1875 15.570312 16.738281 15.664062 17.777344 16.597656 L 20.605469 19.144531 C 20.890625 18.546875 21.0625 17.761719 21.152344 16.652344 C 21.25 15.449219 21.25 13.945312 21.25 12 C 21.25 9.621094 21.25 7.914062 21.074219 6.613281 C 20.902344 5.335938 20.574219 4.5625 20.003906 3.996094 C 19.433594 3.425781 18.664062 3.097656 17.386719 2.925781 C 16.085938 2.75 14.378906 2.75 12 2.75 C 9.621094 2.75 7.914062 2.75 6.613281 2.925781 Z M 6.613281 2.925781 "/>
</svg>
