<!-- Uploaded to: SVG Repo, www.svgrepo.com, Transformed by: SVG Repo Mixer Tools -->
<svg xmlns="http://www.w3.org/2000/svg" xmlns:xlink="http://www.w3.org/1999/xlink" width="18" height="18" viewBox="0 0 18 18">
<path fill-rule="nonzero" fill="rgb(3.529412%, 14.117647%, 29.411765%)" fill-opacity="1" d="M 18 14.136719 L 18 0.394531 C 18 0.191406 17.839844 0.03125 17.636719 0.03125 L 3.894531 0.03125 C 3.695312 0.03125 3.53125 0.191406 3.53125 0.394531 L 3.53125 14.136719 C 3.53125 14.335938 3.695312 14.5 3.894531 14.5 L 17.636719 14.5 C 17.839844 14.5 18 14.335938 18 14.136719 Z M 17.269531 13.769531 L 4.261719 13.769531 L 4.261719 0.761719 L 17.269531 0.761719 Z M 17.269531 13.769531 "/>
<path fill-rule="nonzero" fill="rgb(3.529412%, 14.117647%, 29.411765%)" fill-opacity="1" d="M 0.363281 18.03125 L 14.105469 18.03125 C 14.304688 18.03125 14.46875 17.867188 14.46875 17.667969 C 14.46875 17.464844 14.304688 17.300781 14.105469 17.300781 L 0.730469 17.300781 L 0.730469 3.925781 C 0.730469 3.722656 0.566406 3.5625 0.363281 3.5625 C 0.160156 3.5625 0 3.722656 0 3.925781 L 0 17.667969 C 0 17.867188 0.160156 18.03125 0.363281 18.03125 Z M 0.363281 18.03125 "/>
<path fill-rule="nonzero" fill="rgb(100%, 100%, 100%)" fill-opacity="1" d="M 7.800781 7.628906 L 10.402344 7.628906 L 10.402344 10.230469 C 10.402344 10.433594 10.566406 10.597656 10.769531 10.597656 C 10.96875 10.597656 11.132812 10.433594 11.132812 10.230469 L 11.132812 7.628906 L 13.734375 7.628906 C 13.9375 7.628906 14.101562 7.464844 14.101562 7.261719 C 14.101562 7.0625 13.9375 6.898438 13.734375 6.898438 L 11.132812 6.898438 L 11.132812 4.296875 C 11.132812 4.09375 10.96875 3.929688 10.769531 3.929688 C 10.566406 3.929688 10.402344 4.09375 10.402344 4.296875 L 10.402344 6.898438 L 7.800781 6.898438 C 7.597656 6.898438 7.433594 7.0625 7.433594 7.261719 C 7.433594 7.464844 7.597656 7.628906 7.800781 7.628906 Z M 7.800781 7.628906 "/>
<path fill-rule="evenodd" fill="rgb(100%, 47.058824%, 0%)" fill-opacity="1" d="M 10.257812 2.816406 C 9.425781 2.816406 8.71875 3.601562 8.71875 4.617188 L 8.71875 9.011719 C 8.71875 10.433594 9.707031 11.546875 10.890625 11.546875 C 12.070312 11.546875 13.0625 10.433594 13.0625 9.011719 L 13.0625 4.617188 L 13.785156 4.617188 L 13.785156 9.011719 C 13.785156 10.828125 12.507812 12.339844 10.890625 12.339844 C 9.273438 12.339844 7.992188 10.828125 7.992188 9.011719 L 7.992188 4.617188 C 7.992188 3.203125 8.988281 2.019531 10.257812 2.019531 C 11.523438 2.019531 12.519531 3.203125 12.519531 4.617188 L 12.519531 9.011719 C 12.519531 10.019531 11.808594 10.875 10.890625 10.875 C 9.972656 10.875 9.261719 10.019531 9.261719 9.011719 L 9.261719 4.617188 L 9.984375 4.617188 L 9.984375 9.011719 C 9.984375 9.621094 10.40625 10.082031 10.890625 10.082031 C 11.371094 10.082031 11.796875 9.621094 11.796875 9.011719 L 11.796875 4.617188 C 11.796875 3.601562 11.089844 2.816406 10.257812 2.816406 Z M 10.257812 2.816406 "/>
</svg>
