<!-- Uploaded to: SVG Repo, www.svgrepo.com, Transformed by: SVG Repo Mixer Tools -->
<svg xmlns="http://www.w3.org/2000/svg" xmlns:xlink="http://www.w3.org/1999/xlink" width="24" height="24" viewBox="0 0 24 24">
<path fill-rule="nonzero" fill="rgb(100%, 100%, 100%)" fill-opacity="1" d="M 12 0 C 7.382812 0 3.601562 3.773438 3.601562 8.375 C 3.601562 10.160156 4.167969 11.816406 5.132812 13.179688 L 10.976562 23.277344 C 11.792969 24.347656 12.335938 24.144531 13.019531 23.222656 L 19.460938 12.257812 C 19.589844 12.023438 19.691406 11.773438 19.78125 11.515625 C 20.191406 10.519531 20.398438 9.453125 20.398438 8.375 C 20.398438 3.773438 16.617188 0 12 0 Z M 12 3.925781 C 14.488281 3.925781 16.464844 5.898438 16.464844 8.375 C 16.464844 10.855469 14.488281 12.828125 12 12.828125 C 9.515625 12.828125 7.535156 10.855469 7.535156 8.375 C 7.535156 5.898438 9.515625 3.925781 12 3.925781 Z M 12 3.925781 "/>
</svg>
