<!-- Uploaded to: SVG Repo, www.svgrepo.com, Transformed by: SVG Repo Mixer Tools -->
<svg xmlns="http://www.w3.org/2000/svg" xmlns:xlink="http://www.w3.org/1999/xlink" width="24" height="24" viewBox="0 0 24 24">
<path fill="none" stroke-width="1.97512" stroke-linecap="round" stroke-linejoin="round" stroke="rgb(3.529412%, 1.960784%, 29.803922%)" stroke-opacity="1" stroke-miterlimit="4" d="M 17.001162 12 L 17.001162 22 L 4.001162 22 L 4.001162 12 " transform="matrix(1, 0, 0, 1, -0.2746, 0)"/>
<path fill="none" stroke-width="1.97512" stroke-linecap="round" stroke-linejoin="round" stroke="rgb(3.529412%, 1.960784%, 29.803922%)" stroke-opacity="1" stroke-miterlimit="4" d="M 17.001162 22 L 22.501162 22 L 22.501162 4 C 22.501162 2.894531 21.602725 2 20.501162 2 L 19.001162 2 C 17.895693 2 17.001162 2.894531 17.001162 4 L 17.001162 9 " transform="matrix(1, 0, 0, 1, -0.2746, 0)"/>
<path fill="none" stroke-width="1.97512" stroke-linecap="round" stroke-linejoin="round" stroke="rgb(3.529412%, 1.960784%, 29.803922%)" stroke-opacity="1" stroke-miterlimit="4" d="M 13.8996 21.613281 L 7.098818 16.085938 " transform="matrix(1, 0, 0, 1, -0.2746, 0)"/>
<path fill="none" stroke-width="1.97512" stroke-linecap="round" stroke-linejoin="round" stroke="rgb(3.529412%, 1.960784%, 29.803922%)" stroke-opacity="1" stroke-miterlimit="4" d="M 14.001162 22 L 14.001162 16 L 7.001162 16 L 7.001162 22 " transform="matrix(1, 0, 0, 1, -0.2746, 0)"/>
<path fill="none" stroke-width="1.97512" stroke-linecap="round" stroke-linejoin="round" stroke="rgb(3.529412%, 1.960784%, 29.803922%)" stroke-opacity="1" stroke-miterlimit="4" d="M 17.001162 7 L 22.501162 7 " transform="matrix(1, 0, 0, 1, -0.2746, 0)"/>
<path fill="none" stroke-width="1.97512" stroke-linecap="round" stroke-linejoin="round" stroke="rgb(3.529412%, 1.960784%, 29.803922%)" stroke-opacity="1" stroke-miterlimit="4" d="M 17.001162 16 L 22.501162 16 " transform="matrix(1, 0, 0, 1, -0.2746, 0)"/>
<path fill="none" stroke-width="1.97512" stroke-linecap="round" stroke-linejoin="round" stroke="rgb(3.529412%, 1.960784%, 29.803922%)" stroke-opacity="1" stroke-miterlimit="4" d="M 17.001162 19 L 22.501162 19 " transform="matrix(1, 0, 0, 1, -0.2746, 0)"/>
<path fill="none" stroke-width="1.97512" stroke-linecap="round" stroke-linejoin="round" stroke="rgb(3.529412%, 1.960784%, 29.803922%)" stroke-opacity="1" stroke-miterlimit="4" d="M 2.001162 13 L 10.501162 7 L 19.001162 13 " transform="matrix(1, 0, 0, 1, -0.2746, 0)"/>
<path fill="none" stroke-width="1.97512" stroke-linecap="round" stroke-linejoin="round" stroke="rgb(3.529412%, 1.960784%, 29.803922%)" stroke-opacity="1" stroke-miterlimit="4" d="M 9.001162 11.9375 L 10.501162 11 L 12.001162 11.9375 " transform="matrix(1, 0, 0, 1, -0.2746, 0)"/>
</svg>
