<!-- Uploaded to: SVG Repo, www.svgrepo.com, Transformed by: SVG Repo Mixer Tools -->
<svg xmlns="http://www.w3.org/2000/svg" xmlns:xlink="http://www.w3.org/1999/xlink" width="48" height="48" viewBox="0 0 48 48">
<path fill-rule="nonzero" fill="rgb(100%, 47.058824%, 0%)" fill-opacity="1" d="M 11.957031 33.214844 L 7.171875 38 L 10 40.828125 L 15.304688 35.523438 C 17.867188 36.992188 20.789062 38 24 38 C 36 38 44 24 44 24 C 44 24 41.046875 18.839844 36.042969 14.785156 L 40.828125 10 L 38 7.171875 L 32.695312 12.476562 C 30.132812 11.007812 27.210938 10 24 10 C 12 10 4 24 4 24 C 4 24 6.953125 29.160156 11.957031 33.214844 Z M 16 24 C 16 19.582031 19.582031 16 24 16 C 25.484375 16 26.867188 16.410156 28.058594 17.113281 L 25.023438 20.148438 C 24.695312 20.0625 24.355469 20 24 20 C 21.792969 20 20 21.792969 20 24 C 20 24.355469 20.0625 24.695312 20.148438 25.023438 L 17.113281 28.058594 C 16.410156 26.867188 16 25.484375 16 24 Z M 32 24 C 32 28.417969 28.417969 32 24 32 C 22.515625 32 21.132812 31.589844 19.941406 30.886719 L 22.976562 27.851562 C 23.304688 27.9375 23.644531 28 24 28 C 26.207031 28 28 26.207031 28 24 C 28 23.644531 27.9375 23.304688 27.851562 22.976562 L 30.886719 19.941406 C 31.589844 21.132812 32 22.515625 32 24 Z M 32 24 "/>
</svg>
