<!-- Uploaded to: SVG Repo, www.svgrepo.com, Transformed by: SVG Repo Mixer Tools -->
<svg xmlns="http://www.w3.org/2000/svg" xmlns:xlink="http://www.w3.org/1999/xlink" width="24" height="24" viewBox="0 0 24 24">
<path fill-rule="evenodd" fill="rgb(10.980392%, 15.294118%, 29.803922%)" fill-opacity="1" d="M 12 22 C 7.285156 22 4.929688 22 3.464844 20.535156 C 2 19.070312 2 16.714844 2 12 C 2 7.285156 2 4.929688 3.464844 3.464844 C 4.929688 2 7.285156 2 12 2 C 16.714844 2 19.070312 2 20.535156 3.464844 C 22 4.929688 22 7.285156 22 12 C 22 16.714844 22 19.070312 20.535156 20.535156 C 19.070312 22 16.714844 22 12 22 Z M 12 17.75 C 12.414062 17.75 12.75 17.414062 12.75 17 L 12.75 11 C 12.75 10.585938 12.414062 10.25 12 10.25 C 11.585938 10.25 11.25 10.585938 11.25 11 L 11.25 17 C 11.25 17.414062 11.585938 17.75 12 17.75 Z M 12 7 C 12.550781 7 13 7.449219 13 8 C 13 8.550781 12.550781 9 12 9 C 11.449219 9 11 8.550781 11 8 C 11 7.449219 11.449219 7 12 7 Z M 12 7 "/>
</svg>
