<!-- Uploaded to: SVG Repo, www.svgrepo.com, Transformed by: SVG Repo Mixer Tools -->
<svg xmlns="http://www.w3.org/2000/svg" xmlns:xlink="http://www.w3.org/1999/xlink" width="24" height="24" viewBox="0 0 24 24">
<path fill-rule="nonzero" fill="rgb(3.529412%, 14.117647%, 29.411765%)" fill-opacity="1" d="M 1.054688 4.359375 L 1.054688 19.640625 L 22.945312 19.640625 L 22.945312 4.359375 Z M 1.761719 12.300781 C 1.589844 12.300781 1.453125 12.164062 1.453125 11.992188 C 1.453125 11.820312 1.589844 11.683594 1.761719 11.683594 C 1.933594 11.683594 2.070312 11.820312 2.070312 11.992188 C 2.070312 12.164062 1.933594 12.300781 1.761719 12.300781 Z M 20.039062 18.796875 L 2.367188 18.796875 L 2.367188 5.109375 L 20.039062 5.109375 Z M 21.398438 12.546875 C 21.089844 12.546875 20.84375 12.296875 20.84375 11.992188 C 20.84375 11.683594 21.089844 11.4375 21.398438 11.4375 C 21.707031 11.4375 21.953125 11.683594 21.953125 11.992188 C 21.953125 12.296875 21.707031 12.546875 21.398438 12.546875 Z M 21.398438 12.546875 "/>
<path fill-rule="nonzero" fill="rgb(9.803922%, 3.529412%, 20%)" fill-opacity="1" d="M 10.949219 13.957031 C 11.113281 13.789062 11.113281 13.511719 10.949219 13.339844 L 10.441406 12.824219 L 10.789062 12.46875 L 11.519531 13.214844 C 11.679688 13.378906 11.898438 13.472656 12.128906 13.472656 C 12.355469 13.472656 12.574219 13.378906 12.734375 13.214844 L 12.933594 13.011719 L 13.054688 13.132812 C 13.027344 13.191406 13.011719 13.253906 13.011719 13.320312 C 13.015625 13.496094 13.121094 13.652344 13.277344 13.71875 C 13.4375 13.785156 13.617188 13.75 13.742188 13.625 C 13.902344 13.453125 13.902344 13.179688 13.742188 13.007812 C 13.660156 12.925781 13.550781 12.878906 13.4375 12.878906 C 13.375 12.878906 13.3125 12.894531 13.253906 12.921875 L 13.136719 12.800781 L 13.339844 12.605469 C 13.5 12.441406 13.589844 12.21875 13.589844 11.984375 C 13.589844 11.753906 13.5 11.53125 13.339844 11.367188 L 12.609375 10.621094 L 12.957031 10.257812 L 13.457031 10.773438 C 13.621094 10.945312 13.894531 10.945312 14.0625 10.773438 L 16.042969 8.757812 C 16.207031 8.582031 16.207031 8.3125 16.042969 8.136719 L 14.832031 6.898438 C 14.753906 6.816406 14.644531 6.773438 14.527344 6.773438 C 14.414062 6.773438 14.304688 6.816406 14.226562 6.898438 L 12.246094 8.917969 C 12.082031 9.089844 12.082031 9.367188 12.246094 9.535156 L 12.753906 10.054688 L 12.40625 10.40625 L 11.519531 9.503906 C 11.199219 9.152344 10.71875 9.007812 10.261719 9.128906 C 9.804688 9.246094 9.449219 9.609375 9.332031 10.074219 C 9.21875 10.539062 9.359375 11.03125 9.703125 11.359375 L 10.585938 12.265625 L 10.238281 12.617188 L 9.738281 12.101562 C 9.574219 11.929688 9.300781 11.929688 9.132812 12.101562 L 7.152344 14.121094 C 7.070312 14.203125 7.023438 14.3125 7.023438 14.429688 C 7.023438 14.546875 7.070312 14.660156 7.152344 14.742188 L 8.363281 15.976562 C 8.441406 16.058594 8.550781 16.105469 8.667969 16.105469 C 8.78125 16.105469 8.890625 16.058594 8.96875 15.976562 Z M 13.542969 13.214844 C 13.597656 13.273438 13.597656 13.367188 13.542969 13.421875 C 13.488281 13.480469 13.394531 13.480469 13.339844 13.421875 C 13.3125 13.394531 13.296875 13.359375 13.296875 13.320312 C 13.296875 13.28125 13.3125 13.242188 13.339844 13.214844 C 13.367188 13.1875 13.402344 13.171875 13.441406 13.171875 C 13.480469 13.171875 13.515625 13.1875 13.542969 13.214844 Z M 12.730469 9.621094 L 13.3125 9.027344 L 13.585938 9.304688 L 13.003906 9.898438 Z M 13.847656 7.699219 L 14.132812 7.992188 L 13.3125 8.8125 L 13.027344 8.523438 Z M 14.230469 8.089844 L 14.503906 8.375 L 13.6875 9.207031 L 13.414062 8.929688 Z M 15.1875 7.671875 L 14.597656 8.265625 L 14.332031 7.988281 L 14.914062 7.394531 Z M 15.558594 8.054688 L 14.980469 8.648438 L 14.707031 8.375 L 15.289062 7.777344 Z M 14.445312 9.980469 L 14.160156 9.6875 L 14.972656 8.855469 L 15.261719 9.148438 Z M 14.0625 9.589844 L 13.789062 9.308594 L 14.597656 8.472656 L 14.871094 8.753906 Z M 13.105469 10.007812 L 13.6875 9.414062 L 13.960938 9.6875 L 13.378906 10.28125 Z M 13.664062 10.5625 L 13.480469 10.378906 L 14.0625 9.789062 L 14.347656 10.082031 L 13.863281 10.5625 C 13.808594 10.621094 13.71875 10.621094 13.664062 10.5625 Z M 15.882812 8.449219 C 15.882812 8.484375 15.871094 8.523438 15.84375 8.550781 L 15.363281 9.039062 L 15.074219 8.746094 L 15.660156 8.160156 L 15.84375 8.34375 C 15.871094 8.371094 15.886719 8.410156 15.882812 8.449219 Z M 14.527344 7.0625 C 14.566406 7.0625 14.601562 7.078125 14.628906 7.105469 L 14.8125 7.292969 L 14.230469 7.882812 L 13.945312 7.59375 L 14.429688 7.105469 C 14.457031 7.078125 14.492188 7.0625 14.527344 7.0625 Z M 12.457031 9.125 L 12.9375 8.632812 L 13.222656 8.925781 L 12.640625 9.519531 L 12.457031 9.332031 C 12.398438 9.273438 12.398438 9.183594 12.457031 9.125 Z M 11.125 12.390625 L 11.148438 12.367188 C 11.203125 12.3125 11.230469 12.238281 11.230469 12.160156 C 11.230469 12.082031 11.203125 12.007812 11.148438 11.953125 L 11.046875 11.851562 C 10.992188 11.792969 10.992188 11.703125 11.046875 11.644531 C 11.074219 11.617188 11.109375 11.601562 11.148438 11.601562 C 11.1875 11.601562 11.222656 11.617188 11.25 11.644531 L 11.351562 11.746094 C 11.402344 11.800781 11.476562 11.832031 11.550781 11.832031 C 11.628906 11.832031 11.703125 11.800781 11.753906 11.746094 L 11.90625 11.59375 C 11.960938 11.539062 11.988281 11.464844 11.988281 11.386719 C 11.988281 11.308594 11.960938 11.234375 11.90625 11.179688 L 11.804688 11.078125 C 11.757812 11.019531 11.757812 10.933594 11.8125 10.878906 C 11.863281 10.824219 11.949219 10.820312 12.007812 10.871094 L 12.109375 10.972656 C 12.160156 11.027344 12.234375 11.058594 12.308594 11.058594 C 12.386719 11.058594 12.457031 11.027344 12.511719 10.972656 L 12.539062 10.949219 L 13.042969 11.464844 L 11.628906 12.90625 Z M 13.144531 12.390625 L 12.839844 12.703125 L 12.539062 13.011719 C 12.355469 13.199219 12.066406 13.238281 11.84375 13.101562 L 13.226562 11.683594 C 13.355469 11.914062 13.320312 12.203125 13.136719 12.390625 Z M 12.429688 10.84375 L 12.402344 10.871094 C 12.347656 10.929688 12.257812 10.929688 12.203125 10.871094 L 12.101562 10.769531 C 11.988281 10.652344 11.808594 10.652344 11.695312 10.769531 C 11.585938 10.882812 11.585938 11.066406 11.695312 11.179688 L 11.796875 11.28125 C 11.824219 11.308594 11.839844 11.347656 11.839844 11.386719 C 11.839844 11.425781 11.824219 11.460938 11.796875 11.488281 L 11.644531 11.644531 C 11.621094 11.671875 11.582031 11.6875 11.542969 11.6875 C 11.507812 11.6875 11.46875 11.671875 11.445312 11.644531 L 11.34375 11.539062 C 11.230469 11.425781 11.050781 11.425781 10.9375 11.539062 C 10.828125 11.65625 10.828125 11.839844 10.9375 11.953125 L 11.039062 12.058594 C 11.097656 12.113281 11.097656 12.207031 11.039062 12.261719 L 11.015625 12.289062 L 10.003906 11.257812 L 11.417969 9.8125 Z M 10.484375 9.421875 C 10.351562 9.835938 10.035156 10.164062 9.625 10.296875 C 9.6875 9.839844 10.035156 9.480469 10.484375 9.421875 Z M 9.613281 10.457031 C 10.109375 10.316406 10.496094 9.917969 10.636719 9.414062 C 10.84375 9.417969 11.042969 9.488281 11.207031 9.613281 L 9.808594 11.042969 C 9.683594 10.875 9.617188 10.667969 9.613281 10.457031 Z M 8.007812 15.203125 L 8.597656 14.609375 L 8.871094 14.890625 L 8.289062 15.484375 Z M 7.636719 14.820312 L 8.214844 14.230469 L 8.488281 14.5 L 7.90625 15.09375 Z M 8.75 12.898438 L 9.035156 13.1875 L 8.222656 14.019531 L 7.933594 13.730469 Z M 9.132812 13.289062 L 9.40625 13.566406 L 8.589844 14.398438 L 8.3125 14.125 Z M 10.464844 13.253906 L 9.882812 13.851562 L 9.609375 13.574219 L 10.191406 12.980469 Z M 10.089844 12.871094 L 9.507812 13.464844 L 9.234375 13.1875 L 9.816406 12.59375 Z M 8.691406 14.5 L 9.507812 13.671875 L 9.78125 13.949219 L 8.964844 14.78125 Z M 9.882812 14.0625 L 10.167969 14.355469 L 9.351562 15.1875 L 9.066406 14.898438 Z M 10.789062 13.65625 C 10.789062 13.695312 10.773438 13.730469 10.746094 13.757812 L 10.265625 14.25 L 9.980469 13.957031 L 10.5625 13.363281 L 10.742188 13.546875 C 10.769531 13.574219 10.785156 13.609375 10.789062 13.648438 Z M 9.53125 12.3125 L 9.714844 12.5 L 9.132812 13.09375 L 8.847656 12.800781 L 9.332031 12.3125 C 9.386719 12.257812 9.476562 12.257812 9.53125 12.3125 Z M 7.351562 14.328125 L 7.832031 13.835938 L 8.121094 14.128906 L 7.539062 14.722656 L 7.355469 14.539062 C 7.328125 14.511719 7.3125 14.472656 7.3125 14.433594 C 7.308594 14.394531 7.324219 14.355469 7.351562 14.328125 Z M 8.566406 15.773438 L 8.382812 15.585938 L 8.964844 14.992188 L 9.25 15.285156 L 8.769531 15.777344 C 8.714844 15.832031 8.625 15.832031 8.570312 15.777344 Z M 8.566406 15.773438 "/>
<path fill-rule="nonzero" fill="rgb(9.803922%, 3.529412%, 20%)" fill-opacity="1" d="M 12.128906 14.480469 C 12.105469 14.507812 12.089844 14.542969 12.089844 14.582031 C 12.089844 14.621094 12.105469 14.660156 12.128906 14.6875 C 12.863281 15.433594 14.046875 15.433594 14.777344 14.6875 C 15.507812 13.941406 15.511719 12.730469 14.78125 11.984375 C 14.726562 11.929688 14.632812 11.925781 14.578125 11.984375 C 14.519531 12.039062 14.519531 12.132812 14.574219 12.191406 C 15.160156 12.828125 15.148438 13.824219 14.539062 14.441406 C 13.933594 15.0625 12.957031 15.078125 12.332031 14.476562 C 12.304688 14.449219 12.269531 14.433594 12.230469 14.433594 C 12.195312 14.4375 12.15625 14.453125 12.128906 14.480469 Z M 12.128906 14.480469 "/>
<path fill-rule="nonzero" fill="rgb(9.803922%, 3.529412%, 20%)" fill-opacity="1" d="M 15.179688 11.570312 C 16.136719 12.542969 16.136719 14.121094 15.179688 15.097656 C 14.226562 16.070312 12.679688 16.070312 11.726562 15.097656 C 11.6875 15.054688 11.625 15.042969 11.574219 15.066406 C 11.519531 15.089844 11.484375 15.140625 11.484375 15.199219 C 11.484375 15.238281 11.5 15.277344 11.527344 15.304688 C 12.601562 16.339844 14.285156 16.3125 15.328125 15.25 C 16.371094 14.183594 16.398438 12.464844 15.382812 11.367188 C 15.328125 11.308594 15.238281 11.308594 15.179688 11.367188 C 15.125 11.421875 15.125 11.515625 15.179688 11.574219 Z M 15.179688 11.570312 "/>
<path fill-rule="nonzero" fill="rgb(9.803922%, 3.529412%, 20%)" fill-opacity="1" d="M 12.742188 13.859375 C 12.714844 13.886719 12.703125 13.925781 12.703125 13.960938 C 12.703125 14 12.714844 14.035156 12.742188 14.0625 C 13.144531 14.417969 13.742188 14.394531 14.121094 14.011719 C 14.496094 13.628906 14.515625 13.015625 14.167969 12.605469 C 14.117188 12.546875 14.023438 12.542969 13.96875 12.601562 C 13.910156 12.65625 13.910156 12.75 13.960938 12.804688 C 14.222656 13.101562 14.214844 13.550781 13.9375 13.832031 C 13.664062 14.109375 13.222656 14.121094 12.933594 13.855469 C 12.878906 13.804688 12.792969 13.808594 12.742188 13.859375 Z M 12.742188 13.859375 "/>
</svg>
