<!-- Uploaded to: SVG Repo, www.svgrepo.com, Transformed by: SVG Repo Mixer Tools -->
<svg xmlns="http://www.w3.org/2000/svg" xmlns:xlink="http://www.w3.org/1999/xlink" width="24" height="24" viewBox="0 0 24 24">
<path fill-rule="nonzero" fill="rgb(100%, 100%, 100%)" fill-opacity="1" d="M 21 4.5 C 21.828125 4.5 22.5 5.171875 22.5 6 L 22.5 18 C 22.5 18.828125 21.828125 19.5 21 19.5 C 20.171875 19.5 19.5 18.828125 19.5 18 L 19.5 6 C 19.5 5.171875 20.171875 4.5 21 4.5 Z M 13.0625 6.4375 L 18.621094 12 L 13.0625 17.5625 C 12.476562 18.144531 11.523438 18.144531 10.9375 17.5625 C 10.355469 16.976562 10.355469 16.023438 10.9375 15.4375 L 12.878906 13.5 L 3 13.5 C 2.171875 13.5 1.5 12.828125 1.5 12 C 1.5 11.171875 2.171875 10.5 3 10.5 L 12.878906 10.5 L 10.9375 8.5625 C 10.355469 7.976562 10.355469 7.023438 10.9375 6.4375 C 11.523438 5.855469 12.476562 5.855469 13.0625 6.4375 Z M 13.0625 6.4375 "/>
</svg>
