<!-- Uploaded to: SVG Repo, www.svgrepo.com, Generator: SVG Repo Mixer Tools -->
<svg xmlns="http://www.w3.org/2000/svg" xmlns:xlink="http://www.w3.org/1999/xlink" width="24" height="24" viewBox="0 0 24 24">
<path fill-rule="nonzero" fill="rgb(3.529412%, 14.117647%, 29.411765%)" fill-opacity="1" d="M 20 17.5 C 20.828125 17.5 21.5 18.171875 21.5 19 C 21.5 19.828125 20.828125 20.5 20 20.5 L 9 20.5 C 8.171875 20.5 7.5 19.828125 7.5 19 C 7.5 18.171875 8.171875 17.5 9 17.5 Z M 4.5 17.5 C 5.328125 17.5 6 18.171875 6 19 C 6 19.828125 5.328125 20.5 4.5 20.5 C 3.671875 20.5 3 19.828125 3 19 C 3 18.171875 3.671875 17.5 4.5 17.5 Z M 20 10.5 C 20.828125 10.5 21.5 11.171875 21.5 12 C 21.5 12.78125 20.90625 13.421875 20.144531 13.492188 L 20 13.5 L 9 13.5 C 8.171875 13.5 7.5 12.828125 7.5 12 C 7.5 11.21875 8.09375 10.578125 8.855469 10.507812 L 9 10.5 Z M 4.5 10.5 C 5.328125 10.5 6 11.171875 6 12 C 6 12.828125 5.328125 13.5 4.5 13.5 C 3.671875 13.5 3 12.828125 3 12 C 3 11.171875 3.671875 10.5 4.5 10.5 Z M 4.5 3.5 C 5.328125 3.5 6 4.171875 6 5 C 6 5.828125 5.328125 6.5 4.5 6.5 C 3.671875 6.5 3 5.828125 3 5 C 3 4.171875 3.671875 3.5 4.5 3.5 Z M 20 3.5 C 20.828125 3.5 21.5 4.171875 21.5 5 C 21.5 5.78125 20.90625 6.421875 20.144531 6.492188 L 20 6.5 L 9 6.5 C 8.171875 6.5 7.5 5.828125 7.5 5 C 7.5 4.21875 8.09375 3.578125 8.855469 3.507812 L 9 3.5 Z M 20 3.5 "/>
</svg>
