<!-- Uploaded to: SVG Repo, www.svgrepo.com, Transformed by: SVG Repo Mixer Tools -->
<svg xmlns="http://www.w3.org/2000/svg" xmlns:xlink="http://www.w3.org/1999/xlink" width="24" height="24" viewBox="0 0 24 24">
<path fill-rule="evenodd" fill="rgb(100%, 100%, 100%)" fill-opacity="1" d="M 6 8 C 6 4.6875 8.6875 2 12 2 C 15.3125 2 18 4.6875 18 8 L 19 8 C 20.105469 8 21 8.894531 21 10 L 21 20 C 21 21.105469 20.105469 22 19 22 L 5 22 C 3.894531 22 3 21.105469 3 20 L 3 10 C 3 8.894531 3.894531 8 5 8 Z M 12 4 C 14.210938 4 16 5.789062 16 8 L 8 8 C 8 5.789062 9.789062 4 12 4 Z M 14 14 C 14 14.742188 13.597656 15.386719 13 15.730469 L 13 17 C 13 17.550781 12.550781 18 12 18 C 11.449219 18 11 17.550781 11 17 L 11 15.730469 C 10.402344 15.386719 10 14.742188 10 14 C 10 12.894531 10.894531 12 12 12 C 13.105469 12 14 12.894531 14 14 Z M 14 14 "/>
</svg>
