<!-- Uploaded to: SVG Repo, www.svgrepo.com, Transformed by: SVG Repo Mixer Tools -->
<svg xmlns="http://www.w3.org/2000/svg" xmlns:xlink="http://www.w3.org/1999/xlink" width="24" height="24" viewBox="0 0 24 24">
<path fill-rule="nonzero" fill="rgb(3.529412%, 14.117647%, 29.411765%)" fill-opacity="1" d="M 4.488281 8.925781 L 5.050781 8.925781 L 5.050781 7.222656 C 5.050781 5.242188 5.832031 3.4375 7.085938 2.128906 C 8.34375 0.816406 10.085938 0 12 0 C 13.914062 0 15.65625 0.816406 16.914062 2.128906 C 18.167969 3.4375 18.949219 5.242188 18.949219 7.222656 L 18.949219 8.925781 L 19.511719 8.925781 C 19.980469 8.925781 20.410156 9.117188 20.71875 9.425781 C 21.023438 9.734375 21.21875 10.160156 21.21875 10.628906 L 21.21875 22.296875 C 21.21875 22.765625 21.027344 23.191406 20.71875 23.5 C 20.410156 23.808594 19.980469 24 19.511719 24 L 4.488281 24 C 4.019531 24 3.59375 23.808594 3.285156 23.5 C 2.976562 23.191406 2.785156 22.765625 2.785156 22.296875 L 2.785156 10.628906 C 2.785156 10.160156 2.976562 9.734375 3.285156 9.425781 C 3.59375 9.117188 4.019531 8.925781 4.488281 8.925781 Z M 11.378906 17.050781 L 10.558594 19.195312 L 13.441406 19.195312 L 12.683594 17.023438 C 13.164062 16.773438 13.492188 16.273438 13.492188 15.691406 C 13.492188 14.867188 12.824219 14.199219 12 14.199219 C 11.175781 14.199219 10.507812 14.867188 10.507812 15.691406 C 10.507812 16.296875 10.863281 16.816406 11.378906 17.050781 Z M 6.25 8.925781 L 17.75 8.925781 L 17.75 7.222656 C 17.75 5.558594 17.101562 4.050781 16.054688 2.960938 C 15.011719 1.871094 13.578125 1.199219 12 1.199219 C 10.421875 1.199219 8.988281 1.871094 7.945312 2.960938 C 6.898438 4.050781 6.25 5.558594 6.25 7.222656 Z M 19.511719 10.125 L 4.488281 10.125 C 4.347656 10.125 4.222656 10.183594 4.132812 10.273438 C 4.039062 10.367188 3.980469 10.492188 3.980469 10.628906 L 3.980469 22.296875 C 3.980469 22.433594 4.039062 22.5625 4.132812 22.652344 C 4.222656 22.746094 4.347656 22.800781 4.488281 22.800781 L 19.511719 22.800781 C 19.652344 22.800781 19.777344 22.746094 19.871094 22.652344 C 19.960938 22.5625 20.019531 22.433594 20.019531 22.296875 L 20.019531 10.628906 C 20.019531 10.492188 19.960938 10.367188 19.871094 10.273438 C 19.777344 10.183594 19.652344 10.125 19.511719 10.125 Z M 19.511719 10.125 "/>
</svg>
