<!-- Uploaded to: SVG Repo, www.svgrepo.com, Transformed by: SVG Repo Mixer Tools -->
<svg xmlns="http://www.w3.org/2000/svg" xmlns:xlink="http://www.w3.org/1999/xlink" width="24" height="24" viewBox="0 0 24 24">
<path fill-rule="nonzero" fill="rgb(100%, 100%, 100%)" fill-opacity="1" d="M 12 15 C 13.65625 15 15 13.65625 15 12 C 15 10.34375 13.65625 9 12 9 C 10.34375 9 9 10.34375 9 12 C 9 13.65625 10.34375 15 12 15 Z M 12 15 "/>
<path fill-rule="evenodd" fill="rgb(100%, 100%, 100%)" fill-opacity="1" d="M 3.125 10.5 C 3.757812 6.730469 6.730469 3.757812 10.5 3.125 L 10.5 0 L 13.5 0 L 13.5 3.125 C 17.269531 3.757812 20.242188 6.730469 20.875 10.5 L 24 10.5 L 24 13.5 L 20.875 13.5 C 20.242188 17.269531 17.269531 20.242188 13.5 20.875 L 13.5 24 L 10.5 24 L 10.5 20.875 C 6.730469 20.242188 3.757812 17.269531 3.125 13.5 L 0 13.5 L 0 10.5 Z M 6 12 C 6 8.6875 8.6875 6 12 6 C 15.3125 6 18 8.6875 18 12 C 18 15.3125 15.3125 18 12 18 C 8.6875 18 6 15.3125 6 12 Z M 6 12 "/>
</svg>
