<!-- Uploaded to: SVG Repo, www.svgrepo.com, Transformed by: SVG Repo Mixer Tools -->
<svg xmlns="http://www.w3.org/2000/svg" xmlns:xlink="http://www.w3.org/1999/xlink" width="24" height="24" viewBox="0 0 24 24">
<path fill-rule="nonzero" fill="rgb(100%, 100%, 100%)" fill-opacity="1" stroke-width="1" stroke-linecap="butt" stroke-linejoin="miter" stroke="rgb(100%, 100%, 100%)" stroke-opacity="1" stroke-miterlimit="4" d="M 32.09587 24.708968 C 30.989099 25.343734 30.175297 26.401676 29.849776 27.638655 C 29.524255 28.875635 29.687016 30.193994 30.338057 31.300765 L 33.511886 36.785791 L 29.898604 37.534489 L 0.455245 54.526676 L 12.955245 76.173812 L 42.398604 59.181624 L 44.840011 56.414697 L 48.013839 61.915999 C 48.648604 63.02277 49.706547 63.836572 50.943526 64.162093 C 52.180505 64.50389 53.498865 64.324853 54.605636 63.673812 L 67.903162 56.007796 C 69.009932 55.37303 69.823735 54.315088 70.149255 53.078109 C 70.474776 51.841129 70.312016 50.52277 69.660974 49.415999 L 66.487146 43.914697 L 70.100427 43.182275 L 99.543787 26.173812 L 87.043787 4.526676 L 57.600427 21.53514 L 55.159021 24.285791 L 51.985193 18.800765 C 51.350427 17.693994 50.292485 16.880192 49.055505 16.538395 C 47.818526 16.212874 46.500167 16.391911 45.393396 17.026676 Z M 7.274906 56.365869 L 33.251469 41.359359 L 40.754724 54.34764 L 14.778162 69.35415 Z M 59.244307 26.352848 L 85.22087 11.362614 L 92.724125 24.350895 L 66.747563 39.357405 Z M 70.246912 64.910791 C 69.742354 66.831364 68.489099 68.475244 66.780115 69.468083 C 65.054854 70.477197 63.020349 70.737614 61.099776 70.233057 L 59.830245 75.067041 C 66.454594 76.808577 73.306807 72.820947 75.06462 66.196598 Z M 58.511886 79.884749 L 57.242354 84.718734 C 69.237797 87.876286 81.607589 80.747379 84.781417 68.800765 L 79.963708 67.514958 C 77.473474 76.841129 67.919438 82.358708 58.511886 79.884749 Z M 55.940271 89.552718 L 54.654464 94.386702 C 72.021 98.943994 89.859542 88.657536 94.449386 71.404932 L 89.631677 70.119124 C 85.725427 84.751286 70.702641 93.426416 55.940271 89.552718 Z M 55.940271 89.552718 " transform="matrix(0.24, 0, 0, 0.24, 0.02746, -0.10984)"/>
<path fill-rule="evenodd" fill="rgb(100%, 100%, 100%)" fill-opacity="1" stroke-width="7.5" stroke-linecap="round" stroke-linejoin="miter" stroke="rgb(98.431373%, 7.843137%, 7.843137%)" stroke-opacity="1" stroke-miterlimit="4" d="M 15.673828 11.214193 L 87.760417 82.845052 " transform="matrix(0.24, 0, 0, 0.24, 0, 0)"/>
<path fill-rule="evenodd" fill="rgb(100%, 100%, 100%)" fill-opacity="1" stroke-width="7.5" stroke-linecap="round" stroke-linejoin="miter" stroke="rgb(97.647059%, 0%, 0%)" stroke-opacity="1" stroke-miterlimit="4" d="M 10.188802 84.554036 L 93.815104 10.530599 " transform="matrix(0.24, 0, 0, 0.24, 0, 0)"/>
</svg>
