<!-- Uploaded to: SVG Repo, www.svgrepo.com, Transformed by: SVG Repo Mixer Tools -->
<svg xmlns="http://www.w3.org/2000/svg" xmlns:xlink="http://www.w3.org/1999/xlink" width="24" height="24" viewBox="0 0 24 24">
<path fill-rule="evenodd" fill="rgb(100%, 47.058824%, 0%)" fill-opacity="1" d="M 12 2 C 13.089844 2 14.117188 2.292969 15 2.804688 C 15.480469 3.082031 15.640625 3.691406 15.367188 4.171875 C 15.089844 4.648438 14.476562 4.8125 14 4.535156 C 13.410156 4.195312 12.730469 4 12 4 C 9.789062 4 8 5.789062 8 8 L 19 8 C 20.105469 8 21 8.894531 21 10 L 21 20 C 21 21.105469 20.105469 22 19 22 L 5 22 C 3.894531 22 3 21.105469 3 20 L 3 10 C 3 8.894531 3.894531 8 5 8 L 6 8 C 6 4.6875 8.6875 2 12 2 Z M 12 12 C 10.894531 12 10 12.894531 10 14 C 10 14.742188 10.402344 15.386719 11 15.730469 L 11 17 C 11 17.550781 11.449219 18 12 18 C 12.550781 18 13 17.550781 13 17 L 13 15.730469 C 13.597656 15.386719 14 14.742188 14 14 C 14 12.894531 13.105469 12 12 12 Z M 19.917969 5.019531 L 20.882812 5.28125 C 21.417969 5.421875 21.734375 5.972656 21.589844 6.503906 C 21.449219 7.039062 20.898438 7.355469 20.367188 7.210938 L 19.402344 6.953125 C 18.867188 6.808594 18.550781 6.261719 18.695312 5.726562 C 18.835938 5.195312 19.386719 4.878906 19.917969 5.019531 Z M 18.632812 2.089844 C 19.167969 2.230469 19.484375 2.78125 19.339844 3.3125 L 19.210938 3.796875 C 19.066406 4.328125 18.519531 4.648438 17.988281 4.503906 C 17.453125 4.359375 17.136719 3.8125 17.28125 3.277344 L 17.410156 2.796875 C 17.550781 2.261719 18.101562 1.945312 18.632812 2.089844 Z M 18.632812 2.089844 "/>
</svg>
