<!-- Uploaded to: SVG Repo, www.svgrepo.com, Transformed by: SVG Repo Mixer Tools -->
<svg xmlns="http://www.w3.org/2000/svg" xmlns:xlink="http://www.w3.org/1999/xlink" width="24" height="24" viewBox="0 0 24 24">
<path fill-rule="nonzero" fill="rgb(100%, 100%, 100%)" fill-opacity="1" d="M 7.703125 5.929688 C 7.4375 6.082031 7.242188 6.335938 7.164062 6.632812 C 7.085938 6.929688 7.125 7.246094 7.28125 7.511719 L 8.042969 8.828125 L 7.175781 9.007812 L 0.109375 13.085938 L 3.109375 18.28125 L 10.175781 14.203125 L 10.761719 13.539062 L 11.523438 14.859375 C 11.675781 15.125 11.929688 15.320312 12.226562 15.398438 C 12.523438 15.480469 12.839844 15.4375 13.105469 15.28125 L 16.296875 13.441406 C 16.5625 13.289062 16.757812 13.035156 16.835938 12.738281 C 16.914062 12.441406 16.875 12.125 16.71875 11.859375 L 15.957031 10.542969 L 16.824219 10.363281 L 23.890625 6.285156 L 20.890625 1.085938 L 13.824219 5.167969 L 13.238281 5.828125 L 12.476562 4.511719 C 12.324219 4.246094 12.070312 4.050781 11.773438 3.972656 C 11.476562 3.890625 11.160156 3.933594 10.894531 4.085938 Z M 1.746094 13.527344 L 7.980469 9.925781 L 9.78125 13.042969 L 3.546875 16.644531 Z M 14.21875 6.328125 L 20.453125 2.726562 L 22.253906 5.84375 L 16.019531 9.445312 Z M 16.859375 15.578125 C 16.738281 16.039062 16.4375 16.433594 16.027344 16.671875 C 15.613281 16.914062 15.125 16.976562 14.664062 16.855469 L 14.359375 18.015625 C 15.949219 18.433594 17.59375 17.476562 18.015625 15.890625 Z M 14.042969 19.171875 L 13.738281 20.332031 C 16.617188 21.089844 19.585938 19.378906 20.347656 16.511719 L 19.1875 16.203125 C 18.59375 18.441406 16.300781 19.765625 14.042969 19.171875 Z M 13.425781 21.492188 L 13.117188 22.652344 C 17.285156 23.75 21.566406 21.277344 22.667969 17.136719 L 21.511719 16.828125 C 20.574219 20.339844 16.96875 22.425781 13.425781 21.492188 Z M 13.425781 21.492188 "/>
</svg>
