
<svg xmlns="http://www.w3.org/2000/svg" xmlns:xlink="http://www.w3.org/1999/xlink" width="24" height="24" viewBox="0 0 24 24">
<path fill-rule="nonzero" fill="rgb(100%, 100%, 100%)" fill-opacity="1" d="M 11 23 L 11 21 C 8.917969 20.765625 7.128906 19.902344 5.636719 18.414062 C 4.144531 16.921875 3.285156 15.132812 3.050781 13.050781 L 1.050781 13.050781 L 1.050781 11.050781 L 3.050781 11.050781 C 3.285156 8.964844 4.144531 7.179688 5.636719 5.6875 C 7.128906 4.195312 8.917969 3.332031 11 3.101562 L 11 1.101562 L 13 1.101562 L 13 3.101562 C 15.082031 3.332031 16.871094 4.195312 18.363281 5.6875 C 19.855469 7.179688 20.714844 8.964844 20.949219 11.050781 L 22.949219 11.050781 L 22.949219 13.050781 L 20.949219 13.050781 C 20.714844 15.132812 19.855469 16.921875 18.363281 18.414062 C 16.871094 19.902344 15.082031 20.765625 13 21 L 13 23 Z M 12 19.050781 C 13.933594 19.050781 15.582031 18.367188 16.949219 17 C 18.316406 15.632812 19 13.984375 19 12.050781 C 19 10.117188 18.316406 8.464844 16.949219 7.101562 C 15.582031 5.734375 13.933594 5.050781 12 5.050781 C 10.066406 5.050781 8.417969 5.734375 7.050781 7.101562 C 5.683594 8.464844 5 10.117188 5 12.050781 C 5 13.984375 5.683594 15.632812 7.050781 17 C 8.417969 18.367188 10.066406 19.050781 12 19.050781 Z M 12 19.050781 "/>
<path fill-rule="nonzero" fill="rgb(100%, 100%, 100%)" fill-opacity="1" d="M 11 13 L 7 13 L 7 11 L 11 11 L 11 7 L 13 7 L 13 11 L 17 11 L 17 13 L 13 13 L 13 17 L 11 17 Z M 11 13 "/>
<path fill="none" stroke-width="80" stroke-linecap="square" stroke-linejoin="miter" stroke="rgb(100%, 100%, 100%)" stroke-opacity="1" stroke-miterlimit="4" d="M 80 296 L 80 176 L 200 176 " transform="matrix(0.025, 0, 0, 0.025, 0, -2.4)"/>
<path fill="none" stroke-width="80" stroke-linecap="square" stroke-linejoin="miter" stroke="rgb(100%, 100%, 100%)" stroke-opacity="1" stroke-miterlimit="4" d="M 760 176 L 880 176 L 880 296 " transform="matrix(0.025, 0, 0, 0.025, 0, -2.4)"/>
<path fill="none" stroke-width="80" stroke-linecap="square" stroke-linejoin="miter" stroke="rgb(100%, 100%, 100%)" stroke-opacity="1" stroke-miterlimit="4" d="M 880 856 L 880 976 L 760 976 " transform="matrix(0.025, 0, 0, 0.025, 0, -2.4)"/>
<path fill="none" stroke-width="80" stroke-linecap="square" stroke-linejoin="miter" stroke="rgb(100%, 100%, 100%)" stroke-opacity="1" stroke-miterlimit="4" d="M 200 976 L 80 976 L 80 856 " transform="matrix(0.025, 0, 0, 0.025, 0, -2.4)"/>
</svg>
