
<svg xmlns="http://www.w3.org/2000/svg" xmlns:xlink="http://www.w3.org/1999/xlink" width="24" height="24" viewBox="0 0 24 24">
<path fill-rule="nonzero" fill="rgb(0%, 0%, 0%)" fill-opacity="1" d="M 3 13 L 5 13 L 5 11 L 3 11 Z M 3 17 L 5 17 L 5 15 L 3 15 Z M 3 9 L 5 9 L 5 7 L 3 7 Z M 7 13 L 11.878906 13 C 15.367188 10.71875 19.121094 11.457031 21 12.382812 L 21 11 L 7 11 Z M 7 17 L 8.582031 17 C 8.785156 16.449219 9.214844 15.722656 9.726562 15 L 7 15 Z M 7 7 L 7 9 L 21 9 L 21 7 Z M 7 7 "/>
<path fill-rule="nonzero" fill="rgb(0%, 0%, 0%)" fill-opacity="1" d="M 17 20 C 17.984375 20 18.894531 19.773438 19.738281 19.324219 C 20.578125 18.875 21.25 18.265625 21.75 17.5 C 21.25 16.734375 20.578125 16.125 19.738281 15.675781 C 18.894531 15.226562 17.984375 15 17 15 C 16.015625 15 15.105469 15.226562 14.261719 15.675781 C 13.421875 16.125 12.75 16.734375 12.25 17.5 C 12.75 18.265625 13.421875 18.875 14.261719 19.324219 C 15.105469 19.773438 16.015625 20 17 20 Z M 17 22 C 15.398438 22 13.972656 21.578125 12.714844 20.738281 C 11.453125 19.894531 10.550781 18.816406 10 17.5 C 10.550781 16.183594 11.453125 15.105469 12.714844 14.261719 C 13.972656 13.421875 15.398438 13 17 13 C 18.601562 13 20.03125 13.421875 21.289062 14.261719 C 22.546875 15.105469 23.449219 16.183594 24 17.5 C 23.449219 18.816406 22.546875 19.894531 21.289062 20.738281 C 20.03125 21.578125 18.601562 22 17 22 Z M 17 19 C 16.582031 19 16.230469 18.855469 15.9375 18.5625 C 15.644531 18.269531 15.5 17.917969 15.5 17.5 C 15.5 17.082031 15.644531 16.730469 15.9375 16.4375 C 16.230469 16.144531 16.582031 16 17 16 C 17.417969 16 17.769531 16.144531 18.0625 16.4375 C 18.355469 16.730469 18.5 17.082031 18.5 17.5 C 18.5 17.917969 18.355469 18.269531 18.0625 18.5625 C 17.769531 18.855469 17.417969 19 17 19 Z M 17 19 "/>
</svg>
