<?xml version="1.0" encoding="UTF-8"?>
<svg width="24" height="24" version="1.1" viewBox="0 0 24 24" xmlns="http://www.w3.org/2000/svg">
 <path d="M 4,12 C 4,7.582 7.582,4 12,4 C 16.418,4 20,7.582 20,12 Z" fill="#1976d2" fill-opacity="0.3"/>
 <path d="M 20,12 C 20,16.418 16.418,20 12,20 C 7.582,20 4,16.418 4,12 Z" fill="#1976d2" fill-opacity="0.3"/>
 <path d="M12,4V20" stroke="#1976d2" stroke-width="2"/>
 <path d="M4,12H20" stroke="#1976d2" stroke-width="2"/>
 <path d="M12,4C7.582,4 4,7.582 4,12 C4,16.418 7.582,20 12,20 C16.418,20 20,16.418 20,12 C20,7.582 16.418,4 12,4Z" fill="none" stroke="#1976d2" stroke-width="2"/>
</svg> 