
<svg xmlns="http://www.w3.org/2000/svg" xmlns:xlink="http://www.w3.org/1999/xlink" width="24" height="24" viewBox="0 0 24 24">
<path fill-rule="nonzero" fill="rgb(100%, 100%, 100%)" fill-opacity="1" d="M 12.808594 5.902344 C 12.203125 5.941406 11.710938 6.425781 11.710938 7.039062 C 11.710938 7.683594 12.234375 8.207031 12.875 8.207031 C 13.515625 8.207031 14.042969 7.683594 14.042969 7.039062 C 14.042969 6.457031 13.585938 6.023438 13.027344 5.9375 C 12.953125 5.925781 12.878906 5.914062 12.808594 5.902344 Z M 12 8.5 C 11.824219 8.5 11.707031 8.558594 11.535156 8.558594 L 8.5 9.839844 L 8.5 12.585938 L 9.667969 12.585938 L 9.667969 10.601562 L 10.71875 10.191406 L 9.339844 17.125 C 9.707031 17.320312 10.09375 17.480469 10.492188 17.601562 L 11.359375 13.75 L 12.585938 14.917969 L 12.585938 17.984375 C 12.988281 17.863281 13.378906 17.699219 13.75 17.5 L 13.75 14.042969 L 12.527344 12.875 L 12.875 11.125 C 13.632812 12 14.800781 12.585938 16.085938 12.585938 L 16.085938 11.417969 C 14.976562 11.417969 14.039062 10.835938 13.574219 10.019531 L 12.992188 9.085938 C 12.757812 8.734375 12.410156 8.5 12 8.5 Z M 12 8.5 "/>
<path fill-rule="nonzero" fill="rgb(100%, 100%, 100%)" fill-opacity="1" d="M 11 22.949219 L 11 20.949219 C 8.917969 20.714844 7.128906 19.855469 5.636719 18.363281 C 4.144531 16.871094 3.285156 15.082031 3.050781 13 L 1.050781 13 L 1.050781 11 L 3.050781 11 C 3.285156 8.917969 4.144531 7.128906 5.636719 5.636719 C 7.128906 4.144531 8.917969 3.285156 11 3.050781 L 11 1.050781 L 13 1.050781 L 13 3.050781 C 15.082031 3.285156 16.871094 4.144531 18.363281 5.636719 C 19.855469 7.128906 20.714844 8.917969 20.949219 11 L 22.949219 11 L 22.949219 13 L 20.949219 13 C 20.714844 15.082031 19.855469 16.871094 18.363281 18.363281 C 16.871094 19.855469 15.082031 20.714844 13 20.949219 L 13 22.949219 Z M 12 19 C 13.933594 19 15.582031 18.316406 16.949219 16.949219 C 18.316406 15.582031 19 13.933594 19 12 C 19 10.066406 18.316406 8.417969 16.949219 7.050781 C 15.582031 5.683594 13.933594 5 12 5 C 10.066406 5 8.417969 5.683594 7.050781 7.050781 C 5.683594 8.417969 5 10.066406 5 12 C 5 13.933594 5.683594 15.582031 7.050781 16.949219 C 8.417969 18.316406 10.066406 19 12 19 Z M 12 19 "/>
</svg>
