
<svg xmlns="http://www.w3.org/2000/svg" xmlns:xlink="http://www.w3.org/1999/xlink" width="18" height="18" viewBox="0 0 18 18">
<defs>
<linearGradient id="linear-pattern-0" gradientUnits="userSpaceOnUse" x1="4.53" y1="22.364" x2="4.458" y2="25.132999" gradientTransform="matrix(1.49967, 0, 0, 3.69153, -0.700875, -78.651003)">
<stop offset="0" stop-color="rgb(93.333333%, 93.333333%, 93.333333%)" stop-opacity="1"/>
<stop offset="1" stop-color="rgb(81.176471%, 81.176471%, 81.176471%)" stop-opacity="1"/>
</linearGradient>
<linearGradient id="linear-pattern-1" gradientUnits="userSpaceOnUse" x1="18" y1="14.322" x2="13.172" y2="10.525" gradientTransform="matrix(0.664909, 0, 0, 0.668542, 0.8775, -4.10175)">
<stop offset="0" stop-color="rgb(81.176471%, 81.176471%, 81.176471%)" stop-opacity="1"/>
<stop offset="1" stop-color="rgb(93.333333%, 93.333333%, 93.333333%)" stop-opacity="1"/>
</linearGradient>
<linearGradient id="linear-pattern-2" gradientUnits="userSpaceOnUse" x1="1.729" y1="15.458" x2="7" y2="15.458" gradientTransform="matrix(0.733455, 0, 0, 0.73305, 1.32075, -6.778125)">
<stop offset="0" stop-color="rgb(43.137255%, 59.215686%, 76.862745%)" stop-opacity="1"/>
<stop offset="1" stop-color="rgb(68.235294%, 78.039216%, 88.627451%)" stop-opacity="1"/>
</linearGradient>
<linearGradient id="linear-pattern-3" gradientUnits="userSpaceOnUse" x1="1.729" y1="15.458" x2="7" y2="15.458" gradientTransform="matrix(0.733455, 0, 0, 0.73305, 1.32075, -6.778125)">
<stop offset="0" stop-color="rgb(43.137255%, 59.215686%, 76.862745%)" stop-opacity="1"/>
<stop offset="1" stop-color="rgb(68.235294%, 78.039216%, 88.627451%)" stop-opacity="1"/>
</linearGradient>
<linearGradient id="linear-pattern-4" gradientUnits="userSpaceOnUse" x1="7.373" y1="10" x2="7.449" y2="15" gradientTransform="matrix(0.733455, 0, 0, 0.73305, 1.32075, -6.778125)">
<stop offset="0" stop-color="rgb(43.137255%, 59.215686%, 76.862745%)" stop-opacity="1"/>
<stop offset="1" stop-color="rgb(68.235294%, 78.039216%, 88.627451%)" stop-opacity="1"/>
</linearGradient>
</defs>
<path fill-rule="nonzero" fill="url(#linear-pattern-0)" d="M 1.320312 1.621094 L 1.320312 16.679688 L 6.539062 16.679688 L 6.539062 1.621094 Z M 1.320312 1.621094 "/>
<path fill-rule="nonzero" fill="rgb(81.176471%, 81.176471%, 81.176471%)" fill-opacity="1" d="M 16.539062 11.308594 L 16.378906 1.625 L 7.046875 11.371094 Z M 16.539062 11.308594 "/>
<path fill-rule="nonzero" fill="url(#linear-pattern-1)" d="M 6.695312 1.328125 L 6.539062 11.460938 L 16.378906 1.621094 Z M 6.695312 1.328125 "/>
<path fill-rule="nonzero" fill="url(#linear-pattern-2)" d="M 2.789062 8.617188 C 1.808594 13.992188 2.296875 11.304688 2.789062 8.617188 Z M 2.789062 8.617188 "/>
<path fill-rule="nonzero" fill="url(#linear-pattern-3)" d="M 2.585938 8.617188 C 1.742188 13.992188 2.164062 11.304688 2.585938 8.617188 Z M 2.585938 8.617188 "/>
<path fill-rule="nonzero" fill="url(#linear-pattern-4)" d="M 2.789062 0.550781 C 1.808594 11.304688 2.296875 5.925781 2.789062 0.550781 Z M 2.789062 0.550781 "/>
<path fill="none" stroke-width="0.875" stroke-linecap="round" stroke-linejoin="miter" stroke="rgb(53.333333%, 54.117647%, 52.156863%)" stroke-opacity="1" stroke-miterlimit="4" d="M 1.4375 1.451389 L 5.8125 1.444444 L 5.8125 10.1875 L 1.4375 10.1875 Z M 5.8125 1.444444 L 14.559028 1.444444 L 14.559028 10.1875 L 5.8125 10.1875 Z M 14.559028 1.444444 L 5.8125 10.1875 M 1.4375 10.1875 L 5.8125 10.1875 L 5.8125 14.5625 L 1.4375 14.5625 Z M 1.4375 10.1875 " transform="matrix(1.125, 0, 0, 1.125, 0, 0)"/>
<path fill-rule="nonzero" fill="rgb(81.176471%, 81.176471%, 81.176471%)" fill-opacity="1" stroke-width="0.833" stroke-linecap="round" stroke-linejoin="miter" stroke="rgb(53.333333%, 54.117647%, 52.156863%)" stroke-opacity="1" stroke-miterlimit="4" d="M 5.809028 10.25 L 9.979167 10.25 L 9.979167 14.5625 L 5.809028 14.5625 Z M 5.809028 10.25 " transform="matrix(1.125, 0, 0, 1.125, 0, 0)"/>
</svg>
