<!-- Uploaded to: SVG Repo, www.svgrepo.com, Transformed by: SVG Repo Mixer Tools -->
<svg xmlns="http://www.w3.org/2000/svg" xmlns:xlink="http://www.w3.org/1999/xlink" width="24" height="24" viewBox="0 0 24 24">
<path fill="none" stroke-width="1.112" stroke-linecap="butt" stroke-linejoin="miter" stroke="rgb(8.235294%, 9.019608%, 39.215686%)" stroke-opacity="1" stroke-miterlimit="4" d="M 62.844274 17.993734 L 46.018055 1.175427 C 44.468838 -0.376231 41.962119 -0.376231 40.412902 1.175427 L 1.176829 40.414673 C -0.372388 41.966331 -0.372388 44.47606 1.176829 46.017304 L 17.992289 62.835612 C 19.541506 64.38727 22.048225 64.38727 23.597442 62.835612 L 62.833515 23.596366 C 64.382732 22.044707 64.382732 19.545392 62.844274 17.993734 Z M 61.434916 22.200915 L 22.198843 61.440161 C 21.424235 62.210783 20.165496 62.210783 19.390887 61.440161 L 2.575427 44.621853 C 1.800819 43.840817 1.800819 42.59116 2.575427 41.810124 L 4.673325 39.716947 L 7.481281 42.518263 C 7.868586 42.903574 8.492576 42.903574 8.87988 42.518263 C 9.267184 42.132952 9.267184 41.508123 8.87988 41.112398 L 6.082683 38.311083 L 8.87988 35.509767 L 14.485033 41.112398 C 14.872338 41.508123 15.507086 41.508123 15.883632 41.112398 C 16.270936 40.727087 16.270936 40.102259 15.883632 39.716947 L 10.289237 34.103902 L 13.086435 31.302587 L 15.883632 34.103902 C 16.281695 34.499627 16.905685 34.499627 17.292989 34.103902 C 17.680293 33.718591 17.680293 33.093763 17.292989 32.708452 L 14.485033 29.907136 L 17.292989 27.10582 L 20.090187 29.907136 C 20.477491 30.292447 21.11224 30.292447 21.499544 29.907136 C 21.886848 29.521825 21.886848 28.886582 21.499544 28.501271 L 18.691588 25.699956 L 21.499544 22.89864 L 27.104697 28.501271 C 27.492001 28.886582 28.115992 28.886582 28.503296 28.501271 C 28.8906 28.11596 28.8906 27.491131 28.503296 27.10582 L 22.898143 21.492775 L 25.69534 18.69146 L 28.503296 21.492775 C 28.8906 21.878086 29.51459 21.878086 29.901895 21.492775 C 30.289199 21.107464 30.289199 20.482636 29.901895 20.097324 L 27.104697 17.296009 L 29.901895 14.484279 L 32.70985 17.296009 C 33.097155 17.68132 33.721145 17.68132 34.108449 17.296009 C 34.495753 16.900284 34.495753 16.275455 34.108449 15.890144 L 31.300493 13.088829 L 34.108449 10.287513 L 39.713603 15.890144 C 40.100907 16.275455 40.724897 16.275455 41.112201 15.890144 C 41.499505 15.504833 41.499505 14.869591 41.112201 14.484279 L 35.507048 8.881648 L 38.315004 6.080333 L 41.112201 8.881648 C 41.499505 9.266959 42.134254 9.266959 42.5108 8.881648 C 42.908863 8.496337 42.908863 7.871508 42.5108 7.486197 L 39.713603 4.674468 L 41.811501 2.570878 C 42.586109 1.800256 43.844848 1.800256 44.619456 2.570878 L 61.434916 19.389185 C 62.209525 20.170221 62.209525 21.419879 61.434916 22.200915 Z M 61.434916 22.200915 " transform="matrix(0.363087, 0, 0, 0.375103, 0.381303, -0.0307497)"/>
<path fill-rule="nonzero" fill="rgb(3.529412%, 14.117647%, 29.411765%)" fill-opacity="1" d="M 23.199219 6.71875 L 17.089844 0.410156 C 16.527344 -0.171875 15.617188 -0.171875 15.054688 0.410156 L 0.808594 15.128906 C 0.246094 15.710938 0.246094 16.652344 0.808594 17.230469 L 6.914062 23.539062 C 7.476562 24.121094 8.386719 24.121094 8.949219 23.539062 L 23.195312 8.820312 C 23.757812 8.238281 23.757812 7.300781 23.199219 6.71875 Z M 22.6875 8.296875 L 8.441406 23.015625 C 8.160156 23.304688 7.703125 23.304688 7.421875 23.015625 L 1.316406 16.707031 C 1.035156 16.414062 1.035156 15.945312 1.316406 15.652344 L 2.078125 14.867188 L 3.097656 15.917969 C 3.238281 16.0625 3.464844 16.0625 3.605469 15.917969 C 3.746094 15.773438 3.746094 15.539062 3.605469 15.390625 L 2.589844 14.339844 L 3.605469 13.289062 L 5.640625 15.390625 C 5.78125 15.539062 6.011719 15.539062 6.148438 15.390625 C 6.289062 15.246094 6.289062 15.011719 6.148438 14.867188 L 4.117188 12.761719 L 5.132812 11.710938 L 6.148438 12.761719 C 6.292969 12.910156 6.519531 12.910156 6.660156 12.761719 C 6.800781 12.617188 6.800781 12.382812 6.660156 12.238281 L 5.640625 11.1875 L 6.660156 10.136719 L 7.675781 11.1875 C 7.816406 11.332031 8.046875 11.332031 8.1875 11.1875 C 8.328125 11.042969 8.328125 10.804688 8.1875 10.660156 L 7.167969 9.609375 L 8.1875 8.558594 L 10.222656 10.660156 C 10.363281 10.804688 10.589844 10.804688 10.730469 10.660156 C 10.871094 10.515625 10.871094 10.28125 10.730469 10.136719 L 8.695312 8.03125 L 9.710938 6.980469 L 10.730469 8.03125 C 10.871094 8.175781 11.097656 8.175781 11.238281 8.03125 C 11.378906 7.886719 11.378906 7.652344 11.238281 7.507812 L 10.222656 6.457031 L 11.238281 5.402344 L 12.257812 6.457031 C 12.398438 6.601562 12.625 6.601562 12.765625 6.457031 C 12.90625 6.308594 12.90625 6.074219 12.765625 5.929688 L 11.746094 4.878906 L 12.765625 3.828125 L 14.800781 5.929688 C 14.941406 6.074219 15.167969 6.074219 15.308594 5.929688 C 15.449219 5.785156 15.449219 5.546875 15.308594 5.402344 L 13.273438 3.300781 L 14.292969 2.25 L 15.308594 3.300781 C 15.449219 3.445312 15.679688 3.445312 15.816406 3.300781 C 15.960938 3.15625 15.960938 2.921875 15.816406 2.777344 L 14.800781 1.722656 L 15.5625 0.933594 C 15.84375 0.644531 16.300781 0.644531 16.582031 0.933594 L 22.6875 7.242188 C 22.96875 7.535156 22.96875 8.003906 22.6875 8.296875 Z M 22.6875 8.296875 "/>
<path fill="none" stroke-width="1.112" stroke-linecap="butt" stroke-linejoin="miter" stroke="rgb(8.235294%, 9.019608%, 39.215686%)" stroke-opacity="1" stroke-miterlimit="4" d="M 51.009977 17.004422 C 48.793736 17.004422 47.007833 18.795598 47.007833 21.003326 C 47.007833 23.211054 48.793736 25.00223 51.009977 25.00223 C 53.215459 25.00223 55.012121 23.211054 55.012121 21.003326 C 55.012121 18.795598 53.215459 17.004422 51.009977 17.004422 Z M 51.009977 23.002778 C 49.901856 23.002778 49.008905 22.10719 49.008905 21.003326 C 49.008905 19.899462 49.901856 19.003874 51.009977 19.003874 C 52.107339 19.003874 53.011049 19.899462 53.011049 21.003326 C 53.011049 22.10719 52.107339 23.002778 51.009977 23.002778 Z M 51.009977 23.002778 " transform="matrix(0.363087, 0, 0, 0.375103, 0.381303, -0.0307497)"/>
<path fill-rule="nonzero" fill="rgb(3.529412%, 14.117647%, 29.411765%)" fill-opacity="1" d="M 18.902344 6.347656 C 18.097656 6.347656 17.449219 7.019531 17.449219 7.847656 C 17.449219 8.675781 18.097656 9.347656 18.902344 9.347656 C 19.703125 9.347656 20.355469 8.675781 20.355469 7.847656 C 20.355469 7.019531 19.703125 6.347656 18.902344 6.347656 Z M 18.902344 8.597656 C 18.5 8.597656 18.175781 8.261719 18.175781 7.847656 C 18.175781 7.433594 18.5 7.097656 18.902344 7.097656 C 19.300781 7.097656 19.628906 7.433594 19.628906 7.847656 C 19.628906 8.261719 19.300781 8.597656 18.902344 8.597656 Z M 18.902344 8.597656 "/>
</svg>
