<!-- Uploaded to: SVG Repo, www.svgrepo.com, Transformed by: SVG Repo Mixer Tools -->
<svg xmlns="http://www.w3.org/2000/svg" xmlns:xlink="http://www.w3.org/1999/xlink" width="24" height="24" viewBox="0 0 24 24">
<path fill="none" stroke-width="2" stroke-linecap="round" stroke-linejoin="round" stroke="rgb(3.529412%, 14.117647%, 29.411765%)" stroke-opacity="1" stroke-miterlimit="4" d="M 3 13 L 3 14.800781 C 3 15.921875 3 16.480469 3.21875 16.90625 C 3.410156 17.285156 3.714844 17.589844 4.09375 17.78125 C 4.519531 18 5.078125 18 6.199219 18 L 16.246094 18 C 16.527344 18 16.667969 18 16.804688 18.019531 C 16.925781 18.035156 17.046875 18.066406 17.164062 18.105469 C 17.296875 18.148438 17.421875 18.210938 17.675781 18.335938 L 21 20 L 21 7.199219 C 21 6.078125 21 5.519531 20.78125 5.09375 C 20.589844 4.714844 20.285156 4.410156 19.90625 4.21875 C 19.480469 4 18.921875 4 17.800781 4 L 13 4 M 8.121094 3.878906 C 9.292969 5.050781 9.292969 6.949219 8.121094 8.121094 C 6.949219 9.292969 5.050781 9.292969 3.878906 8.121094 C 2.707031 6.949219 2.707031 5.050781 3.878906 3.878906 C 5.050781 2.707031 6.949219 2.707031 8.121094 3.878906 Z M 8.121094 3.878906 "/>
</svg>
