<!-- Uploaded to: SVG Repo, www.svgrepo.com, Transformed by: SVG Repo Mixer Tools -->
<svg xmlns="http://www.w3.org/2000/svg" xmlns:xlink="http://www.w3.org/1999/xlink" width="24" height="24" viewBox="0 0 24 24">
<path fill-rule="evenodd" fill="rgb(100%, 100%, 100%)" fill-opacity="1" d="M 16.867188 2.390625 C 16.765625 2.390625 16.664062 2.429688 16.589844 2.5 C 16.515625 2.574219 16.472656 2.675781 16.476562 2.777344 L 16.5625 18.285156 C 16.566406 18.433594 16.652344 18.566406 16.785156 18.628906 L 22.855469 21.449219 C 22.972656 21.503906 23.113281 21.496094 23.222656 21.425781 C 23.332031 21.355469 23.398438 21.230469 23.398438 21.101562 L 23.398438 5.636719 C 23.398438 5.488281 23.3125 5.351562 23.179688 5.289062 L 17.023438 2.425781 C 16.972656 2.40625 16.921875 2.394531 16.867188 2.390625 Z M 15.0625 2.476562 C 15.007812 2.480469 14.953125 2.492188 14.90625 2.515625 L 8.582031 5.453125 C 8.445312 5.515625 8.359375 5.652344 8.359375 5.800781 L 8.445312 21.226562 C 8.445312 21.355469 8.515625 21.476562 8.625 21.546875 C 8.734375 21.617188 8.875 21.628906 8.992188 21.574219 L 15.316406 18.632812 C 15.453125 18.570312 15.539062 18.433594 15.539062 18.285156 L 15.449219 2.859375 C 15.449219 2.757812 15.410156 2.660156 15.335938 2.589844 C 15.261719 2.515625 15.164062 2.476562 15.0625 2.476562 Z M 0.992188 2.554688 C 0.890625 2.550781 0.789062 2.589844 0.714844 2.664062 C 0.640625 2.734375 0.601562 2.835938 0.601562 2.9375 L 0.601562 18.402344 C 0.601562 18.550781 0.6875 18.6875 0.820312 18.75 L 6.875 21.5625 C 6.996094 21.617188 7.132812 21.609375 7.246094 21.539062 C 7.355469 21.46875 7.421875 21.34375 7.421875 21.210938 L 7.332031 5.707031 C 7.332031 5.558594 7.246094 5.421875 7.109375 5.359375 L 1.144531 2.589844 C 1.097656 2.566406 1.046875 2.554688 0.992188 2.554688 Z M 0.992188 2.554688 "/>
<path fill="none" stroke-width="2" stroke-linecap="round" stroke-linejoin="round" stroke="rgb(42.745098%, 28.235294%, 70.980392%)" stroke-opacity="1" stroke-miterlimit="4" d="M 55.008055 48.987667 L 55.008055 50.988579 " transform="matrix(0.12446, 0, 0, 0.138609, 7.872468, 6.83879)"/>
<path fill="none" stroke-width="2" stroke-linecap="round" stroke-linejoin="round" stroke="rgb(42.745098%, 28.235294%, 70.980392%)" stroke-opacity="1" stroke-miterlimit="4" d="M 55.008055 54.990402 L 55.008055 56.991314 " transform="matrix(0.12446, 0, 0, 0.138609, 7.872468, 6.83879)"/>
<path fill="none" stroke-width="2" stroke-linecap="round" stroke-linejoin="round" stroke="rgb(42.745098%, 28.235294%, 70.980392%)" stroke-opacity="1" stroke-miterlimit="4" d="M 50.990688 52.98949 L 52.999371 52.98949 " transform="matrix(0.12446, 0, 0, 0.138609, 7.872468, 6.83879)"/>
<path fill="none" stroke-width="2" stroke-linecap="round" stroke-linejoin="round" stroke="rgb(42.745098%, 28.235294%, 70.980392%)" stroke-opacity="1" stroke-miterlimit="4" d="M 56.985352 52.98949 L 58.994036 52.98949 " transform="matrix(0.12446, 0, 0, 0.138609, 7.872468, 6.83879)"/>
<path fill-rule="nonzero" fill="rgb(97.647059%, 97.647059%, 97.647059%)" fill-opacity="1" stroke-width="1" stroke-linecap="butt" stroke-linejoin="miter" stroke="rgb(42.745098%, 28.235294%, 70.980392%)" stroke-opacity="1" stroke-miterlimit="4" d="M 61.096876 37.658562 C 61.096876 38.250381 60.594705 38.729472 60.029763 38.729472 C 59.433435 38.729472 58.931264 38.250381 58.931264 37.658562 C 58.931264 37.066743 59.433435 36.587651 59.998378 36.587651 C 60.594705 36.587651 61.065491 37.066743 61.096876 37.658562 Z M 61.096876 37.658562 " transform="matrix(0.12446, 0, 0, 0.138609, 7.872468, 6.83879)"/>
<path fill-rule="nonzero" fill="rgb(97.647059%, 97.647059%, 97.647059%)" fill-opacity="1" stroke-width="1" stroke-linecap="butt" stroke-linejoin="miter" stroke="rgb(42.745098%, 28.235294%, 70.980392%)" stroke-opacity="1" stroke-miterlimit="4" d="M 7.082124 3.671246 C 7.082124 4.263065 6.611339 4.742156 6.015011 4.742156 C 5.418683 4.742156 4.947898 4.263065 4.947898 3.671246 C 4.947898 3.079427 5.418683 2.600335 6.015011 2.600335 C 6.611339 2.600335 7.082124 3.079427 7.082124 3.671246 Z M 7.082124 3.671246 " transform="matrix(0.12446, 0, 0, 0.138609, 7.872468, 6.83879)"/>
<path fill-rule="nonzero" fill="rgb(97.647059%, 97.647059%, 97.647059%)" fill-opacity="1" stroke-width="2" stroke-linecap="round" stroke-linejoin="round" stroke="rgb(42.745098%, 28.235294%, 70.980392%)" stroke-opacity="1" stroke-miterlimit="4" d="M 23.999005 5.503066 C 23.999005 6.883977 22.86912 8.011251 21.488151 8.011251 C 20.107181 8.011251 19.008682 6.883977 19.008682 5.503066 C 19.008682 4.122155 20.107181 2.994881 21.488151 2.994881 C 22.86912 2.994881 23.999005 4.122155 23.999005 5.503066 Z M 23.999005 5.503066 " transform="matrix(0.12446, 0, 0, 0.138609, 7.872468, 6.83879)"/>
<path fill-rule="nonzero" fill="rgb(97.647059%, 97.647059%, 97.647059%)" fill-opacity="1" stroke-width="2" stroke-linecap="round" stroke-linejoin="round" stroke="rgb(42.745098%, 28.235294%, 70.980392%)" stroke-opacity="1" stroke-miterlimit="4" d="M 16.497828 54.511311 L 15.713186 56.850405 L 21.205679 60.795864 L 26.729559 56.850405 L 35.36062 56.850405 L 41.637756 48.987667 L 44.650781 46.000391 L 46.345608 44.281298 L 43.991682 41.153112 L 47.914891 32.501283 L 56.357639 27.992186 L 59.715906 26.216729 L 60.500548 21.510359 L 55.008055 22.271269 L 48.699533 19.932176 L 41.637756 20.721267 L 35.015378 17.987628 L 26.007688 17.987628 L 20.421037 15.986716 L 14.143902 16.775808 L 9.43605 15.225806 L 5.51284 19.932176 L 8.651408 25.427637 L 11.789976 26.216729 L 16.497828 26.216729 L 17.910183 27.992186 L 14.928544 31.712191 L 14.928544 37.207652 L 11.789976 39.574928 L 13.202332 46.000391 L 13.35926 46.648573 L 11.005334 52.144035 Z M 16.497828 54.511311 " transform="matrix(0.12446, 0, 0, 0.138609, 7.872468, 6.83879)"/>
<path fill="none" stroke-width="2" stroke-linecap="butt" stroke-linejoin="round" stroke="rgb(42.745098%, 28.235294%, 70.980392%)" stroke-opacity="1" stroke-miterlimit="4" d="M 44.996023 46.000391 L 13.014017 46.000391 " transform="matrix(0.12446, 0, 0, 0.138609, 7.872468, 6.83879)"/>
<path fill="none" stroke-width="2" stroke-linecap="butt" stroke-linejoin="round" stroke="rgb(42.745098%, 28.235294%, 70.980392%)" stroke-opacity="1" stroke-miterlimit="4" d="M 18.00434 27.992186 L 56.012396 27.992186 " transform="matrix(0.12446, 0, 0, 0.138609, 7.872468, 6.83879)"/>
<path fill-rule="nonzero" fill="rgb(0%, 0%, 0%)" fill-opacity="1" stroke-width="0.933712" stroke-linecap="butt" stroke-linejoin="miter" stroke="rgb(43.137255%, 28.627451%, 78.431373%)" stroke-opacity="1" stroke-miterlimit="4" d="M 24.249507 21.36745 L 26.450159 22.842623 C 26.885932 23.120554 27.474226 23.035036 27.801055 22.60745 L 30.807888 18.609519 L 29.195528 17.390898 L 26.776989 20.640553 L 24.554548 19.165381 C 24.096986 18.866071 23.508693 18.972967 23.181863 19.421933 L 20.000721 23.86883 L 20.000721 16.001243 L 17.996166 16.001243 L 17.996166 26.006761 C 17.996166 27.097106 18.8895 27.995037 20.000721 27.995037 L 30.001708 27.995037 L 30.001708 26.006761 L 20.937633 26.006761 Z M 24.249507 21.36745 " transform="matrix(0.179279, 0, 0, 0.182712, 16.9846, 9.498261)"/>
<path fill-rule="nonzero" fill="rgb(0%, 0%, 0%)" fill-opacity="1" stroke-width="0.933712" stroke-linecap="butt" stroke-linejoin="miter" stroke="rgb(43.137255%, 28.627451%, 78.431373%)" stroke-opacity="1" stroke-miterlimit="4" d="M 2.003302 21.004002 L 15.991611 21.004002 L 15.991611 22.992278 L 2.003302 22.992278 Z M 2.003302 21.004002 " transform="matrix(0.179279, 0, 0, 0.182712, 16.9846, 9.498261)"/>
<path fill-rule="nonzero" fill="rgb(0%, 0%, 0%)" fill-opacity="1" stroke-width="0.933712" stroke-linecap="butt" stroke-linejoin="miter" stroke="rgb(43.137255%, 28.627451%, 78.431373%)" stroke-opacity="1" stroke-miterlimit="4" d="M 2.003302 26.006761 L 15.991611 26.006761 L 15.991611 27.995037 L 2.003302 27.995037 Z M 2.003302 26.006761 " transform="matrix(0.179279, 0, 0, 0.182712, 16.9846, 9.498261)"/>
<path fill-rule="nonzero" fill="rgb(0%, 0%, 0%)" fill-opacity="1" stroke-width="0.933712" stroke-linecap="butt" stroke-linejoin="miter" stroke="rgb(43.137255%, 28.627451%, 78.431373%)" stroke-opacity="1" stroke-miterlimit="4" d="M 11.002012 16.001243 L 11.002012 10.998484 L 12.004289 10.998484 C 14.204942 10.998484 15.991611 9.202621 15.991611 7.000552 L 15.991611 4.007449 L 13.006567 4.007449 C 11.982501 4.007449 11.002012 4.392276 10.261198 5.097793 C 9.193554 3.195035 7.188999 1.997793 5.010135 1.997793 L 2.003302 1.997793 L 2.003302 4.990897 C 2.003302 8.30469 4.683305 10.998484 7.995179 10.998484 L 8.997457 10.998484 L 8.997457 16.001243 L 2.003302 16.001243 L 2.003302 17.989519 L 15.991611 17.989519 L 15.991611 16.001243 Z M 13.006567 5.995725 L 14.008844 5.995725 L 14.008844 7.000552 C 14.008844 8.112276 13.093721 8.988828 12.004289 9.010208 L 11.002012 9.010208 L 11.002012 8.00538 C 11.002012 6.893656 11.895346 5.995725 13.006567 5.995725 Z M 7.995179 9.010208 C 5.794526 8.988828 4.007857 7.214345 4.007857 4.990897 L 4.007857 4.007449 L 5.010135 4.007449 C 7.210788 4.007449 8.997457 5.781931 8.997457 8.00538 L 8.997457 9.010208 Z M 7.995179 9.010208 " transform="matrix(0.179279, 0, 0, 0.182712, 16.9846, 9.498261)"/>
<path fill="none" stroke-width="0.933712" stroke-linecap="butt" stroke-linejoin="miter" stroke="rgb(43.137255%, 28.627451%, 78.431373%)" stroke-opacity="1" stroke-miterlimit="4" d="M -0.00125285 0.00951713 L 32.006263 0.00951713 L 32.006263 31.992968 L -0.00125285 31.992968 Z M -0.00125285 0.00951713 " transform="matrix(0.179279, 0, 0, 0.182712, 16.9846, 9.498261)"/>
<path fill="none" stroke-width="1.28902" stroke-linecap="round" stroke-linejoin="miter" stroke="rgb(43.137255%, 28.627451%, 78.431373%)" stroke-opacity="1" stroke-miterlimit="4" d="M 683.072917 483.723958 C 680.46875 482.8125 678.255208 480.729167 677.34375 478.385417 L 676.822917 477.083333 L 676.692708 447.135417 L 676.692708 417.057292 L 682.8125 417.057292 L 682.942708 444.010417 L 682.942708 471.09375 L 695.052083 453.776042 C 701.692708 444.270833 707.552083 436.197917 707.8125 435.9375 C 708.854167 435.15625 710.15625 435.15625 711.588542 436.067708 C 712.239583 436.458333 715.885417 438.932292 719.791667 441.536458 C 723.697917 444.270833 726.822917 446.354167 726.953125 446.223958 C 727.734375 444.921875 741.145833 426.953125 741.276042 426.953125 C 741.666667 426.822917 745.963542 430.46875 745.963542 430.598958 C 745.703125 431.25 730.078125 452.213542 729.427083 452.864583 C 728.776042 453.515625 728.385417 453.645833 727.604167 453.645833 C 726.432292 453.645833 727.083333 454.036458 714.453125 445.442708 L 710.286458 442.708333 L 698.046875 460.15625 C 691.276042 469.791667 685.807292 477.734375 685.807292 477.734375 C 685.807292 477.864583 698.567708 477.864583 714.192708 477.864583 L 742.578125 477.864583 L 742.578125 484.114583 L 713.151042 484.114583 C 689.583333 484.114583 683.723958 483.984375 683.072917 483.723958 Z M 683.072917 483.723958 " transform="matrix(0.03, 0, 0, 0.03, 0, 0)"/>
<path fill-rule="nonzero" fill="rgb(100%, 100%, 100%)" fill-opacity="1" d="M 20.492188 14.511719 C 20.414062 14.484375 20.347656 14.421875 20.320312 14.351562 L 20.304688 14.3125 L 20.300781 13.414062 L 20.300781 12.511719 L 20.484375 12.511719 L 20.488281 13.320312 L 20.488281 14.132812 L 20.851562 13.613281 C 21.050781 13.328125 21.226562 13.085938 21.234375 13.078125 C 21.265625 13.054688 21.304688 13.054688 21.347656 13.082031 C 21.367188 13.09375 21.476562 13.167969 21.59375 13.246094 C 21.710938 13.328125 21.804688 13.390625 21.808594 13.386719 C 21.832031 13.347656 22.234375 12.808594 22.238281 12.808594 C 22.25 12.804688 22.378906 12.914062 22.378906 12.917969 C 22.371094 12.9375 21.902344 13.566406 21.882812 13.585938 C 21.863281 13.605469 21.851562 13.609375 21.828125 13.609375 C 21.792969 13.609375 21.8125 13.621094 21.433594 13.363281 L 21.308594 13.28125 L 20.941406 13.804688 C 20.738281 14.09375 20.574219 14.332031 20.574219 14.332031 C 20.574219 14.335938 20.957031 14.335938 21.425781 14.335938 L 22.277344 14.335938 L 22.277344 14.523438 L 21.394531 14.523438 C 20.6875 14.523438 20.511719 14.519531 20.492188 14.511719 Z M 20.492188 14.511719 "/>
<path fill="none" stroke-width="1.28902" stroke-linecap="round" stroke-linejoin="miter" stroke="rgb(43.137255%, 28.627451%, 78.431373%)" stroke-opacity="1" stroke-miterlimit="4" d="M 580.989583 480.989583 L 580.989583 477.864583 L 658.854167 477.864583 L 658.854167 484.114583 L 580.989583 484.114583 Z M 580.989583 480.989583 " transform="matrix(0.03, 0, 0, 0.03, 0, 0)"/>
<path fill-rule="nonzero" fill="rgb(100%, 100%, 100%)" fill-opacity="1" d="M 17.429688 14.429688 L 17.429688 14.335938 L 19.765625 14.335938 L 19.765625 14.523438 L 17.429688 14.523438 Z M 17.429688 14.429688 "/>
<path fill="none" stroke-width="1.28902" stroke-linecap="round" stroke-linejoin="miter" stroke="rgb(43.137255%, 28.627451%, 78.431373%)" stroke-opacity="1" stroke-miterlimit="4" d="M 580.989583 450.520833 L 580.989583 447.526042 L 658.854167 447.526042 L 658.854167 453.645833 L 580.989583 453.645833 Z M 580.989583 450.520833 " transform="matrix(0.03, 0, 0, 0.03, 0, 0)"/>
<path fill-rule="nonzero" fill="rgb(100%, 100%, 100%)" fill-opacity="1" d="M 17.429688 13.515625 L 17.429688 13.425781 L 19.765625 13.425781 L 19.765625 13.609375 L 17.429688 13.609375 Z M 17.429688 13.515625 "/>
<path fill="none" stroke-width="0.911472" stroke-linecap="round" stroke-linejoin="miter" stroke="rgb(43.137255%, 28.627451%, 78.431373%)" stroke-opacity="1" stroke-miterlimit="4" d="M 580.859375 420.182292 L 580.859375 416.927083 L 622.786458 416.927083 L 622.786458 380.729167 L 616.40625 380.598958 C 611.458333 380.598958 609.765625 380.46875 608.723958 380.208333 C 600.651042 378.645833 594.53125 375.260417 589.192708 369.140625 C 585.807292 365.364583 583.072917 359.895833 581.901042 354.817708 C 581.119792 351.302083 580.989583 350.520833 580.989583 340.755208 L 580.859375 331.640625 L 589.84375 331.640625 C 599.479167 331.770833 600.390625 331.770833 603.90625 332.682292 C 609.375 334.114583 614.84375 337.239583 619.010417 341.276042 C 621.614583 343.880208 623.4375 346.484375 625.520833 350.260417 C 626.041667 351.432292 626.692708 352.34375 626.692708 352.34375 C 626.822917 352.34375 627.864583 351.432292 628.90625 350.390625 C 631.901042 347.526042 634.114583 346.09375 637.369792 344.921875 C 640.364583 344.010417 641.145833 343.880208 650.520833 343.880208 L 658.854167 343.880208 L 658.854167 352.34375 C 658.854167 361.458333 658.854167 362.5 657.942708 365.364583 C 657.421875 367.1875 656.25 369.661458 655.208333 371.354167 C 652.083333 375.911458 647.526042 378.90625 641.927083 380.338542 C 641.015625 380.46875 639.713542 380.598958 634.895833 380.598958 L 628.90625 380.729167 L 628.90625 416.927083 L 658.854167 416.927083 L 658.854167 423.4375 L 580.859375 423.4375 Z M 622.786458 369.140625 C 622.786458 366.276042 622.786458 363.28125 622.65625 362.369792 C 621.875 356.119792 619.270833 350.390625 614.84375 345.963542 C 611.458333 342.578125 607.682292 340.364583 602.994792 339.0625 C 600.390625 338.28125 598.697917 338.151042 592.708333 338.151042 L 587.239583 338.151042 L 587.239583 344.401042 C 587.369792 350.390625 587.369792 350.78125 587.760417 352.604167 C 590.104167 363.28125 598.046875 371.484375 608.333333 373.697917 C 610.677083 374.21875 611.848958 374.348958 617.447917 374.348958 L 622.786458 374.348958 Z M 641.536458 373.828125 C 645.703125 372.786458 649.088542 369.921875 651.041667 366.015625 C 652.473958 363.020833 652.604167 362.369792 652.734375 355.859375 L 652.734375 350.260417 L 647.005208 350.260417 C 641.40625 350.390625 641.276042 350.390625 639.84375 350.78125 C 635.677083 352.083333 632.552083 354.817708 630.598958 358.59375 C 629.166667 361.588542 628.90625 363.020833 628.90625 369.921875 L 628.90625 374.348958 L 634.635417 374.348958 C 639.713542 374.21875 640.364583 374.21875 641.536458 373.828125 Z M 641.536458 373.828125 " transform="matrix(0.03, 0, 0, 0.03, 0, 0)"/>
<path fill-rule="nonzero" fill="rgb(100%, 100%, 100%)" fill-opacity="1" d="M 17.425781 12.605469 L 17.425781 12.507812 L 18.683594 12.507812 L 18.683594 11.421875 L 18.492188 11.417969 C 18.34375 11.417969 18.292969 11.414062 18.261719 11.40625 C 18.019531 11.359375 17.835938 11.257812 17.675781 11.074219 C 17.574219 10.960938 17.492188 10.796875 17.457031 10.644531 C 17.433594 10.539062 17.429688 10.515625 17.429688 10.222656 L 17.425781 9.949219 L 17.695312 9.949219 C 17.984375 9.953125 18.011719 9.953125 18.117188 9.980469 C 18.28125 10.023438 18.445312 10.117188 18.570312 10.238281 C 18.648438 10.316406 18.703125 10.394531 18.765625 10.507812 C 18.78125 10.542969 18.800781 10.570312 18.800781 10.570312 C 18.804688 10.570312 18.835938 10.542969 18.867188 10.511719 C 18.957031 10.425781 19.023438 10.382812 19.121094 10.347656 C 19.210938 10.320312 19.234375 10.316406 19.515625 10.316406 L 19.765625 10.316406 L 19.765625 10.570312 C 19.765625 10.84375 19.765625 10.875 19.738281 10.960938 C 19.722656 11.015625 19.6875 11.089844 19.65625 11.140625 C 19.5625 11.277344 19.425781 11.367188 19.257812 11.410156 C 19.230469 11.414062 19.191406 11.417969 19.046875 11.417969 L 18.867188 11.421875 L 18.867188 12.507812 L 19.765625 12.507812 L 19.765625 12.703125 L 17.425781 12.703125 Z M 18.683594 11.074219 C 18.683594 10.988281 18.683594 10.898438 18.679688 10.871094 C 18.65625 10.683594 18.578125 10.511719 18.445312 10.378906 C 18.34375 10.277344 18.230469 10.210938 18.089844 10.171875 C 18.011719 10.148438 17.960938 10.144531 17.78125 10.144531 L 17.617188 10.144531 L 17.617188 10.332031 C 17.621094 10.511719 17.621094 10.523438 17.632812 10.578125 C 17.703125 10.898438 17.941406 11.144531 18.25 11.210938 C 18.320312 11.226562 18.355469 11.230469 18.523438 11.230469 L 18.683594 11.230469 Z M 19.246094 11.214844 C 19.371094 11.183594 19.472656 11.097656 19.53125 10.980469 C 19.574219 10.890625 19.578125 10.871094 19.582031 10.675781 L 19.582031 10.507812 L 19.410156 10.507812 C 19.242188 10.511719 19.238281 10.511719 19.195312 10.523438 C 19.070312 10.5625 18.976562 10.644531 18.917969 10.757812 C 18.875 10.847656 18.867188 10.890625 18.867188 11.097656 L 18.867188 11.230469 L 19.039062 11.230469 C 19.191406 11.226562 19.210938 11.226562 19.246094 11.214844 Z M 19.246094 11.214844 "/>
<path fill-rule="nonzero" fill="rgb(0%, 0%, 0%)" fill-opacity="1" stroke-width="1" stroke-linecap="butt" stroke-linejoin="miter" stroke="rgb(43.137255%, 28.627451%, 78.431373%)" stroke-opacity="1" stroke-miterlimit="4" d="M 28.001226 19.999698 L 25.991748 19.999698 L 25.991748 21.998656 L 28.001226 21.998656 L 28.001226 27.995531 L 3.990012 27.995531 L 3.990012 21.998656 L 5.99949 21.998656 L 5.99949 19.999698 L 3.990012 19.999698 C 2.903253 19.999698 2.001039 20.890323 2.001039 21.998656 L 2.001039 27.995531 C 2.001039 29.103865 2.903253 29.99449 3.990012 29.99449 L 28.001226 29.99449 C 29.10849 29.99449 29.9902 29.103865 29.9902 27.995531 L 29.9902 21.998656 C 29.9902 20.890323 29.10849 19.999698 28.001226 19.999698 Z M 28.001226 19.999698 " transform="matrix(0.190503, 0, 0, 0.197368, 0.943014, 8.591754)"/>
<path fill-rule="nonzero" fill="rgb(0%, 0%, 0%)" fill-opacity="1" stroke-width="1" stroke-linecap="butt" stroke-linejoin="miter" stroke="rgb(43.137255%, 28.627451%, 78.431373%)" stroke-opacity="1" stroke-miterlimit="4" d="M 8.008968 25.00699 C 8.008968 25.561156 7.557861 25.996573 7.004229 25.996573 C 6.450597 25.996573 5.99949 25.561156 5.99949 25.00699 C 5.99949 24.452823 6.450597 23.997615 7.004229 23.997615 C 7.557861 23.997615 8.008968 24.452823 8.008968 25.00699 Z M 8.008968 25.00699 " transform="matrix(0.190503, 0, 0, 0.197368, 0.943014, 8.591754)"/>
<path fill-rule="nonzero" fill="rgb(0%, 0%, 0%)" fill-opacity="1" stroke-width="1" stroke-linecap="butt" stroke-linejoin="miter" stroke="rgb(43.137255%, 28.627451%, 78.431373%)" stroke-opacity="1" stroke-miterlimit="4" d="M 16.005872 21.998656 C 15.841833 21.998656 15.698298 21.959073 15.554764 21.899698 L 5.548383 16.892407 L 6.450597 15.111157 L 16.005872 19.880948 L 25.561146 15.111157 L 26.442856 16.892407 L 16.456979 21.899698 C 16.313445 21.959073 16.149406 21.998656 16.005872 21.998656 Z M 16.005872 21.998656 " transform="matrix(0.190503, 0, 0, 0.197368, 0.943014, 8.591754)"/>
<path fill-rule="nonzero" fill="rgb(0%, 0%, 0%)" fill-opacity="1" stroke-width="1" stroke-linecap="butt" stroke-linejoin="miter" stroke="rgb(43.137255%, 28.627451%, 78.431373%)" stroke-opacity="1" stroke-miterlimit="4" d="M 16.005872 16.001782 C 15.841833 16.001782 15.698298 15.962198 15.554764 15.902823 L 5.548383 10.895532 C 5.220305 10.717407 4.994751 10.380948 4.994751 10.004907 C 4.994751 9.628865 5.220305 9.272615 5.548383 9.114282 L 15.554764 4.10699 C 15.841833 3.968449 16.169911 3.968449 16.456979 4.10699 L 26.442856 9.114282 C 26.791439 9.272615 26.996487 9.628865 26.996487 10.004907 C 26.996487 10.380948 26.791439 10.717407 26.442856 10.895532 L 16.456979 15.902823 C 16.313445 15.962198 16.149406 16.001782 16.005872 16.001782 Z M 8.234522 10.004907 L 16.005872 13.884073 L 23.756716 10.004907 L 16.005872 6.12574 Z M 8.234522 10.004907 " transform="matrix(0.190503, 0, 0, 0.197368, 0.943014, 8.591754)"/>
<path fill="none" stroke-width="1" stroke-linecap="butt" stroke-linejoin="miter" stroke="rgb(43.137255%, 28.627451%, 78.431373%)" stroke-opacity="1" stroke-miterlimit="4" d="M -0.00843974 -0.00967627 L 31.999678 -0.00967627 L 31.999678 31.993448 L -0.00843974 31.993448 Z M -0.00843974 -0.00967627 " transform="matrix(0.190503, 0, 0, 0.197368, 0.943014, 8.591754)"/>
<path fill="none" stroke-width="3.64589" stroke-linecap="round" stroke-linejoin="miter" stroke="rgb(43.137255%, 28.627451%, 78.431373%)" stroke-opacity="1" stroke-miterlimit="4" d="M 52.213542 478.645833 C 51.171875 477.994792 49.739583 476.5625 49.088542 475.520833 C 47.916667 473.697917 47.916667 472.265625 48.046875 450.260417 L 48.177083 426.822917 L 50.651042 424.479167 L 53.125 422.005208 L 59.505208 421.744792 L 66.015625 421.614583 L 66.015625 427.473958 L 53.125 427.473958 L 53.125 474.088542 L 212.890625 474.088542 L 212.890625 427.473958 L 200 427.473958 L 200 421.614583 L 206.510417 421.744792 L 213.020833 422.005208 L 215.494792 424.609375 C 218.75 428.125 218.880208 429.947917 218.619792 454.296875 C 218.489583 471.744792 218.359375 473.307292 217.1875 475.260417 C 216.40625 476.432292 214.973958 477.994792 213.802083 478.645833 C 211.848958 479.947917 209.765625 479.947917 132.942708 479.947917 C 56.380208 479.947917 54.036458 479.817708 52.213542 478.645833 Z M 52.213542 478.645833 " transform="matrix(0.03, 0, 0, 0.03, 0, 0)"/>
<path fill-rule="nonzero" fill="rgb(100%, 100%, 100%)" fill-opacity="1" d="M 1.566406 14.359375 C 1.535156 14.339844 1.492188 14.296875 1.472656 14.265625 C 1.4375 14.210938 1.4375 14.167969 1.441406 13.507812 L 1.445312 12.804688 L 1.519531 12.734375 L 1.59375 12.660156 L 1.785156 12.652344 L 1.980469 12.648438 L 1.980469 12.824219 L 1.59375 12.824219 L 1.59375 14.222656 L 6.386719 14.222656 L 6.386719 12.824219 L 6 12.824219 L 6 12.648438 L 6.195312 12.652344 L 6.390625 12.660156 L 6.464844 12.738281 C 6.5625 12.84375 6.566406 12.898438 6.558594 13.628906 C 6.554688 14.152344 6.550781 14.199219 6.515625 14.257812 C 6.492188 14.292969 6.449219 14.339844 6.414062 14.359375 C 6.355469 14.398438 6.292969 14.398438 3.988281 14.398438 C 1.691406 14.398438 1.621094 14.394531 1.566406 14.359375 Z M 1.566406 14.359375 "/>
<path fill="none" stroke-width="0.911472" stroke-linecap="round" stroke-linejoin="miter" stroke="rgb(43.137255%, 28.627451%, 78.431373%)" stroke-opacity="1" stroke-miterlimit="4" d="M 75 453.90625 C 73.177083 453.255208 72.265625 451.171875 73.177083 449.479167 C 73.828125 447.916667 75.520833 447.265625 77.083333 447.916667 C 78.90625 448.697917 79.557292 451.041667 78.385417 452.734375 C 77.604167 453.776042 76.171875 454.296875 75 453.90625 Z M 75 453.90625 " transform="matrix(0.03, 0, 0, 0.03, 0, 0)"/>
<path fill-rule="nonzero" fill="rgb(100%, 100%, 100%)" fill-opacity="1" d="M 2.25 13.617188 C 2.195312 13.597656 2.167969 13.535156 2.195312 13.484375 C 2.214844 13.4375 2.265625 13.417969 2.3125 13.4375 C 2.367188 13.460938 2.386719 13.53125 2.351562 13.582031 C 2.328125 13.613281 2.285156 13.628906 2.25 13.617188 Z M 2.25 13.617188 "/>
<path fill="none" stroke-width="2.57803" stroke-linecap="round" stroke-linejoin="miter" stroke="rgb(43.137255%, 28.627451%, 78.431373%)" stroke-opacity="1" stroke-miterlimit="4" d="M 102.213542 411.979167 C 85.416667 403.255208 71.744792 396.09375 71.614583 395.963542 C 71.354167 395.833333 73.307292 391.40625 73.958333 390.755208 C 73.958333 390.625 87.239583 397.395833 103.255208 405.729167 C 119.401042 414.0625 132.682292 420.963542 132.942708 420.963542 C 133.203125 420.963542 145.3125 414.84375 160.026042 407.161458 C 174.609375 399.609375 187.760417 392.838542 189.322917 392.057292 L 192.1875 390.625 L 193.489583 393.229167 L 194.921875 395.963542 L 164.453125 411.71875 C 147.65625 420.3125 133.723958 427.473958 133.203125 427.604167 C 132.8125 427.604167 118.880208 420.572917 102.213542 411.979167 Z M 102.213542 411.979167 " transform="matrix(0.03, 0, 0, 0.03, 0, 0)"/>
<path fill-rule="nonzero" fill="rgb(100%, 100%, 100%)" fill-opacity="1" d="M 3.066406 12.359375 C 2.5625 12.097656 2.152344 11.882812 2.148438 11.878906 C 2.140625 11.875 2.199219 11.742188 2.21875 11.722656 C 2.21875 11.71875 2.617188 11.921875 3.097656 12.171875 C 3.582031 12.421875 3.980469 12.628906 3.988281 12.628906 C 3.996094 12.628906 4.359375 12.445312 4.800781 12.214844 C 5.238281 11.988281 5.632812 11.785156 5.679688 11.761719 L 5.765625 11.71875 L 5.804688 11.796875 L 5.847656 11.878906 L 4.933594 12.351562 C 4.429688 12.609375 4.011719 12.824219 3.996094 12.828125 C 3.984375 12.828125 3.566406 12.617188 3.066406 12.359375 Z M 3.066406 12.359375 "/>
<path fill="none" stroke-width="5.15606" stroke-linecap="round" stroke-linejoin="miter" stroke="rgb(43.137255%, 28.627451%, 78.431373%)" stroke-opacity="1" stroke-miterlimit="4" d="M 111.848958 362.630208 C 101.171875 357.03125 92.838542 352.213542 93.098958 351.822917 C 93.489583 351.432292 102.604167 346.614583 113.411458 341.015625 L 133.072917 330.859375 L 152.734375 341.015625 C 163.671875 346.614583 172.786458 351.5625 173.177083 351.822917 C 173.958333 352.473958 134.505208 373.046875 132.682292 372.916667 C 131.901042 372.916667 122.65625 368.229167 111.848958 362.630208 Z M 111.848958 362.630208 " transform="matrix(0.03, 0, 0, 0.03, 0, 0)"/>
<path fill-rule="nonzero" fill="rgb(100%, 100%, 100%)" fill-opacity="1" d="M 3.355469 10.878906 C 3.035156 10.710938 2.785156 10.566406 2.792969 10.554688 C 2.804688 10.542969 3.078125 10.398438 3.402344 10.230469 L 3.992188 9.925781 L 4.582031 10.230469 C 4.910156 10.398438 5.183594 10.546875 5.195312 10.554688 C 5.21875 10.574219 4.035156 11.191406 3.980469 11.1875 C 3.957031 11.1875 3.679688 11.046875 3.355469 10.878906 Z M 3.355469 10.878906 "/>
<path fill="none" stroke-width="1.28902" stroke-linecap="round" stroke-linejoin="miter" stroke="rgb(43.137255%, 28.627451%, 78.431373%)" stroke-opacity="1" stroke-miterlimit="4" d="M 100 371.484375 C 82.421875 362.369792 67.708333 354.6875 67.317708 354.296875 C 66.276042 353.125 66.276042 351.171875 67.447917 350 C 68.359375 349.088542 131.640625 316.40625 132.8125 316.145833 C 133.723958 316.015625 131.380208 314.84375 172.526042 336.197917 C 200.911458 350.911458 199.479167 350.130208 199.479167 352.213542 C 199.479167 353.385417 198.828125 354.427083 197.65625 355.078125 C 197.135417 355.46875 182.682292 362.890625 165.494792 371.875 C 140.364583 384.765625 133.984375 388.020833 133.203125 388.151042 C 132.161458 388.151042 130.598958 387.5 100 371.484375 Z M 166.015625 364.453125 C 178.90625 357.8125 189.322917 352.34375 189.322917 352.213542 C 189.322917 352.083333 178.645833 346.484375 165.625 339.713542 C 152.473958 332.942708 139.84375 326.302083 137.369792 325.130208 L 133.072917 322.786458 L 104.947917 337.369792 C 89.453125 345.442708 76.822917 352.083333 76.822917 352.213542 C 76.822917 352.34375 89.453125 358.984375 104.947917 366.927083 L 133.072917 381.510417 L 137.890625 379.036458 C 140.494792 377.734375 153.125 371.09375 166.015625 364.453125 Z M 166.015625 364.453125 " transform="matrix(0.03, 0, 0, 0.03, 0, 0)"/>
<path fill-rule="nonzero" fill="rgb(100%, 100%, 100%)" fill-opacity="1" d="M 3 11.144531 C 2.472656 10.871094 2.03125 10.640625 2.019531 10.628906 C 1.988281 10.59375 1.988281 10.535156 2.023438 10.5 C 2.050781 10.472656 3.949219 9.492188 3.984375 9.484375 C 4.011719 9.480469 3.941406 9.445312 5.175781 10.085938 C 6.027344 10.527344 5.984375 10.503906 5.984375 10.566406 C 5.984375 10.601562 5.964844 10.632812 5.929688 10.652344 C 5.914062 10.664062 5.480469 10.886719 4.964844 11.15625 C 4.210938 11.542969 4.019531 11.640625 3.996094 11.644531 C 3.964844 11.644531 3.917969 11.625 3 11.144531 Z M 4.980469 10.933594 C 5.367188 10.734375 5.679688 10.570312 5.679688 10.566406 C 5.679688 10.5625 5.359375 10.394531 4.96875 10.191406 C 4.574219 9.988281 4.195312 9.789062 4.121094 9.753906 L 3.992188 9.683594 L 3.148438 10.121094 C 2.683594 10.363281 2.304688 10.5625 2.304688 10.566406 C 2.304688 10.570312 2.683594 10.769531 3.148438 11.007812 L 3.992188 11.445312 L 4.136719 11.371094 C 4.214844 11.332031 4.59375 11.132812 4.980469 10.933594 Z M 4.980469 10.933594 "/>
</svg>
