<!-- Uploaded to: SVG Repo, www.svgrepo.com, Generator: SVG Repo Mixer Tools -->
<svg xmlns="http://www.w3.org/2000/svg" xmlns:xlink="http://www.w3.org/1999/xlink" width="24" height="24" viewBox="0 0 24 24">
<path fill-rule="nonzero" fill="rgb(3.529412%, 14.117647%, 29.411765%)" fill-opacity="1" d="M 8.109375 7.0625 C 7.523438 6.476562 7.523438 5.523438 8.109375 4.9375 L 10.867188 2.179688 C 11.492188 1.558594 12.507812 1.558594 13.132812 2.179688 L 15.890625 4.9375 C 16.476562 5.523438 16.476562 6.476562 15.890625 7.0625 C 15.304688 7.644531 14.351562 7.644531 13.769531 7.0625 L 13.5 6.792969 L 13.5 10.5 L 17.207031 10.5 L 16.9375 10.230469 C 16.351562 9.644531 16.351562 8.695312 16.9375 8.109375 C 17.523438 7.523438 18.476562 7.523438 19.0625 8.109375 L 21.816406 10.867188 C 22.441406 11.492188 22.441406 12.507812 21.816406 13.132812 L 19.0625 15.890625 C 18.476562 16.476562 17.523438 16.476562 16.9375 15.890625 C 16.351562 15.304688 16.351562 14.351562 16.9375 13.769531 L 17.207031 13.5 L 13.5 13.5 L 13.5 17.207031 L 13.769531 16.9375 C 14.351562 16.351562 15.304688 16.351562 15.890625 16.9375 C 16.476562 17.523438 16.476562 18.476562 15.890625 19.0625 L 13.132812 21.816406 C 12.507812 22.441406 11.492188 22.441406 10.867188 21.816406 L 8.109375 19.0625 C 7.523438 18.476562 7.523438 17.523438 8.109375 16.9375 C 8.695312 16.351562 9.644531 16.351562 10.230469 16.9375 L 10.5 17.207031 L 10.5 13.5 L 6.792969 13.5 L 7.0625 13.769531 C 7.644531 14.351562 7.644531 15.304688 7.0625 15.890625 C 6.476562 16.476562 5.523438 16.476562 4.9375 15.890625 L 2.179688 13.132812 C 1.558594 12.507812 1.558594 11.492188 2.179688 10.867188 L 4.9375 8.109375 C 5.523438 7.523438 6.476562 7.523438 7.0625 8.109375 C 7.644531 8.695312 7.644531 9.644531 7.0625 10.230469 L 6.792969 10.5 L 10.5 10.5 L 10.5 6.792969 L 10.230469 7.0625 C 9.644531 7.644531 8.695312 7.644531 8.109375 7.0625 Z M 8.109375 7.0625 "/>
</svg>
