<!-- Uploaded to: SVG Repo, www.svgrepo.com, Generator: SVG Repo Mixer Tools -->
<svg xmlns="http://www.w3.org/2000/svg" xmlns:xlink="http://www.w3.org/1999/xlink" width="24" height="24" viewBox="0 0 24 24">
<path fill-rule="nonzero" fill="rgb(3.529412%, 14.117647%, 29.411765%)" fill-opacity="1" d="M 14.011719 4.625 C 15.625 6.40625 16.15625 8.820312 15.609375 11.015625 L 15.539062 11.28125 L 18.9375 15.652344 C 19.539062 16.421875 19.660156 17.421875 19.324219 18.285156 C 19.445312 18.316406 19.570312 18.320312 19.695312 18.300781 L 19.816406 18.269531 C 20.339844 18.09375 20.90625 18.378906 21.082031 18.902344 C 21.253906 19.425781 20.972656 19.992188 20.449219 20.164062 C 19.640625 20.433594 18.941406 20.300781 18.457031 20.09375 C 18.261719 20.007812 18.070312 19.90625 17.898438 19.777344 C 17.074219 20.144531 16.097656 20.078125 15.316406 19.558594 L 15.152344 19.4375 L 10.78125 16.039062 C 8.511719 16.699219 5.980469 16.1875 4.125 14.511719 C 6.207031 13.496094 8.160156 12.125 9.890625 10.394531 C 11.621094 8.664062 12.996094 6.710938 14.011719 4.625 Z M 12.417969 3.3125 C 11.480469 5.367188 10.167969 7.289062 8.476562 8.980469 C 6.785156 10.667969 4.863281 11.984375 2.8125 12.921875 C 1.195312 10.230469 1.546875 6.6875 3.867188 4.367188 C 6.1875 2.050781 9.730469 1.699219 12.417969 3.3125 Z M 12.417969 3.3125 "/>
</svg>
