<!-- Uploaded to: SVG Repo, www.svgrepo.com, Transformed by: SVG Repo Mixer Tools -->
<svg xmlns="http://www.w3.org/2000/svg" xmlns:xlink="http://www.w3.org/1999/xlink" width="24" height="24" viewBox="0 0 24 24">
<rect x="-2.4" y="-2.4" width="28.8" height="28.8" fill="rgb(100%, 100%, 100%)" fill-opacity="0.01"/>
<path fill="none" stroke-width="4" stroke-linecap="round" stroke-linejoin="miter" stroke="rgb(100%, 100%, 100%)" stroke-opacity="1" stroke-miterlimit="4" d="M 20 14 L 20 5 C 20 4.445312 19.554688 4 19 4 L 5 4 C 4.445312 4 4 4.445312 4 5 L 4 43 C 4 43.554688 4.445312 44 5 44 L 19 44 C 19.554688 44 20 43.554688 20 43 L 20 34 " transform="matrix(0.5, 0, 0, 0.5, 0, 0)"/>
<path fill="none" stroke-width="4" stroke-linecap="round" stroke-linejoin="miter" stroke="rgb(100%, 100%, 100%)" stroke-opacity="1" stroke-miterlimit="4" d="M 28 34 L 28 43 C 28 43.554688 28.445312 44 29 44 L 43 44 C 43.554688 44 44 43.554688 44 43 L 44 5 C 44 4.445312 43.554688 4 43 4 L 29 4 C 28.445312 4 28 4.445312 28 5 L 28 14 " transform="matrix(0.5, 0, 0, 0.5, 0, 0)"/>
<path fill="none" stroke-width="4" stroke-linecap="round" stroke-linejoin="miter" stroke="rgb(100%, 100%, 100%)" stroke-opacity="1" stroke-miterlimit="4" d="M 28 24 L 44 24 " transform="matrix(0.5, 0, 0, 0.5, 0, 0)"/>
<path fill="none" stroke-width="4" stroke-linecap="round" stroke-linejoin="miter" stroke="rgb(100%, 100%, 100%)" stroke-opacity="1" stroke-miterlimit="4" d="M 5 24 L 20 24 " transform="matrix(0.5, 0, 0, 0.5, 0, 0)"/>
<path fill="none" stroke-width="4" stroke-linecap="round" stroke-linejoin="round" stroke="rgb(100%, 100%, 100%)" stroke-opacity="1" stroke-miterlimit="4" d="M 32.75 28.820312 L 27.976562 24.046875 L 32.75 19.273438 " transform="matrix(0.5, 0, 0, 0.5, 0, 0)"/>
<path fill="none" stroke-width="4" stroke-linecap="round" stroke-linejoin="round" stroke="rgb(100%, 100%, 100%)" stroke-opacity="1" stroke-miterlimit="4" d="M 15.375 28.820312 L 20.148438 24.046875 L 15.375 19.273438 " transform="matrix(0.5, 0, 0, 0.5, 0, 0)"/>
</svg>
