<!-- Uploaded to: SVG Repo, www.svgrepo.com, Transformed by: SVG Repo Mixer Tools -->
<svg xmlns="http://www.w3.org/2000/svg" xmlns:xlink="http://www.w3.org/1999/xlink" width="24" height="24" viewBox="0 0 24 24">
<path fill-rule="nonzero" fill="rgb(14.901961%, 63.529412%, 41.176471%)" fill-opacity="1" d="M 12 0 C 8.074219 0 4.859375 3.207031 4.859375 7.121094 C 4.859375 8.636719 5.34375 10.046875 6.164062 11.203125 L 11.128906 19.785156 C 11.824219 20.695312 12.285156 20.523438 12.863281 19.738281 L 18.339844 10.417969 C 18.453125 10.21875 18.539062 10.007812 18.613281 9.789062 C 18.960938 8.941406 19.140625 8.035156 19.140625 7.121094 C 19.140625 3.207031 15.925781 0 12 0 Z M 12 3.335938 C 14.113281 3.335938 15.792969 5.011719 15.792969 7.121094 C 15.792969 9.226562 14.113281 10.902344 12 10.902344 C 9.886719 10.902344 8.207031 9.226562 8.207031 7.121094 C 8.207031 5.011719 9.886719 3.335938 12 3.335938 Z M 12 3.335938 "/>
<path fill-rule="nonzero" fill="rgb(14.901961%, 63.529412%, 41.176471%)" fill-opacity="1" d="M 16.539062 11.738281 L 16.527344 11.769531 C 16.53125 11.757812 16.535156 11.75 16.539062 11.742188 Z M 16.539062 11.738281 "/>
<path fill-rule="nonzero" fill="rgb(14.901961%, 63.529412%, 41.176471%)" fill-opacity="1" d="M 8.160156 16.574219 C 4.769531 17.050781 2.398438 18.199219 2.398438 19.886719 C 2.398438 22.15625 6.363281 24 12 24 C 17.636719 24 21.601562 22.15625 21.601562 19.886719 C 21.601562 18.199219 19.230469 17.050781 15.839844 16.574219 L 15.371094 17.375 C 17.925781 17.726562 19.679688 18.472656 19.679688 19.335938 C 19.679688 20.550781 16.242188 21.53125 12 21.53125 C 7.757812 21.53125 4.320312 20.550781 4.320312 19.335938 C 4.320312 18.476562 6.0625 17.730469 8.625 17.375 C 8.472656 17.109375 8.316406 16.839844 8.160156 16.574219 Z M 8.160156 16.574219 "/>
</svg>
