<!-- Uploaded to: SVG Repo, www.svgrepo.com, Transformed by: SVG Repo Mixer Tools -->
<svg xmlns="http://www.w3.org/2000/svg" xmlns:xlink="http://www.w3.org/1999/xlink" width="24" height="24" viewBox="0 0 24 24">
<path fill="none" stroke-width="2" stroke-linecap="round" stroke-linejoin="miter" stroke="rgb(3.529412%, 14.117647%, 29.411765%)" stroke-opacity="1" stroke-miterlimit="4" d="M 5 8 L 10 16 "/>
<path fill="none" stroke-width="2" stroke-linecap="round" stroke-linejoin="miter" stroke="rgb(3.529412%, 14.117647%, 29.411765%)" stroke-opacity="1" stroke-miterlimit="4" d="M 18.722656 20.5 C 20.214844 17.914062 21 14.984375 21 12 C 21 9.015625 20.214844 6.085938 18.722656 3.5 "/>
<path fill="none" stroke-width="2" stroke-linecap="round" stroke-linejoin="miter" stroke="rgb(3.529412%, 14.117647%, 29.411765%)" stroke-opacity="1" stroke-miterlimit="4" d="M 14.390625 18 C 15.445312 16.175781 16 14.105469 16 12 C 16 9.894531 15.445312 7.824219 14.390625 6 "/>
<path fill="none" stroke-width="2" stroke-linecap="round" stroke-linejoin="miter" stroke="rgb(3.529412%, 14.117647%, 29.411765%)" stroke-opacity="1" stroke-miterlimit="4" d="M 9.929688 16 C 10.628906 14.785156 11 13.40625 11 12 C 11 10.59375 10.628906 9.214844 9.929688 8 "/>
<path fill="none" stroke-width="2" stroke-linecap="round" stroke-linejoin="miter" stroke="rgb(3.529412%, 14.117647%, 29.411765%)" stroke-opacity="1" stroke-miterlimit="4" d="M 5.070312 16 C 4.371094 14.785156 4 13.40625 4 12 C 4 10.59375 4.371094 9.214844 5.070312 8 "/>
</svg>
