<!-- Uploaded to: SVG Repo, www.svgrepo.com, Transformed by: SVG Repo Mixer Tools -->
<svg xmlns="http://www.w3.org/2000/svg" xmlns:xlink="http://www.w3.org/1999/xlink" width="24" height="24" viewBox="0 0 24 24">
<path fill-rule="evenodd" fill="rgb(3.529412%, 14.117647%, 29.411765%)" fill-opacity="1" d="M 1 5 C 1 3.34375 2.34375 2 4 2 L 8.558594 2 C 9.851562 2 10.996094 2.828125 11.40625 4.050781 L 11.722656 5 L 20 5 C 21.105469 5 22 5.894531 22 7 L 22 9.007812 C 23.148438 9.121094 23.980469 10.195312 23.769531 11.359375 L 22.132812 20.359375 C 21.960938 21.308594 21.132812 22 20.164062 22 L 3 22 C 1.894531 22 1 21.105469 1 20 Z M 20 9 L 20 7 L 11.722656 7 C 10.859375 7 10.09375 6.449219 9.824219 5.632812 L 9.507812 4.683594 C 9.371094 4.277344 8.988281 4 8.558594 4 L 4 4 C 3.449219 4 3 4.449219 3 5 L 3 12.269531 L 3.355469 10.589844 C 3.550781 9.664062 4.367188 9 5.3125 9 Z M 3.367188 20 C 3.417969 19.910156 3.457031 19.8125 3.480469 19.707031 L 5.3125 11 L 21.800781 11 L 20.164062 20 Z M 3.367188 20 "/>
</svg>
