<!-- Uploaded to: SVG Repo, www.svgrepo.com, Transformed by: SVG Repo Mixer Tools -->
<svg xmlns="http://www.w3.org/2000/svg" xmlns:xlink="http://www.w3.org/1999/xlink" width="24" height="24" viewBox="0 0 24 24">
<defs>
<linearGradient id="linear-pattern-0" gradientUnits="userSpaceOnUse" x1="0.853553" y1="0.853553" x2="1.85355" y2="0.853553" gradientTransform="matrix(-8.485281, -8.485281, 8.485281, -8.485281, 16.242636, 30.727911)">
<stop offset="0" stop-color="rgb(3.529412%, 14.117647%, 29.411765%)" stop-opacity="0"/>
<stop offset="1" stop-color="rgb(3.529412%, 14.117647%, 29.411765%)" stop-opacity="1"/>
</linearGradient>
</defs>
<path fill-rule="nonzero" fill="url(#linear-pattern-0)" d="M 6 6 L 8 6 L 8 8 L 10 8 L 10 6 L 12 6 L 12 8 L 14 8 L 14 6 L 16 6 L 16 8 L 18 8 L 18 10 L 16 10 L 16 12 L 18 12 L 18 14 L 16 14 L 16 16 L 18 16 L 18 18 L 16 18 L 16 16 L 14 16 L 14 18 L 12 18 L 12 16 L 10 16 L 10 18 L 8 18 L 8 16 L 6 16 L 6 14 L 8 14 L 8 12 L 6 12 L 6 10 L 8 10 L 8 8 L 6 8 Z M 16 12 L 14 12 L 14 14 L 16 14 Z M 16 8 L 14 8 L 14 10 L 16 10 Z M 14 14 L 12 14 L 12 16 L 14 16 Z M 12 14 L 12 12 L 10 12 L 10 14 Z M 10 14 L 8 14 L 8 16 L 10 16 Z M 14 10 L 12 10 L 12 12 L 14 12 Z M 12 10 L 12 8 L 10 8 L 10 10 Z M 10 10 L 8 10 L 8 12 L 10 12 Z M 10 10 "/>
</svg>
