<!-- Uploaded to: SVG Repo, www.svgrepo.com, Transformed by: SVG Repo Mixer Tools -->
<svg xmlns="http://www.w3.org/2000/svg" xmlns:xlink="http://www.w3.org/1999/xlink" width="24" height="24" viewBox="0 0 24 24">
<path fill-rule="nonzero" fill="rgb(0%, 6.666667%, 16.862745%)" fill-opacity="1" d="M 12.601562 24 L 2.398438 24 C 1.074219 24 0 22.925781 0 21.601562 L 0 7.199219 C 0 5.878906 1.078125 4.800781 2.398438 4.800781 L 3.601562 4.800781 L 3.601562 3.601562 L 6.035156 3.121094 C 6.289062 1.347656 7.808594 0.0273438 9.601562 0.0273438 C 11.390625 0.0273438 12.910156 1.347656 13.164062 3.121094 L 15.601562 3.601562 L 15.601562 4.800781 L 16.800781 4.800781 C 18.125 4.800781 19.199219 5.875 19.199219 7.199219 L 19.199219 8.398438 L 16.800781 8.398438 L 16.800781 7.199219 L 15.601562 7.199219 L 15.601562 8.398438 L 3.601562 8.398438 L 3.601562 7.199219 L 2.398438 7.199219 L 2.398438 21.601562 L 8.398438 21.601562 L 8.398438 24 Z M 9.601562 4.800781 C 10.261719 4.800781 10.800781 4.261719 10.800781 3.601562 C 10.800781 2.9375 10.261719 2.398438 9.601562 2.398438 C 8.9375 2.398438 8.398438 2.9375 8.398438 3.601562 C 8.398438 4.261719 8.9375 4.800781 9.601562 4.800781 Z M 12 9.601562 L 21.601562 9.601562 C 22.925781 9.601562 24 10.675781 24 12 L 24 21.601562 C 24 22.925781 22.925781 24 21.601562 24 L 12 24 C 10.675781 24 9.601562 22.925781 9.601562 21.601562 L 9.601562 12 C 9.601562 10.679688 10.679688 9.601562 12 9.601562 Z M 12 12 L 12 21.601562 L 21.601562 21.601562 L 21.601562 12 Z M 12 12 "/>
</svg>
