<!-- Uploaded to: SVG Repo, www.svgrepo.com, Transformed by: SVG Repo Mixer Tools -->
<svg xmlns="http://www.w3.org/2000/svg" xmlns:xlink="http://www.w3.org/1999/xlink" width="24" height="24" viewBox="0 0 24 24">
<path fill-rule="evenodd" fill="rgb(3.137255%, 1.176471%, 25.490196%)" fill-opacity="1" d="M 15.792969 1.199219 C 15.707031 1.199219 15.625 1.21875 15.546875 1.253906 L 8.199219 4.667969 L 0.851562 1.257812 C 0.667969 1.167969 0.449219 1.183594 0.277344 1.292969 C 0.105469 1.40625 0 1.59375 0 1.800781 L 0 18.667969 C 0 18.902344 0.136719 19.117188 0.347656 19.214844 L 7.945312 22.742188 C 8.027344 22.78125 8.117188 22.800781 8.207031 22.800781 C 8.292969 22.800781 8.375 22.78125 8.453125 22.746094 L 15.800781 19.332031 L 23.148438 22.742188 C 23.332031 22.832031 23.550781 22.816406 23.722656 22.707031 C 23.894531 22.59375 24 22.40625 24 22.199219 L 24 11.96875 L 22.800781 13.171875 L 22.800781 21.257812 L 16.15625 18.175781 L 16.144531 15.792969 L 15.425781 15.792969 L 15.4375 18.175781 L 8.554688 21.375 L 8.523438 15.707031 C 8.234375 15.605469 7.984375 15.421875 7.800781 15.179688 L 7.835938 21.367188 L 1.199219 18.285156 L 1.199219 2.742188 L 7.746094 5.78125 L 7.75 6.441406 C 7.925781 6.183594 8.175781 5.984375 8.464844 5.871094 L 8.464844 5.867188 L 15.347656 2.671875 L 15.367188 5.761719 L 16.085938 5.761719 L 16.066406 2.585938 L 22.800781 5.714844 L 22.800781 8.382812 L 24 9.585938 L 24 5.332031 C 24 5.097656 23.863281 4.882812 23.652344 4.785156 L 16.054688 1.257812 C 15.972656 1.21875 15.882812 1.199219 15.792969 1.199219 Z M 15.792969 1.199219 "/>
<path fill-rule="nonzero" fill="rgb(3.137255%, 1.176471%, 25.490196%)" fill-opacity="1" d="M 9.019531 6.601562 C 8.632812 6.601562 8.320312 6.914062 8.320312 7.300781 L 8.320312 14.253906 C 8.320312 14.640625 8.632812 14.953125 9.019531 14.953125 L 18.796875 14.953125 C 19.183594 14.953125 19.496094 14.640625 19.496094 14.253906 L 19.496094 7.300781 C 19.496094 6.914062 19.183594 6.601562 18.796875 6.601562 Z M 10.789062 8 L 17.050781 8 L 13.941406 10.554688 Z M 20.71875 7.484375 L 20.71875 14.074219 L 24 10.777344 Z M 9.71875 8.601562 L 13.648438 11.785156 C 13.828125 11.929688 14.066406 11.929688 14.242188 11.78125 L 18.101562 8.613281 L 18.101562 13.554688 L 9.71875 13.554688 Z M 9.71875 8.601562 "/>
</svg>
