<?xml version="1.0" encoding="UTF-8" standalone="no"?>
<!-- Uploaded to: SVG Repo, www.svgrepo.com, Transformed by: SVG Repo Mixer Tools -->

<svg
   height="48"
   width="50"
   version="1.1"
   id="Layer_1"
   viewBox="0 0 400 384"
   xml:space="preserve"
   fill="#000000"
   sodipodi:docname="location-gps-svgrepo-com.svg"
   inkscape:version="1.4 (e7c3feb100, 2024-10-09)"
   xmlns:inkscape="http://www.inkscape.org/namespaces/inkscape"
   xmlns:sodipodi="http://sodipodi.sourceforge.net/DTD/sodipodi-0.dtd"
   xmlns="http://www.w3.org/2000/svg"
   xmlns:svg="http://www.w3.org/2000/svg"><defs
   id="defs2" /><sodipodi:namedview
   id="namedview2"
   pagecolor="#ffffff"
   bordercolor="#000000"
   borderopacity="0.25"
   inkscape:showpageshadow="2"
   inkscape:pageopacity="0.0"
   inkscape:pagecheckerboard="true"
   inkscape:deskcolor="#d1d1d1"
   inkscape:zoom="17.859375"
   inkscape:cx="32.195976"
   inkscape:cy="24.16098"
   inkscape:window-width="2560"
   inkscape:window-height="1360"
   inkscape:window-x="0"
   inkscape:window-y="0"
   inkscape:window-maximized="1"
   inkscape:current-layer="Layer_1" />

<g
   id="SVGRepo_bgCarrier"
   stroke-width="0" />

<g
   id="SVGRepo_tracerCarrier"
   stroke-linecap="round"
   stroke-linejoin="round" />

<g
   id="SVGRepo_iconCarrier"
   transform="translate(-59.576553,-3.1356073)">  <polygon
   style="fill:#1c274c"
   points="152.592,281.912 359.408,281.912 421.456,364.456 90.544,364.456 "
   id="polygon1" /> <polyline
   style="fill:#999999"
   points="152.592,281.912 257.712,364.456 359.408,281.912 "
   id="polyline1" /> <g
   style="opacity:0.15"
   id="g1"> <ellipse
   cx="255.92"
   cy="320.32001"
   rx="36.52"
   ry="7.4159999"
   id="ellipse1" /> </g> <path
   d="m 257.4878,364.68245 -6.19452,-7.53563 c -4.56102,-5.48934 -44.4647,-54.54666 -44.4647,-78.98497 0,-29.31718 19.87229,-48.26615 50.65922,-48.26615 30.78693,0 50.65923,18.94897 50.65923,48.26615 0,24.40412 -39.90369,73.45655 -44.42759,78.98497 z"
   id="path1"
   style="stroke-width:0.636164" /> <ellipse
   style="fill:#ffffff;stroke-width:0.636164"
   cx="257.45068"
   cy="278.48419"
   id="circle2"
   rx="16.403786"
   ry="15.105454" /> </g><g
   id="SVGRepo_iconCarrier-6"
   style="fill:#002255"
   transform="matrix(12.837229,0,0,12.519585,48.483187,-25.301422)"><path
     d="m 6.18013,8.11164 0.62358,0.41671 2e-5,-4e-5 z m 1.08341,9.04336 -0.5075,0.5522 v 0 z m 9.10246,0.3177 -0.4677,-0.5863 z m 1.7112,-8.94586 -0.6511,0.37223 v 0 z M 9.50013,5.46264 9.23224,4.76205 9.2236,4.76548 Z m -0.179,0.071 L 9.04457,4.8364 9.03406,4.84075 Z M 11.61,10.039 11.4637,9.30344 Z m 2.2379,1.1963 0.6929,-0.2869 z m -0.7368,2.4283 0.416,0.6241 7e-4,-4e-4 z m -0.091,0.058 0.3826,0.6452 0.0074,-0.0045 z m -2.0102,0.0173 -0.3713,0.6517 z M 5.55655,7.69493 C 3.43361,10.8717 3.94277,15.1218 6.75604,17.7072 L 7.77103,16.6028 C 5.50227,14.5177 5.09166,11.0903 6.80371,8.52835 Z M 6.75604,17.7072 c 2.81326,2.5855 7.09106,2.7348 10.07776,0.3517 l -0.9355,-1.1725 c -2.4086,1.9218 -5.8585,1.8014 -8.12727,-0.2836 z m 10.07776,0.3517 c 2.9866,-2.383 3.7909,-6.5872 1.8945,-9.90429 l -1.3022,0.74446 c 1.5293,2.67503 0.8807,6.06553 -1.5278,7.98733 z M 18.7283,8.15461 C 16.832,4.83753 12.8011,3.39748 9.23226,4.7621 L 9.76799,6.16317 C 12.6461,5.06267 15.8968,6.224 17.4261,8.89907 Z m -9.5047,-3.38913 -0.179,0.071 0.55305,1.39432 0.179,-0.071 z M 9.03406,4.84075 C 7.61816,5.42738 6.40798,6.42064 5.55652,7.69497 L 6.80373,8.52831 C 7.49039,7.50063 8.46634,6.69961 9.6082,6.22652 Z m 1.71604,7.15985 c 0,-0.5963 0.4213,-1.1096 1.0062,-1.226 L 11.4637,9.30344 C 10.1769,9.55937 9.25011,10.6887 9.25013,12.0007 Z m 1.0062,-1.226 c 0.5849,-0.1163 1.1705,0.1967 1.3987,0.7477 l 1.3858,-0.5739 C 14.0388,9.73621 12.7505,9.0475 11.4637,9.30344 Z m 1.3987,0.7477 c 0.2282,0.551 0.0354,1.1864 -0.4605,1.5177 l 0.8333,1.2473 c 1.0909,-0.7288 1.5151,-2.1268 1.013,-3.3389 z m -0.4599,1.5173 c -0.0215,0.0143 -0.0431,0.0281 -0.0649,0.0414 l 0.7799,1.2813 c 0.0395,-0.0241 0.0785,-0.0489 0.117,-0.0746 z m -0.0575,0.0369 c -0.3864,0.2291 -0.8661,0.2333 -1.2564,0.0108 l -0.7426,1.3033 c 0.8586,0.4893 1.9139,0.4802 2.764,-0.0238 z m -1.2564,0.0108 C 10.9909,12.8649 10.75,12.4501 10.7501,12.0009 l -1.49997,-5e-4 c -3.3e-4,0.9883 0.52974,1.9008 1.38847,2.3902 z"
     fill="#000000"
     id="path1-7"
     style="fill:#002255" /><path
     d="M 17.1527,6.4483 C 17.0874,6.03927 16.7028,5.76068 16.2938,5.82604 15.8848,5.89141 15.6062,6.27597 15.6715,6.685 Z m -4.5097,6.6251 c -0.3581,0.2083 -0.4794,0.6674 -0.2711,1.0254 0.2083,0.358 0.6674,0.4794 1.0254,0.2711 z m 6.7422,0.6092 c 0.3214,-0.2612 0.3702,-0.7336 0.1089,-1.055 -0.2612,-0.3214 -0.7336,-0.3702 -1.055,-0.109 z m -8.0104,-0.5997 c -0.3588,-0.2069 -0.8175,-0.0837 -1.0244,0.2751 -0.2069,0.3588 -0.0838,0.8174 0.2751,1.0244 z m -4.52629,4.468 c 0.06528,0.409 0.4498,0.6877 0.85883,0.6224 0.40904,-0.0653 0.68771,-0.4498 0.62242,-0.8589 z m 4.50889,-6.6231 c 0.358,-0.2084 0.4793,-0.6675 0.2709,-1.02546 C 11.4199,9.54436 10.9608,9.42308 10.6028,9.63146 Z m -0.6073,1.0728 c 0,-0.4142 -0.3358,-0.75 -0.75,-0.75 -0.41422,10e-5 -0.74999,0.3359 -0.74997,0.7501 z m 3.4822,7.2386 c 0.3869,0.1479 0.8204,-0.0458 0.9684,-0.4327 0.1479,-0.3869 -0.0458,-0.8205 -0.4327,-0.9684 z M 9.76799,4.76211 C 9.3811,4.61418 8.94753,4.80789 8.7996,5.19479 8.65166,5.58169 8.84538,6.01525 9.23228,6.16318 Z m 3.48211,7.23859 c 10e-5,0.4142 0.3359,0.75 0.7501,0.7499 0.4142,0 0.75,-0.3358 0.7499,-0.75 z M 4.61508,10.3186 c -0.32143,0.2613 -0.3702,0.7337 -0.10894,1.0551 0.26125,0.3214 0.73362,0.3702 1.05505,0.1089 z m 8.01042,0.5998 c 0.3588,0.2069 0.8174,0.0837 1.0243,-0.2751 0.207,-0.3588 0.0838,-0.81745 -0.275,-1.02437 z m 3.046,-4.2334 c 0.4076,2.5507 -0.7959,5.0894 -3.0285,6.3884 l 0.7543,1.2965 c 2.7685,-1.6108 4.2609,-4.75873 3.7554,-7.9216 z m 2.7676,5.8336 c -2.0103,1.634 -4.8202,1.8584 -7.0643,0.5643 l -0.7493,1.2995 c 2.7827,1.6047 6.267,1.3263 8.7597,-0.6998 z M 8.32976,17.3144 C 7.92278,14.7645 9.1258,12.2269 11.3574,10.9278 L 10.6028,9.63146 C 7.8356,11.2423 6.34385,14.389 6.84851,17.5509 Z m 0.92037,-5.3137 c 1.6e-4,3.2121 1.98187,6.0913 4.98217,7.2385 l 0.5357,-1.4011 c -2.4196,-0.9252 -4.0177,-3.247 -4.0179,-5.8375 z M 9.23228,6.16318 C 11.6519,7.08835 13.25,9.41023 13.2501,12.0007 l 1.5,-10e-5 C 14.75,8.78845 12.7683,5.90931 9.76799,4.76211 Z M 5.56119,11.4826 C 7.57145,9.8487 10.3813,9.62425 12.6255,10.9184 L 13.3748,9.61893 C 10.5921,8.01424 7.10781,8.29255 4.61508,10.3186 Z"
     fill="#000000"
     id="path2"
     style="fill:#002255" /></g>

</svg>
