<!-- Uploaded to: SVG Repo, www.svgrepo.com, Generator: SVG Repo Mixer Tools -->
<svg xmlns="http://www.w3.org/2000/svg" xmlns:xlink="http://www.w3.org/1999/xlink" width="24" height="24" viewBox="0 0 24 24">
<path fill-rule="nonzero" fill="rgb(3.529412%, 14.117647%, 29.411765%)" fill-opacity="1" d="M 9 3 C 9.550781 3 10 3.449219 10 4 L 10 20 C 10 20.550781 9.550781 21 9 21 L 7 21 C 6.449219 21 6 20.550781 6 20 L 6 4 C 6 3.449219 6.449219 3 7 3 Z M 17 3 C 17.550781 3 18 3.449219 18 4 L 18 20 C 18 20.550781 17.550781 21 17 21 L 15 21 C 14.449219 21 14 20.550781 14 20 L 14 4 C 14 3.449219 14.449219 3 15 3 Z M 17 3 "/>
</svg>
