<!-- Uploaded to: SVG Repo, www.svgrepo.com, Transformed by: SVG Repo Mixer Tools -->
<svg xmlns="http://www.w3.org/2000/svg" xmlns:xlink="http://www.w3.org/1999/xlink" width="24" height="24" viewBox="0 0 24 24">
<path fill-rule="nonzero" fill="rgb(3.529412%, 14.117647%, 29.411765%)" fill-opacity="1" d="M 12.699219 2.75 C 12.507812 2.566406 12.246094 2.472656 11.976562 2.492188 C 11.710938 2.511719 11.464844 2.640625 11.300781 2.851562 C 11.03125 3.15625 10.972656 3.589844 11.15625 3.953125 C 11.335938 4.316406 11.71875 4.535156 12.121094 4.507812 C 12.527344 4.480469 12.875 4.207031 13 3.824219 C 13.128906 3.4375 13.007812 3.011719 12.699219 2.75 Z M 12.699219 2.75 "/>
<path fill-rule="nonzero" fill="rgb(3.529412%, 14.117647%, 29.411765%)" fill-opacity="1" d="M 15.75 4.199219 C 15.351562 4.65625 15.394531 5.347656 15.851562 5.75 C 16.136719 6.105469 16.609375 6.257812 17.050781 6.136719 C 17.492188 6.015625 17.816406 5.644531 17.882812 5.191406 C 17.949219 4.738281 17.738281 4.289062 17.351562 4.050781 C 17.121094 3.847656 16.820312 3.75 16.515625 3.777344 C 16.214844 3.804688 15.9375 3.960938 15.75 4.199219 Z M 15.75 4.199219 "/>
<path fill-rule="nonzero" fill="rgb(3.529412%, 14.117647%, 29.411765%)" fill-opacity="1" d="M 20.949219 9.601562 C 21.414062 9.027344 21.335938 8.191406 20.773438 7.714844 C 20.210938 7.238281 19.371094 7.304688 18.886719 7.859375 C 18.402344 8.414062 18.453125 9.257812 19 9.75 C 19.273438 9.996094 19.636719 10.121094 20.007812 10.09375 C 20.375 10.066406 20.714844 9.886719 20.949219 9.601562 Z M 20.949219 9.601562 "/>
<path fill-rule="nonzero" fill="rgb(3.529412%, 14.117647%, 29.411765%)" fill-opacity="1" d="M 21 13.800781 C 20.539062 13.308594 19.839844 13.121094 19.195312 13.324219 C 18.550781 13.527344 18.082031 14.078125 17.988281 14.746094 C 17.894531 15.414062 18.1875 16.078125 18.75 16.449219 C 19.488281 16.941406 20.480469 16.804688 21.054688 16.125 C 21.628906 15.449219 21.605469 14.449219 21 13.800781 Z M 21 13.800781 "/>
<path fill-rule="nonzero" fill="rgb(3.529412%, 14.117647%, 29.411765%)" fill-opacity="1" d="M 13.050781 18.550781 C 12.453125 19.242188 12.332031 20.222656 12.742188 21.039062 C 13.15625 21.851562 14.019531 22.335938 14.929688 22.265625 C 15.839844 22.191406 16.617188 21.578125 16.894531 20.707031 C 17.171875 19.839844 16.898438 18.886719 16.199219 18.300781 C 15.753906 17.90625 15.164062 17.710938 14.570312 17.757812 C 13.976562 17.804688 13.429688 18.089844 13.050781 18.550781 Z M 13.050781 18.550781 "/>
<path fill-rule="nonzero" fill="rgb(3.529412%, 14.117647%, 29.411765%)" fill-opacity="1" d="M 4.949219 17.148438 C 4.058594 18.207031 4.167969 19.78125 5.199219 20.699219 C 6.246094 21.59375 7.816406 21.476562 8.71875 20.4375 C 9.617188 19.394531 9.507812 17.824219 8.46875 16.917969 C 7.433594 16.011719 5.859375 16.117188 4.949219 17.148438 Z M 4.949219 17.148438 "/>
<path fill-rule="nonzero" fill="rgb(3.529412%, 14.117647%, 29.411765%)" fill-opacity="1" d="M 6.394531 10.851562 C 6.515625 12.371094 5.382812 13.699219 3.863281 13.820312 C 2.34375 13.945312 1.015625 12.8125 0.894531 11.292969 C 0.773438 9.773438 1.90625 8.445312 3.425781 8.320312 C 4.941406 8.199219 6.273438 9.332031 6.394531 10.851562 Z M 6.394531 10.851562 "/>
</svg>
