<!-- Uploaded to: SVG Repo, www.svgrepo.com, Generator: SVG Repo Mixer Tools -->
<svg xmlns="http://www.w3.org/2000/svg" xmlns:xlink="http://www.w3.org/1999/xlink" width="24" height="24" viewBox="0 0 24 24">
<path fill-rule="evenodd" fill="rgb(3.529412%, 14.117647%, 29.411765%)" fill-opacity="1" d="M 5.667969 4.761719 C 5.789062 3.78125 6.804688 3.195312 7.710938 3.582031 C 8.769531 4.035156 11.152344 5.117188 14.171875 6.859375 C 17.191406 8.601562 19.316406 10.125 20.238281 10.816406 C 21.027344 11.40625 21.03125 12.582031 20.242188 13.171875 C 19.328125 13.859375 17.226562 15.363281 14.171875 17.128906 C 11.113281 18.894531 8.757812 19.960938 7.707031 20.410156 C 6.800781 20.796875 5.789062 20.210938 5.667969 19.230469 C 5.53125 18.089844 5.273438 15.496094 5.273438 11.996094 C 5.273438 8.496094 5.53125 5.902344 5.667969 4.761719 Z M 5.667969 4.761719 "/>
</svg>
