<!-- Uploaded to: SVG Repo, www.svgrepo.com, Transformed by: SVG Repo Mixer Tools -->
<svg xmlns="http://www.w3.org/2000/svg" xmlns:xlink="http://www.w3.org/1999/xlink" width="24" height="24" viewBox="0 0 24 24">
<path fill-rule="evenodd" fill="rgb(3.529412%, 14.117647%, 29.411765%)" fill-opacity="1" d="M 1 5 C 1 3.34375 2.34375 2 4 2 L 8.558594 2 C 9.851562 2 10.996094 2.828125 11.40625 4.050781 L 11.722656 5 L 20 5 C 21.105469 5 22 5.894531 22 7 L 22 9.007812 C 23.148438 9.121094 23.980469 10.195312 23.769531 11.359375 L 22.132812 20.359375 C 21.960938 21.308594 21.132812 22 20.164062 22 L 3 22 C 1.894531 22 1 21.105469 1 20 Z M 20 9 L 20 7 L 11.722656 7 C 10.859375 7 10.09375 6.449219 9.824219 5.632812 L 9.507812 4.683594 C 9.371094 4.277344 8.988281 4 8.558594 4 L 4 4 C 3.449219 4 3 4.449219 3 5 L 3 12.269531 L 3.355469 10.589844 C 3.550781 9.664062 4.367188 9 5.3125 9 Z M 3.367188 20 C 3.417969 19.910156 3.457031 19.8125 3.480469 19.707031 L 5.3125 11 L 21.800781 11 L 20.164062 20 Z M 3.367188 20 "/>
<path fill-rule="nonzero" fill="rgb(0%, 13.333333%, 33.333333%)" fill-opacity="1" d="M 17.011719 11.851562 L 17.277344 13.027344 C 17.453125 13.09375 17.617188 13.160156 17.773438 13.234375 C 17.929688 13.308594 18.085938 13.394531 18.246094 13.5 L 19.527344 13.144531 L 20.40625 14.480469 L 19.394531 15.265625 C 19.421875 15.421875 19.4375 15.59375 19.4375 15.773438 C 19.4375 15.957031 19.421875 16.128906 19.394531 16.285156 L 20.40625 17.070312 L 19.527344 18.402344 L 18.246094 18.050781 C 18.085938 18.15625 17.925781 18.242188 17.773438 18.316406 C 17.617188 18.390625 17.453125 18.457031 17.277344 18.523438 L 17.011719 19.699219 L 15.246094 19.699219 L 14.980469 18.523438 C 14.804688 18.457031 14.640625 18.390625 14.484375 18.316406 C 14.328125 18.242188 14.171875 18.15625 14.011719 18.050781 L 12.730469 18.402344 L 11.851562 17.070312 L 12.863281 16.285156 C 12.835938 16.128906 12.820312 15.957031 12.820312 15.773438 C 12.820312 15.589844 12.835938 15.421875 12.863281 15.265625 L 11.851562 14.480469 L 12.730469 13.144531 L 14.011719 13.5 C 14.171875 13.394531 14.332031 13.304688 14.484375 13.234375 C 14.640625 13.160156 14.804688 13.09375 14.980469 13.027344 L 15.246094 11.851562 Z M 16.128906 14.203125 C 15.644531 14.203125 15.226562 14.359375 14.882812 14.664062 C 14.539062 14.972656 14.363281 15.34375 14.363281 15.773438 C 14.363281 16.207031 14.539062 16.574219 14.882812 16.882812 C 15.226562 17.191406 15.644531 17.34375 16.128906 17.34375 C 16.613281 17.34375 17.03125 17.1875 17.375 16.882812 C 17.71875 16.574219 17.894531 16.207031 17.894531 15.773438 C 17.894531 15.34375 17.71875 14.972656 17.375 14.664062 C 17.03125 14.359375 16.613281 14.203125 16.128906 14.203125 Z M 16.128906 14.203125 "/>
</svg>
