<!-- Uploaded to: SVG Repo, www.svgrepo.com, Transformed by: SVG Repo Mixer Tools -->
<svg xmlns="http://www.w3.org/2000/svg" xmlns:xlink="http://www.w3.org/1999/xlink" width="24" height="24" viewBox="0 0 24 24">
<path fill="none" stroke-width="2" stroke-linecap="round" stroke-linejoin="round" stroke="rgb(3.529412%, 14.117647%, 29.411765%)" stroke-opacity="1" stroke-miterlimit="4" d="M 12 15 L 12 22 M 8 7.308594 L 8 9.4375 C 8 9.648438 8 9.75 7.980469 9.851562 C 7.960938 9.9375 7.933594 10.023438 7.890625 10.105469 C 7.84375 10.195312 7.78125 10.277344 7.648438 10.4375 L 6.078125 12.402344 C 5.414062 13.234375 5.082031 13.648438 5.082031 14 C 5.082031 14.304688 5.21875 14.589844 5.457031 14.78125 C 5.730469 15 6.265625 15 7.328125 15 L 16.671875 15 C 17.738281 15 18.269531 15 18.542969 14.78125 C 18.78125 14.589844 18.921875 14.304688 18.917969 14 C 18.917969 13.648438 18.585938 13.234375 17.921875 12.402344 L 16.351562 10.4375 C 16.222656 10.277344 16.15625 10.195312 16.109375 10.105469 C 16.070312 10.023438 16.039062 9.9375 16.019531 9.851562 C 16 9.75 16 9.648438 16 9.4375 L 16 7.308594 C 16 7.191406 16 7.136719 16.007812 7.078125 C 16.011719 7.027344 16.023438 6.976562 16.035156 6.929688 C 16.050781 6.875 16.070312 6.820312 16.113281 6.714844 L 17.121094 4.195312 C 17.417969 3.460938 17.5625 3.089844 17.503906 2.796875 C 17.449219 2.539062 17.296875 2.3125 17.074219 2.167969 C 16.824219 2 16.429688 2 15.636719 2 L 8.363281 2 C 7.570312 2 7.175781 2 6.925781 2.167969 C 6.707031 2.3125 6.550781 2.539062 6.5 2.796875 C 6.4375 3.089844 6.585938 3.460938 6.878906 4.195312 L 7.886719 6.714844 C 7.929688 6.820312 7.949219 6.875 7.964844 6.929688 C 7.980469 6.976562 7.988281 7.027344 7.992188 7.078125 C 8 7.136719 8 7.191406 8 7.308594 Z M 8 7.308594 "/>
</svg>
