<!-- Uploaded to: SVG Repo, www.svgrepo.com, Transformed by: SVG Repo Mixer Tools -->
<svg xmlns="http://www.w3.org/2000/svg" xmlns:xlink="http://www.w3.org/1999/xlink" width="24" height="24" viewBox="0 0 24 24">
<path fill="none" stroke-width="2" stroke-linecap="round" stroke-linejoin="round" stroke="rgb(3.529412%, 14.117647%, 29.411765%)" stroke-opacity="1" stroke-miterlimit="4" d="M 3 3 L 21 21 "/>
<path fill-rule="evenodd" fill="rgb(3.529412%, 14.117647%, 29.411765%)" fill-opacity="1" d="M 4.769531 3.679688 C 4.207031 4.058594 3.746094 4.574219 3.4375 5.183594 C 3.1875 5.667969 3.089844 6.1875 3.042969 6.75 C 3 7.289062 3 7.953125 3 8.757812 L 3 15.242188 C 3 15.492188 3 15.726562 3 15.949219 C 3 15.988281 3 16.027344 3.003906 16.066406 C 3.003906 16.511719 3.015625 16.90625 3.042969 17.25 C 3.089844 17.8125 3.1875 18.332031 3.4375 18.816406 C 3.820312 19.570312 4.429688 20.179688 5.183594 20.5625 C 5.667969 20.8125 6.1875 20.910156 6.75 20.957031 C 7.289062 21 7.953125 21 8.757812 21 L 15.242188 21 C 16.046875 21 16.710938 21 17.25 20.957031 C 17.8125 20.910156 18.332031 20.8125 18.816406 20.5625 C 19.425781 20.253906 19.941406 19.796875 20.320312 19.234375 L 18.84375 17.757812 C 18.824219 17.816406 18.804688 17.863281 18.78125 17.90625 C 18.589844 18.285156 18.285156 18.589844 17.90625 18.78125 C 17.75 18.863281 17.527344 18.925781 17.089844 18.960938 C 16.640625 19 16.054688 19 15.199219 19 L 8.800781 19 C 7.945312 19 7.359375 19 6.910156 18.960938 C 6.472656 18.925781 6.25 18.863281 6.09375 18.78125 C 5.714844 18.589844 5.410156 18.285156 5.21875 17.90625 C 5.136719 17.75 5.074219 17.527344 5.039062 17.089844 C 5.019531 16.886719 5.011719 16.65625 5.007812 16.382812 L 9.792969 11.207031 L 15.335938 16.75 C 15.726562 17.140625 16.359375 17.140625 16.75 16.75 C 16.96875 16.53125 17.0625 16.238281 17.039062 15.953125 L 10.382812 9.296875 C 9.695312 9.085938 8.921875 9.25 8.378906 9.792969 C 8.371094 9.800781 8.359375 9.8125 8.351562 9.820312 L 5 13.445312 L 5 8.800781 C 5 7.945312 5 7.359375 5.039062 6.910156 C 5.074219 6.472656 5.136719 6.25 5.21875 6.09375 C 5.410156 5.714844 5.714844 5.410156 6.09375 5.21875 C 6.136719 5.195312 6.183594 5.175781 6.242188 5.15625 L 4.792969 3.707031 C 4.785156 3.699219 4.777344 3.691406 4.769531 3.679688 Z M 15.257812 11.34375 C 16.042969 10.722656 17.1875 10.773438 17.914062 11.5 L 19 12.585938 L 19 8.800781 C 19 7.945312 19 7.359375 18.960938 6.910156 C 18.925781 6.472656 18.863281 6.25 18.78125 6.09375 C 18.589844 5.714844 18.285156 5.410156 17.90625 5.21875 C 17.75 5.136719 17.527344 5.074219 17.089844 5.039062 C 16.640625 5 16.054688 5 15.199219 5 L 8.914062 5 L 6.945312 3.03125 C 7.449219 3 8.046875 3 8.757812 3 L 15.242188 3 C 16.046875 3 16.710938 3 17.25 3.042969 C 17.8125 3.089844 18.332031 3.1875 18.816406 3.4375 C 19.570312 3.820312 20.179688 4.429688 20.5625 5.183594 C 20.8125 5.667969 20.910156 6.1875 20.957031 6.75 C 21 7.289062 21 7.953125 21 8.757812 L 21 15.242188 C 21 15.953125 21 16.550781 20.96875 17.054688 Z M 15.257812 11.34375 "/>
</svg>
