<!-- Uploaded to: SVG Repo, www.svgrepo.com, Transformed by: SVG Repo Mixer Tools -->
<svg xmlns="http://www.w3.org/2000/svg" xmlns:xlink="http://www.w3.org/1999/xlink" width="48" height="48" viewBox="0 0 48 48">
<path fill="none" stroke-width="2" stroke-linecap="round" stroke-linejoin="round" stroke="rgb(3.529412%, 14.117647%, 29.411765%)" stroke-opacity="1" stroke-miterlimit="4" d="M 21 8.5 L 21 6 C 21 4.894531 20.105469 4 19 4 L 5 4 C 3.894531 4 3 4.894531 3 6 L 3 11 C 3 12.105469 3.894531 13 5 13 L 10.875 13 M 19 14 L 19 12 C 19 10.894531 18.105469 10 17 10 C 15.894531 10 15 10.894531 15 12 L 15 14 M 14 20 L 20 20 C 20.552734 20 21 19.552734 21 19 L 21 15 C 21 14.447266 20.552734 14 20 14 L 14 14 C 13.447266 14 13 14.447266 13 15 L 13 19 C 13 19.552734 13.447266 20 14 20 Z M 14 20 " transform="matrix(2, 0, 0, 2, 0, 0)"/>
<path fill-rule="nonzero" fill="rgb(3.529412%, 14.117647%, 29.411765%)" fill-opacity="1" d="M 18 17 C 18 18.65625 16.65625 20 15 20 C 13.34375 20 12 18.65625 12 17 C 12 15.34375 13.34375 14 15 14 C 16.65625 14 18 15.34375 18 17 Z M 18 17 "/>
<path fill-rule="nonzero" fill="rgb(3.529412%, 14.117647%, 29.411765%)" fill-opacity="1" d="M 27 17 C 27 18.65625 25.65625 20 24 20 C 22.34375 20 21 18.65625 21 17 C 21 15.34375 22.34375 14 24 14 C 25.65625 14 27 15.34375 27 17 Z M 27 17 "/>
</svg>
