
<svg xmlns="http://www.w3.org/2000/svg" xmlns:xlink="http://www.w3.org/1999/xlink" width="24" height="24" viewBox="0 0 24 24">
<path fill-rule="nonzero" fill="rgb(0%, 0%, 0%)" fill-opacity="1" d="M 10 10 L 10 12.945312 C 10.164062 12.980469 10.332031 12.996094 10.5 13 C 11.878906 13 13 11.878906 13 10.5 C 13 10.332031 12.984375 10.164062 12.949219 10 Z M 10 10 "/>
<path fill-rule="nonzero" fill="rgb(0%, 0%, 0%)" fill-opacity="1" d="M 10 9 L 10 5 L 12 5 L 12 7 L 14 7 L 14 9 Z M 10 9 "/>
<path fill-rule="nonzero" fill="rgb(0%, 0%, 0%)" fill-opacity="1" d="M 9 12 L 7 12 L 7 10 L 9 10 Z M 9 12 "/>
<path fill-rule="nonzero" fill="rgb(100%, 40%, 0%)" fill-opacity="1" d="M 15 3 L 15 9 L 21 9 L 21 3 Z M 16.5 4.5 L 19.5 4.5 L 19.5 7.5 L 16.5 7.5 Z M 16.5 4.5 "/>
<path fill-rule="nonzero" fill="rgb(100%, 40%, 0%)" fill-opacity="1" d="M 3 15 L 3 21 L 9 21 L 9 15 Z M 4.5 16.5 L 7.5 16.5 L 7.5 19.5 L 4.5 19.5 Z M 4.5 16.5 "/>
<path fill-rule="nonzero" fill="rgb(100%, 40%, 0%)" fill-opacity="1" d="M 3 3 L 3 9 L 9 9 L 9 3 Z M 4.5 4.5 L 7.5 4.5 L 7.5 7.5 L 4.5 7.5 Z M 4.5 4.5 "/>
<path fill-rule="nonzero" fill="rgb(0%, 0%, 0%)" fill-opacity="1" d="M 12 5 L 12 3 L 14 3 L 14 5 Z M 12 5 "/>
<path fill-rule="nonzero" fill="rgb(0%, 0%, 0%)" fill-opacity="1" d="M 3 12 L 3 10 L 5 10 L 5 12 Z M 3 12 "/>
<path fill-rule="nonzero" fill="rgb(0%, 0%, 0%)" fill-opacity="1" d="M 5 14 L 5 12 L 7 12 L 7 14 Z M 5 14 "/>
<path fill="none" stroke-width="2" stroke-linecap="round" stroke-linejoin="miter" stroke="rgb(0%, 0%, 0%)" stroke-opacity="1" stroke-miterlimit="4" d="M 11 20 C 17 20 20 17 20 11 "/>
<path fill="none" stroke-width="2" stroke-linecap="round" stroke-linejoin="miter" stroke="rgb(0%, 0%, 0%)" stroke-opacity="1" stroke-miterlimit="4" d="M 11 16 C 14 16.035156 16.023438 14 16 11 "/>
</svg>
