<!-- Uploaded to: SVG Repo, www.svgrepo.com, Transformed by: SVG Repo Mixer Tools -->
<svg xmlns="http://www.w3.org/2000/svg" xmlns:xlink="http://www.w3.org/1999/xlink" width="24" height="24" viewBox="0 0 24 24">
<path fill-rule="nonzero" fill="rgb(3.529412%, 14.117647%, 29.411765%)" fill-opacity="1" d="M 23 4 C 23 2.34375 21.65625 1 20 1 L 16 1 C 15.449219 1 15 1.449219 15 2 C 15 2.550781 15.449219 3 16 3 L 20 3 C 20.550781 3 21 3.449219 21 4 L 21 8 C 21 8.550781 21.449219 9 22 9 C 22.550781 9 23 8.550781 23 8 Z M 23 4 "/>
<path fill-rule="nonzero" fill="rgb(3.529412%, 14.117647%, 29.411765%)" fill-opacity="1" d="M 23 16 C 23 15.449219 22.550781 15 22 15 C 21.449219 15 21 15.449219 21 16 L 21 20 C 21 20.550781 20.550781 21 20 21 L 16 21 C 15.449219 21 15 21.449219 15 22 C 15 22.550781 15.449219 23 16 23 L 20 23 C 21.65625 23 23 21.65625 23 20 Z M 23 16 "/>
<path fill-rule="nonzero" fill="rgb(3.529412%, 14.117647%, 29.411765%)" fill-opacity="1" d="M 4 21 C 3.449219 21 3 20.550781 3 20 L 3 16 C 3 15.449219 2.550781 15 2 15 C 1.449219 15 1 15.449219 1 16 L 1 20 C 1 21.65625 2.34375 23 4 23 L 8 23 C 8.550781 23 9 22.550781 9 22 C 9 21.449219 8.550781 21 8 21 Z M 4 21 "/>
<path fill-rule="nonzero" fill="rgb(3.529412%, 14.117647%, 29.411765%)" fill-opacity="1" d="M 1 8 C 1 8.550781 1.449219 9 2 9 C 2.550781 9 3 8.550781 3 8 L 3 4 C 3 3.449219 3.449219 3 4 3 L 8 3 C 8.550781 3 9 2.550781 9 2 C 9 1.449219 8.550781 1 8 1 L 4 1 C 2.34375 1 1 2.34375 1 4 Z M 1 8 "/>
<path fill-rule="evenodd" fill="rgb(3.529412%, 14.117647%, 29.411765%)" fill-opacity="1" d="M 11 6 C 11 5.449219 10.550781 5 10 5 L 6 5 C 5.449219 5 5 5.449219 5 6 L 5 10 C 5 10.550781 5.449219 11 6 11 L 10 11 C 10.550781 11 11 10.550781 11 10 Z M 9 7.5 C 9 7.222656 8.777344 7 8.5 7 L 7.5 7 C 7.222656 7 7 7.222656 7 7.5 L 7 8.5 C 7 8.777344 7.222656 9 7.5 9 L 8.5 9 C 8.777344 9 9 8.777344 9 8.5 Z M 9 7.5 "/>
<path fill-rule="evenodd" fill="rgb(3.529412%, 14.117647%, 29.411765%)" fill-opacity="1" d="M 18 13 C 18.550781 13 19 13.449219 19 14 L 19 18 C 19 18.550781 18.550781 19 18 19 L 14 19 C 13.449219 19 13 18.550781 13 18 L 13 14 C 13 13.449219 13.449219 13 14 13 Z M 15 15.5 C 15 15.222656 15.222656 15 15.5 15 L 16.5 15 C 16.777344 15 17 15.222656 17 15.5 L 17 16.5 C 17 16.777344 16.777344 17 16.5 17 L 15.5 17 C 15.222656 17 15 16.777344 15 16.5 Z M 15 15.5 "/>
<path fill-rule="nonzero" fill="rgb(3.529412%, 14.117647%, 29.411765%)" fill-opacity="1" d="M 14 5 C 13.449219 5 13 5.449219 13 6 C 13 6.550781 13.449219 7 14 7 L 16.5 7 C 16.777344 7 17 7.222656 17 7.5 L 17 10 C 17 10.550781 17.449219 11 18 11 C 18.550781 11 19 10.550781 19 10 L 19 6 C 19 5.449219 18.550781 5 18 5 Z M 14 5 "/>
<path fill-rule="nonzero" fill="rgb(3.529412%, 14.117647%, 29.411765%)" fill-opacity="1" d="M 14 8 C 13.449219 8 13 8.449219 13 9 L 13 10 C 13 10.550781 13.449219 11 14 11 C 14.550781 11 15 10.550781 15 10 L 15 9 C 15 8.449219 14.550781 8 14 8 Z M 14 8 "/>
<path fill-rule="nonzero" fill="rgb(3.529412%, 14.117647%, 29.411765%)" fill-opacity="1" d="M 6 13 C 5.449219 13 5 13.449219 5 14 L 5 16 C 5 16.550781 5.449219 17 6 17 C 6.550781 17 7 16.550781 7 16 L 7 15.5 C 7 15.222656 7.222656 15 7.5 15 L 10 15 C 10.550781 15 11 14.550781 11 14 C 11 13.449219 10.550781 13 10 13 Z M 6 13 "/>
<path fill-rule="nonzero" fill="rgb(3.529412%, 14.117647%, 29.411765%)" fill-opacity="1" d="M 10 17 C 9.449219 17 9 17.449219 9 18 C 9 18.550781 9.449219 19 10 19 C 10.550781 19 11 18.550781 11 18 C 11 17.449219 10.550781 17 10 17 Z M 10 17 "/>
</svg>
