
<svg xmlns="http://www.w3.org/2000/svg" xmlns:xlink="http://www.w3.org/1999/xlink" width="18" height="18" viewBox="0 0 18 18">
<path fill-rule="nonzero" fill="rgb(58.823529%, 58.823529%, 58.823529%)" fill-opacity="1" d="M 0 12 L 6 12 L 6 18 L 0 18 Z M 0 12 "/>
<path fill-rule="nonzero" fill="rgb(78.823529%, 78.823529%, 78.823529%)" fill-opacity="1" d="M 0 6 L 6 6 L 6 12 L 0 12 Z M 0 6 "/>
<path fill-rule="nonzero" fill="rgb(58.823529%, 58.823529%, 58.823529%)" fill-opacity="1" d="M 0 0 L 6 0 L 6 6 L 0 6 Z M 0 0 "/>
<path fill-rule="nonzero" fill="rgb(78.823529%, 78.823529%, 78.823529%)" fill-opacity="1" d="M 6 0 L 12 0 L 12 6 L 6 6 Z M 6 0 "/>
<path fill-rule="nonzero" fill="rgb(58.823529%, 58.823529%, 58.823529%)" fill-opacity="1" d="M 6 6 L 12 6 L 12 12 L 6 12 Z M 6 6 "/>
<path fill-rule="nonzero" fill="rgb(58.823529%, 58.823529%, 58.823529%)" fill-opacity="1" d="M 12 0 L 18 0 L 18 6 L 12 6 Z M 12 0 "/>
<path fill-rule="nonzero" fill="rgb(78.823529%, 78.823529%, 78.823529%)" fill-opacity="1" d="M 6 12 L 12 12 L 12 18 L 6 18 Z M 6 12 "/>
<path fill-rule="nonzero" fill="rgb(78.823529%, 78.823529%, 78.823529%)" fill-opacity="1" d="M 12 6 L 18 6 L 18 12 L 12 12 Z M 12 6 "/>
</svg>
