<!-- Uploaded to: SVG Repo, www.svgrepo.com, Generator: SVG Repo Mixer Tools -->
<svg xmlns="http://www.w3.org/2000/svg" xmlns:xlink="http://www.w3.org/1999/xlink" width="24" height="24" viewBox="0 0 24 24">
<path fill-rule="nonzero" fill="rgb(3.529412%, 14.117647%, 29.411765%)" fill-opacity="1" d="M 1.496094 12.082031 C 1.488281 10.816406 2.84375 10.09375 3.875 10.675781 L 3.988281 10.746094 L 6.667969 12.550781 C 8.09375 13.507812 7.207031 15.695312 5.570312 15.464844 L 5.429688 15.441406 L 5.324219 15.414062 C 6.253906 17.238281 7.925781 18.671875 10.058594 19.246094 C 13.410156 20.140625 16.84375 18.621094 18.496094 15.75 C 18.910156 15.035156 19.828125 14.785156 20.546875 15.199219 C 21.261719 15.613281 21.511719 16.53125 21.097656 17.25 C 18.78125 21.269531 13.976562 23.402344 9.28125 22.140625 C 5.078125 21.015625 2.160156 17.492188 1.597656 13.441406 C 1.535156 12.992188 1.5 12.539062 1.496094 12.082031 Z M 2.902344 6.75 C 5.21875 2.730469 10.023438 0.601562 14.71875 1.859375 C 18.921875 2.984375 21.839844 6.507812 22.402344 10.558594 C 22.464844 11.007812 22.5 11.460938 22.503906 11.917969 C 22.511719 13.183594 21.15625 13.90625 20.125 13.324219 L 20.011719 13.253906 L 17.332031 11.449219 C 15.90625 10.492188 16.792969 8.304688 18.429688 8.535156 L 18.570312 8.5625 L 18.675781 8.585938 C 17.746094 6.761719 16.074219 5.328125 13.941406 4.753906 C 10.589844 3.859375 7.15625 5.378906 5.503906 8.25 C 5.089844 8.96875 4.171875 9.214844 3.453125 8.800781 C 2.738281 8.386719 2.488281 7.46875 2.902344 6.75 Z M 2.902344 6.75 "/>
</svg>
