<!-- Uploaded to: SVG Repo, www.svgrepo.com, Transformed by: SVG Repo Mixer Tools -->
<svg xmlns="http://www.w3.org/2000/svg" xmlns:xlink="http://www.w3.org/1999/xlink" width="24" height="24" viewBox="0 0 24 24">
<path fill-rule="nonzero" fill="rgb(100%, 100%, 100%)" fill-opacity="1" d="M 16.25 2 L 13 2 C 7.476562 2 3 6.476562 3 12 C 3 17.523438 7.476562 22 13 22 L 16.25 22 L 16.25 17 L 13 17 C 10.238281 17 8 14.761719 8 12 C 8 9.238281 10.238281 7 13 7 L 16.25 7 Z M 16.25 2 "/>
<path fill-rule="nonzero" fill="rgb(100%, 100%, 100%)" fill-opacity="1" d="M 17.75 7 L 19.5 7 C 20.328125 7 21 6.328125 21 5.5 L 21 3.5 C 21 2.671875 20.328125 2 19.5 2 L 17.75 2 Z M 17.75 7 "/>
<path fill-rule="nonzero" fill="rgb(100%, 100%, 100%)" fill-opacity="1" d="M 17.75 17 L 17.75 22 L 19.5 22 C 20.328125 22 21 21.328125 21 20.5 L 21 18.5 C 21 17.671875 20.328125 17 19.5 17 Z M 17.75 17 "/>
</svg>
