
<svg xmlns="http://www.w3.org/2000/svg" xmlns:xlink="http://www.w3.org/1999/xlink" width="24" height="24" viewBox="0 0 24 24">
<path fill-rule="nonzero" fill="rgb(100%, 100%, 100%)" fill-opacity="1" d="M 18.300781 4 L 12.898438 9.300781 L 14.699219 11.101562 L 21 4.800781 L 21 4 M 6.601562 19.199219 C 4.199219 19.199219 4.199219 15.601562 6.601562 15.601562 C 9 15.601562 9 19.199219 6.601562 19.199219 M 6.601562 8.398438 C 4.199219 8.398438 4.199219 4.800781 6.601562 4.800781 C 9 4.800781 9 8.398438 6.601562 8.398438 M 9.875 8.074219 C 10.082031 7.625 10.199219 7.132812 10.199219 6.601562 C 10.199219 3.390625 6.324219 1.785156 4.054688 4.054688 C 1.785156 6.320312 3.390625 10.199219 6.601562 10.199219 C 7.132812 10.199219 7.625 10.082031 8.074219 9.875 L 10.199219 12 L 8.074219 14.125 C 7.613281 13.910156 7.109375 13.800781 6.601562 13.800781 C 3.390625 13.800781 1.785156 17.675781 4.054688 19.945312 C 6.320312 22.214844 10.199219 20.609375 10.199219 17.398438 C 10.199219 16.867188 10.082031 16.375 9.875 15.925781 L 12 13.800781 L 18.300781 20 L 21 20 L 21 19.199219 Z M 9.875 8.074219 "/>
<path fill-rule="nonzero" fill="rgb(100%, 100%, 100%)" fill-opacity="1" d="M 1 11 L 8 11 L 8 13 L 1 13 Z M 16 11 L 23 11 L 23 13 L 16 13 Z M 16 11 "/>
</svg>
