<!-- Uploaded to: SVG Repo, www.svgrepo.com, Transformed by: SVG Repo Mixer Tools -->
<svg xmlns="http://www.w3.org/2000/svg" xmlns:xlink="http://www.w3.org/1999/xlink" width="24" height="24" viewBox="0 0 24 24">
<path fill-rule="nonzero" fill="rgb(3.529412%, 14.117647%, 29.411765%)" fill-opacity="1" d="M 19.785156 7.804688 C 19.625 7.476562 19.34375 7.226562 19 7.101562 L 19 5.574219 C 18.996094 4.996094 18.847656 4.429688 18.566406 3.921875 C 17.941406 2.742188 16.699219 2.019531 15.367188 2.066406 C 14.03125 2.109375 12.839844 2.914062 12.296875 4.132812 C 12.101562 4.539062 12 4.988281 12.003906 5.441406 L 12 19.308594 C 12.007812 19.566406 11.964844 19.824219 11.875 20.066406 C 11.402344 21.234375 10.269531 21.996094 9.011719 22 C 7.671875 21.96875 6.503906 21.089844 6.101562 19.816406 C 6.03125 19.585938 5.996094 19.34375 6 19.105469 L 6 16.894531 C 6.332031 16.773438 6.605469 16.535156 6.773438 16.222656 L 8.734375 13.171875 C 8.910156 12.8125 9 12.414062 9 12.011719 L 9 4 L 8 4 L 8 1 L 3 1 L 3 4 L 2 4 L 2 12.015625 C 2.003906 12.4375 2.105469 12.851562 2.296875 13.226562 L 4.214844 16.195312 C 4.378906 16.519531 4.660156 16.769531 5 16.894531 L 5 19.144531 C 5.007812 19.664062 5.109375 20.175781 5.300781 20.65625 C 5.984375 22.089844 7.425781 23 9.011719 23 C 10.582031 22.992188 12.015625 22.089844 12.695312 20.671875 C 12.890625 20.195312 12.992188 19.683594 12.996094 19.171875 L 13 5.433594 C 13.003906 5.097656 13.085938 4.761719 13.238281 4.460938 C 13.652344 3.597656 14.523438 3.046875 15.480469 3.046875 C 16.4375 3.042969 17.3125 3.59375 17.726562 4.457031 C 17.90625 4.800781 18 5.179688 18 5.566406 L 18 7.101562 C 17.667969 7.222656 17.390625 7.460938 17.230469 7.777344 L 15.265625 10.828125 C 15.089844 11.1875 15 11.582031 15 11.984375 L 15 20 L 16 20 L 16 23 L 21 23 L 21 20 L 22 20 L 22 11.984375 C 21.996094 11.5625 21.894531 11.148438 21.703125 10.773438 Z M 4 2 L 7 2 L 7 4 L 4 4 Z M 3.164062 12.738281 C 3.058594 12.511719 3 12.265625 3 12.015625 L 3 5 L 8 5 L 8 12.015625 C 8 12.246094 7.953125 12.472656 7.863281 12.683594 L 5.886719 15.757812 C 5.808594 15.914062 5.644531 16.007812 5.46875 15.996094 C 5.292969 15.984375 5.140625 15.871094 5.082031 15.703125 Z M 20 22 L 17 22 L 17 20 L 20 20 Z M 21 19 L 16 19 L 16 11.984375 C 16 11.753906 16.046875 11.527344 16.136719 11.316406 L 18.113281 8.242188 C 18.191406 8.085938 18.355469 7.992188 18.53125 8.003906 C 18.707031 8.015625 18.859375 8.128906 18.917969 8.296875 L 20.835938 11.261719 C 20.941406 11.488281 21 11.734375 21 11.984375 Z M 21 19 "/>
</svg>
