<!-- Uploaded to: SVG Repo, www.svgrepo.com, Transformed by: SVG Repo Mixer Tools -->
<svg xmlns="http://www.w3.org/2000/svg" xmlns:xlink="http://www.w3.org/1999/xlink" width="48" height="48" viewBox="0 0 48 48">
<path fill-rule="nonzero" fill="rgb(100%, 47.058824%, 0%)" fill-opacity="1" d="M 28 24 C 28 26.210938 26.210938 28 24 28 C 21.789062 28 20 26.210938 20 24 C 20 21.789062 21.789062 20 24 20 C 26.210938 20 28 21.789062 28 24 Z M 28 24 "/>
<path fill-rule="nonzero" fill="rgb(100%, 47.058824%, 0%)" fill-opacity="1" d="M 24 38 C 36 38 44 24 44 24 C 44 24 36 10 24 10 C 12 10 4 24 4 24 C 4 24 12 38 24 38 Z M 24 16 C 28.417969 16 32 19.582031 32 24 C 32 28.417969 28.417969 32 24 32 C 19.582031 32 16 28.417969 16 24 C 16 19.582031 19.582031 16 24 16 Z M 24 16 "/>
</svg>
