<!-- Uploaded to: SVG Repo, www.svgrepo.com, Transformed by: SVG Repo Mixer Tools -->
<svg xmlns="http://www.w3.org/2000/svg" xmlns:xlink="http://www.w3.org/1999/xlink" width="24" height="24" viewBox="0 0 24 24">
<path fill-rule="evenodd" fill="rgb(100%, 100%, 100%)" fill-opacity="1" d="M 10.585938 2.101562 C 11.324219 1.359375 12.5 1.320312 13.285156 1.984375 L 13.414062 2.101562 L 15.3125 4 L 18 4 C 19.054688 4 19.917969 4.816406 19.996094 5.851562 L 20 6 L 20 8.6875 L 21.898438 10.585938 C 22.640625 11.324219 22.679688 12.5 22.015625 13.285156 L 21.898438 13.414062 L 20 15.3125 L 20 18 C 20 19.054688 19.183594 19.917969 18.148438 19.996094 L 18 20 L 15.3125 20 L 13.414062 21.898438 C 12.675781 22.640625 11.5 22.679688 10.714844 22.015625 L 10.585938 21.898438 L 8.6875 20 L 6 20 C 4.945312 20 4.082031 19.183594 4.003906 18.148438 L 4 18 L 4 15.3125 L 2.101562 13.414062 C 1.359375 12.675781 1.320312 11.5 1.984375 10.714844 L 2.101562 10.585938 L 4 8.6875 L 4 6 C 4 4.945312 4.816406 4.082031 5.851562 4.003906 L 6 4 L 8.6875 4 Z M 12 9 C 10.34375 9 9 10.34375 9 12 C 9 13.65625 10.34375 15 12 15 C 13.65625 15 15 13.65625 15 12 C 15 10.34375 13.65625 9 12 9 Z M 12 9 "/>
</svg>
