<!-- Uploaded to: SVG Repo, www.svgrepo.com, Transformed by: SVG Repo Mixer Tools -->
<svg xmlns="http://www.w3.org/2000/svg" xmlns:xlink="http://www.w3.org/1999/xlink" width="24" height="24" viewBox="0 0 24 24">
<path fill-rule="evenodd" fill="rgb(3.529412%, 14.117647%, 29.411765%)" fill-opacity="1" d="M 19.484375 9.03125 C 19.09375 8.042969 18.492188 7.140625 17.675781 6.328125 L 19.378906 4.625 C 20.644531 5.890625 21.515625 7.320312 21.992188 8.910156 C 22.285156 9.878906 22.429688 10.910156 22.433594 12 L 22.433594 12.003906 C 22.429688 13.597656 22.121094 15.0625 21.496094 16.394531 C 20.996094 17.476562 20.289062 18.46875 19.382812 19.378906 L 17.675781 17.671875 C 18.296875 17.050781 18.796875 16.375 19.171875 15.648438 C 19.742188 14.550781 20.023438 13.335938 20.023438 12.003906 L 20.023438 12 C 20.023438 10.933594 19.84375 9.945312 19.484375 9.03125 Z M 19.484375 9.03125 "/>
<path fill-rule="evenodd" fill="rgb(3.529412%, 14.117647%, 29.411765%)" fill-opacity="1" d="M 16.484375 7.546875 C 16.894531 7.960938 17.238281 8.402344 17.511719 8.875 L 17.515625 8.875 C 18.050781 9.800781 18.320312 10.84375 18.320312 11.996094 L 18.320312 12 C 18.316406 13.195312 18.03125 14.273438 17.453125 15.230469 L 17.449219 15.230469 C 17.183594 15.667969 16.859375 16.078125 16.472656 16.46875 L 16.472656 16.464844 L 16.46875 16.46875 L 14.761719 14.761719 C 14.871094 14.644531 14.976562 14.527344 15.070312 14.40625 C 15.625 13.71875 15.902344 12.914062 15.90625 12 L 15.90625 11.996094 C 15.902344 10.917969 15.523438 10.003906 14.765625 9.242188 L 16.472656 7.53125 C 16.476562 7.535156 16.480469 7.539062 16.484375 7.546875 Z M 16.484375 7.546875 "/>
<path fill-rule="evenodd" fill="rgb(3.529412%, 14.117647%, 29.411765%)" fill-opacity="1" d="M 10.585938 10.574219 C 10.976562 10.183594 11.449219 9.988281 12.003906 9.988281 C 12.558594 9.988281 13.035156 10.183594 13.425781 10.574219 L 13.429688 10.578125 C 13.816406 10.96875 14.011719 11.441406 14.011719 11.996094 L 14.011719 12 C 14.011719 12.554688 13.816406 13.023438 13.425781 13.414062 C 13.421875 13.417969 13.421875 13.417969 13.421875 13.421875 C 13.03125 13.808594 12.558594 14.003906 12.003906 14 C 11.449219 14.003906 10.976562 13.808594 10.589844 13.417969 L 10.585938 13.414062 C 10.195312 13.027344 10 12.554688 10 12.003906 C 10 12 10 11.996094 10 11.996094 C 10 11.441406 10.191406 10.96875 10.582031 10.578125 C 10.582031 10.578125 10.582031 10.574219 10.585938 10.574219 Z M 10.585938 10.574219 "/>
<path fill-rule="evenodd" fill="rgb(3.529412%, 14.117647%, 29.411765%)" fill-opacity="1" d="M 5.683594 11.996094 C 5.683594 11.917969 5.683594 11.839844 5.6875 11.765625 C 5.738281 10.117188 6.355469 8.707031 7.53125 7.53125 L 9.238281 9.238281 C 8.476562 10 8.097656 10.917969 8.101562 11.996094 C 8.101562 11.996094 8.101562 12 8.101562 12.003906 C 8.101562 12.121094 8.105469 12.242188 8.113281 12.355469 L 8.113281 12.359375 C 8.191406 13.28125 8.566406 14.082031 9.238281 14.757812 C 9.238281 14.757812 9.242188 14.761719 9.242188 14.761719 L 7.535156 16.46875 L 7.53125 16.46875 C 6.300781 15.234375 5.683594 13.746094 5.683594 12.003906 C 5.683594 12 5.683594 11.996094 5.683594 11.996094 Z M 5.683594 11.996094 "/>
<path fill-rule="evenodd" fill="rgb(3.529412%, 14.117647%, 29.411765%)" fill-opacity="1" d="M 1.660156 10.558594 C 1.949219 8.289062 2.933594 6.308594 4.625 4.621094 L 6.332031 6.328125 C 4.960938 7.699219 4.1875 9.320312 4.015625 11.1875 C 3.992188 11.453125 3.980469 11.726562 3.980469 12.003906 C 3.980469 14.214844 4.761719 16.105469 6.324219 17.671875 L 6.328125 17.675781 L 4.621094 19.382812 L 4.617188 19.378906 C 2.585938 17.34375 1.570312 14.882812 1.570312 12.003906 C 1.570312 11.507812 1.601562 11.027344 1.660156 10.558594 Z M 1.660156 10.558594 "/>
</svg>
