
<svg xmlns="http://www.w3.org/2000/svg" xmlns:xlink="http://www.w3.org/1999/xlink" width="24" height="24" viewBox="0 0 24 24">
<path fill-rule="evenodd" fill="rgb(93.72549%, 25.490196%, 21.176471%)" fill-opacity="1" d="M 12 0 C 18.628906 0 24 5.375 24 12 C 24 18.628906 18.628906 24 12 24 C 5.375 24 0 18.628906 0 12 C 0 5.375 5.375 0 12 0 Z M 12 0 "/>
<path fill-rule="evenodd" fill="rgb(100%, 100%, 100%)" fill-opacity="1" d="M 15.460938 9.03125 C 15.007812 8.507812 15.066406 7.71875 15.589844 7.265625 C 16.113281 6.8125 16.902344 6.867188 17.355469 7.390625 C 17.902344 8.023438 18.335938 8.75 18.632812 9.546875 C 18.921875 10.324219 19.078125 11.15625 19.078125 12.011719 C 19.078125 13.96875 18.285156 15.738281 17.003906 17.019531 C 15.722656 18.300781 13.957031 19.09375 12 19.09375 C 10.046875 19.09375 8.277344 18.300781 6.996094 17.019531 C 5.714844 15.738281 4.921875 13.96875 4.921875 12.011719 C 4.921875 11.167969 5.074219 10.351562 5.351562 9.589844 C 5.636719 8.808594 6.058594 8.089844 6.589844 7.460938 C 7.035156 6.929688 7.824219 6.863281 8.351562 7.308594 C 8.882812 7.753906 8.949219 8.542969 8.503906 9.070312 C 8.167969 9.472656 7.894531 9.9375 7.710938 10.445312 C 7.535156 10.929688 7.4375 11.457031 7.4375 12.011719 C 7.4375 13.273438 7.949219 14.414062 8.773438 15.242188 C 9.601562 16.066406 10.742188 16.578125 12 16.578125 C 13.261719 16.578125 14.402344 16.066406 15.226562 15.242188 C 16.050781 14.417969 16.566406 13.273438 16.566406 12.011719 C 16.566406 11.445312 16.464844 10.910156 16.285156 10.421875 C 16.09375 9.910156 15.816406 9.441406 15.460938 9.03125 Z M 15.460938 9.03125 "/>
<path fill-rule="evenodd" fill="rgb(100%, 100%, 100%)" fill-opacity="1" d="M 13.257812 9.59375 C 13.257812 10.289062 12.695312 10.851562 12 10.851562 C 11.308594 10.851562 10.742188 10.289062 10.742188 9.59375 L 10.742188 5.847656 C 10.742188 5.152344 11.304688 4.589844 12 4.589844 C 12.695312 4.589844 13.257812 5.152344 13.257812 5.847656 Z M 13.257812 9.59375 "/>
</svg>
