<!-- Uploaded to: SVG Repo, www.svgrepo.com, Transformed by: SVG Repo Mixer Tools -->
<svg xmlns="http://www.w3.org/2000/svg" xmlns:xlink="http://www.w3.org/1999/xlink" width="48" height="48" viewBox="0 0 48 48">
<path fill-rule="nonzero" fill="rgb(3.529412%, 14.117647%, 29.411765%)" fill-opacity="1" d="M 43.105469 13.832031 L 43.105469 3.222656 C 43.105469 1.441406 41.660156 0 39.882812 0 L 14.757812 0 C 13.902344 0 13.082031 0.339844 12.476562 0.945312 L 5.839844 7.582031 C 5.234375 8.1875 4.894531 9.003906 4.894531 9.859375 L 4.894531 44.777344 C 4.894531 46.558594 6.339844 48 8.117188 48 L 39.882812 48 C 41.660156 48 43.105469 46.558594 43.105469 44.777344 L 43.105469 20.4375 L 39.960938 20.4375 L 39.960938 13.832031 Z M 28.058594 3.605469 L 31.109375 3.605469 L 31.109375 10.859375 L 28.058594 10.859375 Z M 22.398438 3.605469 L 25.449219 3.605469 L 25.449219 10.859375 L 22.398438 10.859375 Z M 16.738281 3.605469 L 19.792969 3.605469 L 19.792969 10.859375 L 16.738281 10.859375 Z M 11.078125 5.972656 L 14.132812 5.972656 L 14.132812 13.230469 L 11.078125 13.230469 Z M 36.394531 40.140625 L 11.558594 40.140625 L 11.558594 35.894531 L 36.394531 35.894531 Z M 36.769531 10.859375 L 33.714844 10.859375 L 33.714844 3.605469 L 36.769531 3.605469 Z M 36.769531 10.859375 "/>
</svg>
