
<svg xmlns="http://www.w3.org/2000/svg" xmlns:xlink="http://www.w3.org/1999/xlink" width="24" height="24" viewBox="0 0 24 24">
<path fill-rule="nonzero" fill="rgb(0%, 0%, 0%)" fill-opacity="1" d="M 19 21 C 19.550781 21 20.019531 20.804688 20.414062 20.414062 C 20.804688 20.019531 21 19.550781 21 19 L 21 4 L 19 4 L 19 19 L 7 19 L 7 15 L 5 15 L 5 19 C 5 19.550781 5.195312 20.019531 5.585938 20.414062 C 5.980469 20.804688 6.449219 21 7 21 Z M 19 21 "/>
<path fill-rule="nonzero" fill="rgb(0%, 0%, 0%)" fill-opacity="1" d="M 4 4 L 12 4 C 12.550781 4 13.019531 4.195312 13.414062 4.585938 C 13.804688 4.980469 14 5.449219 14 6 L 14 14.148438 L 16.574219 11.574219 L 18 13 L 13 18 L 8 13 L 9.398438 11.574219 L 12 14.148438 L 12 6 L 4 6 Z M 4 4 "/>
</svg>
