
<svg xmlns="http://www.w3.org/2000/svg" xmlns:xlink="http://www.w3.org/1999/xlink" width="24" height="24" viewBox="0 0 24 24">
<path fill-rule="nonzero" fill="rgb(90.980392%, 91.764706%, 92.941176%)" fill-opacity="1" d="M 17 15 C 16.714844 15 16.480469 14.902344 16.289062 14.710938 C 16.097656 14.519531 16 14.285156 16 14 L 16 10 C 16 9.714844 16.097656 9.480469 16.289062 9.289062 C 16.480469 9.097656 16.714844 9 17 9 L 20 9 C 20.285156 9 20.519531 9.097656 20.710938 9.289062 C 20.902344 9.480469 21 9.714844 21 10 L 21 11 L 19.5 11 L 19.5 10.5 L 17.5 10.5 L 17.5 13.5 L 19.5 13.5 L 19.5 13 L 21 13 L 21 14 C 21 14.285156 20.902344 14.519531 20.710938 14.710938 C 20.519531 14.902344 20.285156 15 20 15 Z M 9.5 15 L 9.5 9 L 13.5 9 C 13.785156 9 14.019531 9.097656 14.210938 9.289062 C 14.402344 9.480469 14.5 9.714844 14.5 10 L 14.5 11 C 14.5 11.285156 14.402344 11.519531 14.210938 11.710938 C 14.019531 11.902344 13.785156 12 13.5 12 C 13.785156 12 14.019531 12.097656 14.210938 12.289062 C 14.402344 12.480469 14.5 12.714844 14.5 13 L 14.5 14 C 14.5 14.285156 14.402344 14.519531 14.210938 14.710938 C 14.019531 14.902344 13.785156 15 13.5 15 Z M 11 11.25 L 13 11.25 L 13 10.5 L 11 10.5 Z M 11 13.5 L 13 13.5 L 13 12.75 L 11 12.75 Z M 3 15 L 3 10 C 3 9.714844 3.097656 9.480469 3.289062 9.289062 C 3.480469 9.097656 3.714844 9 4 9 L 7 9 C 7.285156 9 7.519531 9.097656 7.710938 9.289062 C 7.902344 9.480469 8 9.714844 8 10 L 8 15 L 6.5 15 L 6.5 13.5 L 4.5 13.5 L 4.5 15 Z M 4.5 12 L 6.5 12 L 6.5 10.5 L 4.5 10.5 Z M 4.5 12 "/>
</svg>
