<!-- Uploaded to: SVG Repo, www.svgrepo.com, Transformed by: SVG Repo Mixer Tools -->
<svg xmlns="http://www.w3.org/2000/svg" xmlns:xlink="http://www.w3.org/1999/xlink" width="24" height="24" viewBox="0 0 24 24">
<path fill-rule="nonzero" fill="rgb(100%, 100%, 100%)" fill-opacity="1" d="M 17.601562 0 C 16.714844 0 16 0.714844 16 1.601562 L 16 2.402344 L 1.601562 2.402344 C 0.714844 2.402344 0 3.117188 0 4 C 0 4.882812 0.714844 5.597656 1.601562 5.597656 L 16 5.597656 L 16 6.402344 C 16 7.285156 16.714844 8 17.601562 8 C 18.484375 8 19.199219 7.285156 19.199219 6.402344 L 19.199219 5.597656 L 22.398438 5.597656 C 23.285156 5.597656 24 4.882812 24 4 C 24 3.117188 23.285156 2.402344 22.398438 2.402344 L 19.199219 2.402344 L 19.199219 1.601562 C 19.199219 0.714844 18.484375 0 17.601562 0 Z M 6 8 C 5.117188 8 4.398438 8.714844 4.398438 9.601562 L 4.398438 10.402344 L 1.601562 10.402344 C 0.71875 10.402344 0 11.117188 0 12 C 0 12.882812 0.71875 13.597656 1.601562 13.597656 L 4.398438 13.597656 L 4.398438 14.402344 C 4.398438 15.285156 5.117188 16 6 16 C 6.882812 16 7.601562 15.285156 7.601562 14.402344 L 7.601562 13.597656 L 22.398438 13.597656 C 23.285156 13.597656 24 12.882812 24 12 C 24 11.117188 23.285156 10.402344 22.398438 10.402344 L 7.601562 10.402344 L 7.601562 9.601562 C 7.601562 8.714844 6.882812 8 6 8 Z M 11.199219 16 C 10.316406 16 9.597656 16.714844 9.597656 17.601562 L 9.597656 18.402344 L 1.601562 18.402344 C 0.71875 18.402344 0 19.117188 0 20 C 0 20.882812 0.71875 21.597656 1.601562 21.597656 L 9.597656 21.597656 L 9.597656 22.402344 C 9.597656 23.285156 10.316406 24 11.199219 24 C 12.082031 24 12.800781 23.285156 12.800781 22.402344 L 12.800781 21.597656 L 22.398438 21.597656 C 23.285156 21.597656 24 20.882812 24 20 C 24 19.117188 23.285156 18.402344 22.398438 18.402344 L 12.800781 18.402344 L 12.800781 17.601562 C 12.800781 16.714844 12.082031 16 11.199219 16 Z M 11.199219 16 "/>
</svg>
