<!-- Uploaded to: SVG Repo, www.svgrepo.com, Transformed by: SVG Repo Mixer Tools -->
<svg xmlns="http://www.w3.org/2000/svg" xmlns:xlink="http://www.w3.org/1999/xlink" width="24" height="24" viewBox="0 0 24 24">
<path fill-rule="evenodd" fill="rgb(3.529412%, 14.117647%, 29.411765%)" fill-opacity="1" d="M 19.5 12.75 L 21 12.75 L 21 11.25 L 19.5 11.25 Z M 12 22.5 C 6.199219 22.5 1.5 17.800781 1.5 12 C 1.5 6.203125 6.199219 1.5 12 1.5 C 17.800781 1.5 22.5 6.203125 22.5 12 C 22.5 17.800781 17.800781 22.5 12 22.5 Z M 12 0 C 5.371094 0 0 5.371094 0 12 C 0 18.628906 5.371094 24 12 24 C 18.628906 24 24 18.628906 24 12 C 24 5.371094 18.628906 0 12 0 Z M 16.558594 6.203125 L 17.59375 7.246094 L 18.632812 6.203125 L 17.59375 5.164062 Z M 16.335938 17.082031 L 17.398438 18.144531 L 18.457031 17.082031 L 17.398438 16.023438 Z M 12 3 C 11.585938 3 11.25 3.335938 11.25 3.75 L 11.25 11.265625 L 5.25 11.265625 C 4.835938 11.265625 4.5 11.605469 4.5 12.019531 C 4.5 12.433594 4.835938 12.765625 5.25 12.765625 L 12 12.765625 C 12.414062 12.765625 12.75 12.433594 12.75 12.019531 L 12.75 3.75 C 12.75 3.335938 12.414062 3 12 3 Z M 7.269531 6.242188 L 6.207031 5.183594 L 5.148438 6.242188 L 6.207031 7.304688 Z M 5.050781 17.125 L 6.085938 18.164062 L 7.125 17.125 L 6.085938 16.082031 Z M 11.25 21 L 12.75 21 L 12.75 19.5 L 11.25 19.5 Z M 11.25 21 "/>
</svg>
