
<svg xmlns="http://www.w3.org/2000/svg" xmlns:xlink="http://www.w3.org/1999/xlink" width="24" height="24" viewBox="0 0 24 24">
<path fill-rule="nonzero" fill="rgb(0%, 6.666667%, 16.862745%)" fill-opacity="1" d="M 17 22 L 15.601562 20.601562 L 20.148438 16 L 15.601562 11.398438 L 17 10 L 23 16 Z M 7 22 L 1 16 L 7 10 L 8.398438 11.398438 L 3.851562 16 L 8.398438 20.601562 Z M 8 17 C 7.714844 17 7.480469 16.902344 7.285156 16.710938 C 7.09375 16.519531 7 16.285156 7 16 C 7 15.714844 7.09375 15.480469 7.285156 15.285156 C 7.480469 15.09375 7.714844 15 8 15 C 8.285156 15 8.519531 15.09375 8.714844 15.285156 C 8.90625 15.480469 9 15.714844 9 16 C 9 16.285156 8.90625 16.519531 8.714844 16.710938 C 8.519531 16.902344 8.285156 17 8 17 Z M 12 17 C 11.714844 17 11.480469 16.902344 11.289062 16.710938 C 11.097656 16.519531 11 16.285156 11 16 C 11 15.714844 11.097656 15.480469 11.289062 15.285156 C 11.480469 15.09375 11.714844 15 12 15 C 12.285156 15 12.519531 15.09375 12.714844 15.285156 C 12.90625 15.480469 13 15.714844 13 16 C 13 16.285156 12.90625 16.519531 12.714844 16.710938 C 12.519531 16.902344 12.285156 17 12 17 Z M 16 17 C 15.714844 17 15.480469 16.902344 15.289062 16.710938 C 15.097656 16.519531 15 16.285156 15 16 C 15 15.714844 15.097656 15.480469 15.289062 15.285156 C 15.480469 15.09375 15.714844 15 16 15 C 16.285156 15 16.519531 15.09375 16.710938 15.285156 C 16.902344 15.480469 17 15.714844 17 16 C 17 16.285156 16.902344 16.519531 16.710938 16.710938 C 16.519531 16.902344 16.285156 17 16 17 Z M 16 17 "/>
<path fill="none" stroke-width="1" stroke-linecap="butt" stroke-linejoin="miter" stroke="rgb(0%, 0%, 0%)" stroke-opacity="1" stroke-miterlimit="4" d="M 5.5 2 L 5.5 6.5 C 5.496094 7.484375 5.496094 7.5 6.5 7.5 L 7.5 7.5 C 8.515625 7.519531 8.5 7.503906 8.5 6.5 L 8.5 2 "/>
<path fill="none" stroke-width="1" stroke-linecap="butt" stroke-linejoin="miter" stroke="rgb(0%, 0%, 0%)" stroke-opacity="1" stroke-miterlimit="4" d="M 12.5 7.5 L 10.5 7.5 L 10.5 2.5 L 12.5 2.5 C 13.507812 2.507812 13.5 2.496094 13.5 3.5 L 13.5 6.5 C 13.496094 7.5 13.503906 7.5 12.5 7.5 Z M 12.5 7.5 "/>
<path fill="none" stroke-width="1" stroke-linecap="butt" stroke-linejoin="miter" stroke="rgb(0%, 0%, 0%)" stroke-opacity="1" stroke-miterlimit="4" d="M 15.5 8 L 15.5 2.5 L 17.5 2.5 C 18.5 2.5 18.5 2.496094 18.5 3.5 L 18.5 4.5 C 18.503906 5.496094 18.503906 5.5 17.5 5.5 L 16 5.5 "/>
</svg>
