<?xml version="1.0" encoding="UTF-8" standalone="no"?>
<svg
   width="24"
   height="24"
   viewBox="0 0 24 24"
   fill="none"
   version="1.1"
   xmlns="http://www.w3.org/2000/svg"
   xmlns:svg="http://www.w3.org/2000/svg">
  <path
     d="M 3,3 V 21 H 21 V 3 Z M 5,5 H 10 V 8 H 5 Z m 6,0 h 5 v 3 h -5 z m 6,0 h 3 V 8 H 17 Z M 5,9 h 5 v 4 H 5 Z m 6,0 h 5 v 4 h -5 z m 6,0 h 3 v 4 h -3 z m -12,5 h 5 v 5 H 5 Z m 6,0 h 5 v 5 h -5 z m 6,0 h 3 v 5 h -3 z"
     fill="#616161" />
  <!-- Vector data indication: points, lines, and polygons overlay -->
  <path
     d="M 6.5,16.5 C 6.5,15.7 7.1,15 8,15 c 0.9,0 1.5,0.7 1.5,1.5 0,0.8 -0.7,1.5 -1.5,1.5 -0.8,0 -1.5,-0.7 -1.5,-1.5 z"
     fill="#0078d7"
     stroke="#0078d7"
     stroke-width="0.5" />
  <path
     d="m 12,16.5 h 3"
     stroke="#0078d7"
     stroke-width="1.5"
     stroke-linecap="round" />
  <path
     d="m 17.5,15 0.9,1.5 1.1,-1.5 -1,1.5 z"
     fill="#0078d7"
     stroke="#0078d7"
     stroke-width="0.5"
     stroke-linejoin="round" />
  <path
     d="M 7,6.5 H 8.5"
     stroke="#0078d7"
     stroke-width="1"
     stroke-linecap="round" />
</svg> 