<!-- Uploaded to: SVG Repo, www.svgrepo.com, Transformed by: SVG Repo Mixer Tools -->
<svg xmlns="http://www.w3.org/2000/svg" xmlns:xlink="http://www.w3.org/1999/xlink" width="24" height="24" viewBox="0 0 24 24">
<path fill-rule="evenodd" fill="rgb(3.529412%, 14.117647%, 29.411765%)" fill-opacity="1" d="M 12 9 C 10.34375 9 9 10.34375 9 12 C 9 13.65625 10.34375 15 12 15 C 13.65625 15 15 13.65625 15 12 C 15 10.34375 13.65625 9 12 9 Z M 11 12 C 11 11.449219 11.449219 11 12 11 C 12.550781 11 13 11.449219 13 12 C 13 12.550781 12.550781 13 12 13 C 11.449219 13 11 12.550781 11 12 Z M 11 12 "/>
<path fill-rule="evenodd" fill="rgb(3.529412%, 14.117647%, 29.411765%)" fill-opacity="1" d="M 21.828125 11.28125 C 19.542969 7.152344 15.8125 5 12 5 C 8.1875 5 4.457031 7.152344 2.171875 11.28125 C 1.945312 11.683594 1.945312 12.183594 2.160156 12.585938 C 4.410156 16.800781 8.164062 19 12 19 C 15.835938 19 19.589844 16.800781 21.839844 12.585938 C 22.054688 12.183594 22.054688 11.683594 21.828125 11.28125 Z M 12 17 C 9.0625 17 6.039062 15.371094 4.089844 11.949219 C 6.070312 8.597656 9.074219 7 12 7 C 14.925781 7 17.929688 8.597656 19.910156 11.949219 C 17.960938 15.371094 14.9375 17 12 17 Z M 12 17 "/>
</svg>
