
<svg xmlns="http://www.w3.org/2000/svg" xmlns:xlink="http://www.w3.org/1999/xlink" width="18" height="18" viewBox="0 0 18 18">
<path fill="none" stroke-width="1" stroke-linecap="round" stroke-linejoin="round" stroke="rgb(53.333333%, 54.117647%, 52.156863%)" stroke-opacity="1" stroke-miterlimit="4" d="M 1.5 4.5 L 5.5 13.5 L 10.5 2.5 L 14.5 2.5 " transform="matrix(1.125, 0, 0, 1.125, 0, 0)"/>
<path fill-rule="evenodd" fill="rgb(93.333333%, 93.333333%, 92.54902%)" fill-opacity="1" stroke-width="1" stroke-linecap="round" stroke-linejoin="round" stroke="rgb(53.333333%, 54.117647%, 52.156863%)" stroke-opacity="1" stroke-miterlimit="4" d="M 4.5 12.5 C 4.5 13.052083 4.052083 13.5 3.5 13.5 C 2.947917 13.5 2.5 13.052083 2.5 12.5 C 2.5 11.947917 2.947917 11.5 3.5 11.5 C 4.052083 11.5 4.5 11.947917 4.5 12.5 Z M 4.5 12.5 " transform="matrix(1.125, 0, 0, 1.125, 2.25, 1.125)"/>
<path fill-rule="evenodd" fill="rgb(93.333333%, 93.333333%, 92.54902%)" fill-opacity="1" stroke-width="1" stroke-linecap="round" stroke-linejoin="round" stroke="rgb(53.333333%, 54.117647%, 52.156863%)" stroke-opacity="1" stroke-miterlimit="4" d="M 4.5 12.5 C 4.5 13.052083 4.052083 13.5 3.5 13.5 C 2.947917 13.5 2.5 13.052083 2.5 12.5 C 2.5 11.947917 2.947917 11.5 3.5 11.5 C 4.052083 11.5 4.5 11.947917 4.5 12.5 Z M 4.5 12.5 " transform="matrix(1.125, 0, 0, 1.125, 12.375, -11.25)"/>
<path fill-rule="evenodd" fill="rgb(93.333333%, 93.333333%, 92.54902%)" fill-opacity="1" stroke-width="1" stroke-linecap="round" stroke-linejoin="round" stroke="rgb(53.333333%, 54.117647%, 52.156863%)" stroke-opacity="1" stroke-miterlimit="4" d="M 4.5 12.5 C 4.5 13.052083 4.052083 13.5 3.5 13.5 C 2.947917 13.5 2.5 13.052083 2.5 12.5 C 2.5 11.947917 2.947917 11.5 3.5 11.5 C 4.052083 11.5 4.5 11.947917 4.5 12.5 Z M 4.5 12.5 " transform="matrix(1.125, 0, 0, 1.125, 7.875, -11.25)"/>
<path fill-rule="evenodd" fill="rgb(93.333333%, 93.333333%, 92.54902%)" fill-opacity="1" stroke-width="1" stroke-linecap="round" stroke-linejoin="round" stroke="rgb(53.333333%, 54.117647%, 52.156863%)" stroke-opacity="1" stroke-miterlimit="4" d="M 4.5 12.5 C 4.5 13.052083 4.052083 13.5 3.5 13.5 C 2.947917 13.5 2.5 13.052083 2.5 12.5 C 2.5 11.947917 2.947917 11.5 3.5 11.5 C 4.052083 11.5 4.5 11.947917 4.5 12.5 Z M 4.5 12.5 " transform="matrix(1.125, 0, 0, 1.125, -2.25, -9)"/>
</svg>
