<!-- Uploaded to: SVG Repo, www.svgrepo.com, Generator: SVG Repo Mixer Tools -->
<svg xmlns="http://www.w3.org/2000/svg" xmlns:xlink="http://www.w3.org/1999/xlink" width="24" height="24" viewBox="0 0 24 24">
<path fill-rule="evenodd" fill="rgb(3.529412%, 14.117647%, 29.411765%)" fill-opacity="1" d="M 10.699219 19.375 C 13.945312 19.945312 17.078125 18.339844 18.582031 15.59375 C 18.980469 14.871094 19.890625 14.601562 20.617188 15 C 21.34375 15.398438 21.609375 16.3125 21.210938 17.039062 C 19.109375 20.875 14.730469 23.132812 10.179688 22.328125 C 4.46875 21.320312 0.65625 15.875 1.664062 10.164062 C 2.667969 4.453125 8.113281 0.640625 13.824219 1.648438 C 18.113281 2.402344 21.328125 5.660156 22.242188 9.648438 C 22.339844 10.085938 22.414062 10.535156 22.457031 10.992188 C 22.582031 12.300781 21.191406 13.148438 20.089844 12.539062 L 17.269531 10.976562 C 15.722656 10.121094 16.503906 7.757812 18.257812 7.992188 L 18.359375 8.007812 C 17.269531 6.269531 15.480469 4.984375 13.304688 4.601562 C 9.226562 3.882812 5.335938 6.605469 4.617188 10.6875 C 3.898438 14.765625 6.621094 18.65625 10.699219 19.375 Z M 10.699219 19.375 "/>
</svg>
