<?xml version="1.0" encoding="UTF-8" standalone="no"?>
<!-- Uploaded to: SVG Repo, www.svgrepo.com, Transformed by: SVG Repo Mixer Tools -->

<svg
   width="64px"
   height="64px"
   viewBox="0 0 100 100"
   aria-hidden="true"
   role="img"
   class="iconify iconify--gis"
   preserveAspectRatio="xMidYMid meet"
   fill="#000000"
   version="1.1"
   id="svg1"
   sodipodi:docname="satellite.svg"
   inkscape:version="1.4 (e7c3feb100, 2024-10-09)"
   xmlns:inkscape="http://www.inkscape.org/namespaces/inkscape"
   xmlns:sodipodi="http://sodipodi.sourceforge.net/DTD/sodipodi-0.dtd"
   xmlns="http://www.w3.org/2000/svg"
   xmlns:svg="http://www.w3.org/2000/svg">
  <defs
     id="defs1" />
  <sodipodi:namedview
     id="namedview1"
     pagecolor="#ffffff"
     bordercolor="#000000"
     borderopacity="0.25"
     inkscape:showpageshadow="2"
     inkscape:pageopacity="0.0"
     inkscape:pagecheckerboard="true"
     inkscape:deskcolor="#d1d1d1"
     inkscape:zoom="6.3142426"
     inkscape:cx="50.995823"
     inkscape:cy="42.206171"
     inkscape:window-width="2560"
     inkscape:window-height="1360"
     inkscape:window-x="0"
     inkscape:window-y="0"
     inkscape:window-maximized="1"
     inkscape:current-layer="svg1" />
  <g
     id="SVGRepo_bgCarrier"
     stroke-width="0" />
  <g
     id="SVGRepo_tracerCarrier"
     stroke-linecap="round"
     stroke-linejoin="round" />
  <g
     id="SVGRepo_iconCarrier"
     transform="matrix(0.5855001,0,0,0.52653017,1.6708491,-0.32974621)">
    <path
       d="m 32.103,24.707 a 4.813,4.813 0 0 0 -1.766,6.59 l 3.17,5.493 -3.613,0.74 -29.445,17 12.5,21.65 29.445,-17 2.448,-2.76 3.17,5.493 a 4.813,4.813 0 0 0 6.59,1.766 l 13.295,-7.676 a 4.813,4.813 0 0 0 1.766,-6.59 l -3.17,-5.492 3.613,-0.74 29.445,-17 -12.5,-21.651 -29.445,17 -2.448,2.76 -3.17,-5.493 a 4.813,4.813 0 0 0 -6.59,-1.765 z M 7.279,56.36 l 25.98,-15 7.5,12.99 -25.98,15 z m 51.961,-30 25.981,-15 7.5,12.99 -25.98,15 z m 11,38.554 a 7.45,7.45 0 0 1 -9.14,5.313 l -1.27,4.836 c 6.625,1.743 13.477,-2.241 15.242,-8.86 z m -11.73,14.972 -1.27,4.835 c 12.003,3.157 24.362,-3.973 27.546,-15.917 l -4.83,-1.286 C 77.47,76.842 67.921,82.361 58.51,79.886 Z m -2.577,9.665 -1.271,4.837 c 17.356,4.564 35.192,-5.727 39.794,-22.989 l -4.83,-1.288 c -3.904,14.64 -18.929,23.323 -33.693,19.44 z"
       fill="#1c274c"
       id="path1" />
  </g>
  <path
     d="m 70.420801,39.491032 c -15.130241,0 -27.394891,12.828158 -27.394891,28.651566 0,15.824313 12.26465,28.651575 27.394891,28.651575 8.47627,0 16.053879,-4.02698 21.07835,-10.351482 -1.601081,0.45375 -3.283084,0.695925 -5.021889,0.695925 A 19.075279,19.950315 0 0 1 72.380833,80.655662 c -0.205728,-0.23407 -0.39424,-0.478048 -0.584476,-0.712127 -3.618799,-4.475314 -4.200694,-10.375779 -3.739307,-13.944517 0.291805,-2.267818 1.061363,-4.678775 2.256152,-6.723327 2.152851,-3.686665 5.326612,-6.275881 9.636629,-6.925892 4.955609,-0.745435 9.642658,0.757144 12.697627,4.365484 1.787012,2.108469 3.42942,5.570065 3.986354,8.382556 0.386494,1.948214 0.704993,4.021573 0.560381,6.117437 h -19.10799 v -5.833849 h 11.039728 c 0.232421,-2.614427 -1.71212,-5.590768 -4.24631,-6.383022 -2.430031,-0.758937 -4.931514,-0.336701 -6.861422,1.450362 -1.877403,1.739347 -2.455859,5.343186 -2.448105,7.745151 0.01122,3.737985 0.626654,6.471245 2.295747,8.316828 2.209662,2.438877 5.310255,4.005372 8.776688,4.005372 3.756523,0 7.109335,-1.809576 9.306087,-4.64007 a 7.630972,7.9810263 0 0 0 1.560628,-3.458898 c 0.200564,-1.392738 0.304723,-2.820587 0.304723,-4.275449 C 97.814792,52.31919 85.549317,39.491032 70.420801,39.491032 Z M 55.455827,72.120956 a 3.5447651,3.7073735 0 0 1 0,-7.414743 3.5447651,3.7073735 0 0 1 0,7.414743 z"
     fill="#6082c0"
     id="path2"
     style="stroke-width:0.88032;fill:#002255" />
</svg>
