<?xml version="1.0" encoding="UTF-8" standalone="no"?>
<!-- Uploaded to: SVG Repo, www.svgrepo.com, Transformed by: SVG Repo Mixer Tools -->

<svg
   width="64px"
   height="64px"
   viewBox="0 0 24 24"
   fill="none"
   version="1.1"
   id="svg3"
   sodipodi:docname="database-svgrepo-com.svg"
   inkscape:version="1.4 (e7c3feb100, 2024-10-09)"
   xmlns:inkscape="http://www.inkscape.org/namespaces/inkscape"
   xmlns:sodipodi="http://sodipodi.sourceforge.net/DTD/sodipodi-0.dtd"
   xmlns="http://www.w3.org/2000/svg"
   xmlns:svg="http://www.w3.org/2000/svg">
  <defs
     id="defs3" />
  <sodipodi:namedview
     id="namedview3"
     pagecolor="#ffffff"
     bordercolor="#000000"
     borderopacity="0.25"
     inkscape:showpageshadow="2"
     inkscape:pageopacity="0.0"
     inkscape:pagecheckerboard="0"
     inkscape:deskcolor="#d1d1d1"
     inkscape:zoom="6.3142426"
     inkscape:cx="-1.4253491"
     inkscape:cy="27.95268"
     inkscape:window-width="2560"
     inkscape:window-height="1360"
     inkscape:window-x="0"
     inkscape:window-y="0"
     inkscape:window-maximized="1"
     inkscape:current-layer="svg3" />
  <g
     id="SVGRepo_bgCarrier"
     stroke-width="0" />
  <g
     id="SVGRepo_tracerCarrier"
     stroke-linecap="round"
     stroke-linejoin="round" />
  <g
     id="SVGRepo_iconCarrier"
     transform="matrix(0.72532335,0,0,0.86043457,-0.3860321,3.1892186)">
    <path
       d="m 20,18 c 0,2.2091 -3.5817,4 -8,4 -4.41828,0 -8,-1.7909 -8,-4 v -4.026 c 0.50221,0.6166 1.21495,1.1289 2.00774,1.5252 C 7.58004,16.2854 9.69967,16.75 12,16.75 c 2.3003,0 4.42,-0.4646 5.9923,-1.2508 C 18.7851,15.1029 19.4978,14.5906 20,13.974 Z"
       fill="#1c274c"
       id="path1" />
    <path
       d="m 12,10.75 c 2.3003,0 4.42,-0.4646 5.9923,-1.25075 C 18.7851,9.10285 19.4978,8.59059 20,7.97397 V 12 c 0,0.5 -1.7857,1.5911 -2.6786,2.1576 C 15.9983,14.8192 14.118,15.25 12,15.25 9.88205,15.25 8.00168,14.8192 6.67856,14.1576 5.5,13.5683 4,12.5 4,12 V 7.97397 C 4.50221,8.59059 5.21495,9.10285 6.00774,9.49925 7.58004,10.2854 9.69967,10.75 12,10.75 Z"
       fill="#1c274c"
       id="path2" />
    <path
       d="M 17.3214,8.15761 C 15.9983,8.81917 14.118,9.25 12,9.25 9.88205,9.25 8.00168,8.81917 6.67856,8.15761 6.16384,7.95596 5.00637,7.31492 4.2015,6.27935 4.06454,6.10313 4.00576,5.87853 4.03988,5.65798 4.06283,5.50969 4.0948,5.35695 4.13578,5.26226 4.82815,3.40554 8.0858,2 12,2 c 3.9142,0 7.1718,1.40554 7.8642,3.26226 0.041,0.09469 0.073,0.24743 0.0959,0.39572 0.0341,0.22055 -0.0246,0.44515 -0.1616,0.62137 -0.8049,1.03557 -1.9623,1.67661 -2.4771,1.87826 z"
       fill="#1c274c"
       id="path3" />
  </g>
  <g
     id="SVGRepo_iconCarrier-3"
     transform="matrix(0.64053615,0,0,0.66347849,10.532912,-2.4256818)">
    <path
       fill-rule="evenodd"
       clip-rule="evenodd"
       d="M 15,10.5 C 15,12.9853 12.9853,15 10.5,15 8.01472,15 6,12.9853 6,10.5 6,8.01472 8.01472,6 10.5,6 12.9853,6 15,8.01472 15,10.5 Z m -0.8207,4.7399 C 13.1632,16.0297 11.8865,16.5 10.5,16.5 c -3.31371,0 -6,-2.6863 -6,-6 0,-3.31371 2.68629,-6 6,-6 3.3137,0 6,2.68629 6,6 0,1.3865 -0.4703,2.6632 -1.2601,3.6792 l 4.7905,4.7905 -1.0607,1.0606 z"
       fill="#080341"
       id="path1-6" />
  </g>
</svg>
