<?xml version="1.0" encoding="UTF-8" standalone="no"?>
<svg
   xmlns="http://www.w3.org/2000/svg"
   width="24"
   height="24"
   viewBox="0 0 24 24"
   fill="#FFFFFF">
  <path
     d="M12.01 6c2.61 0 4.89 1.86 5.4 4.43l.3 1.5 1.52.11c1.56.11 2.78 1.41 2.78 2.96 0 1.65-1.35 3-3 3h-13c-2.21 0-4-1.79-4-4 0-2.05 1.53-3.76 3.56-3.97l1.07-.11.5-.95C8.08 7.14 9.95 6 12.01 6m0-2C9.12 4 6.6 5.64 5.35 8.04 2.35 8.36.01 10.91.01 14c0 3.31 2.69 6 6 6h13c2.76 0 5-2.24 5-5 0-2.64-2.05-4.78-4.64-4.96C18.68 6.59 15.65 4 12.01 4z" />
  <path
     d="M19.03 10.08c-.57-3.17-3.35-5.58-6.69-5.58-.34 0-.68.03-1.01.08.28.17.54.37.78.58.34-.05.68-.08 1.01-.08 2.84 0 5.28 2.16 5.5 5 .72.11 1.4.37 1.99.77.02-.13.04-.26.04-.39 0-.12-.01-.23-.02-.35-.05-.05-.1-.05-.6-.03z" />
  <path
     d="M11.5 6.87c.26.1.5.22.73.37.14-.24.3-.46.49-.67-.4-.09-.81-.15-1.22-.15-.41 0-.82.06-1.22.15.19.21.35.43.49.67.23-.15.47-.27.73-.37z" />
  <path
     d="M10.03 7.94c.15.22.27.45.37.7.21-.08.43-.14.65-.19-.14-.21-.3-.4-.48-.57-.2.11-.38.24-.54.38.01-.01 0-.01 0-.01z" />
  <path
     d="M13.92 7.88c-.18.17-.34.36-.48.57.22.05.44.11.65.19.1-.25.22-.48.37-.7-.16-.14-.34-.27-.54-.38.01.01 0 .01 0 .01z" />
  <path
     d="M11.5 9.5c.74 0 1.32.58 1.5 1.33.16-.05.33-.08.5-.08.18 0 .34.03.5.08.18-.75.76-1.33 1.5-1.33.83 0 1.5.67 1.5 1.5 0 .76-.56 1.38-1.28 1.48.28.55.28 1.01 0 1.56.72.1 1.28.72 1.28 1.48 0 .83-.67 1.5-1.5 1.5-.74 0-1.32-.58-1.5-1.33-.16.05-.32.08-.5.08-.18 0-.34-.03-.5-.08-.18.75-.76 1.33-1.5 1.33-.83 0-1.5-.67-1.5-1.5 0-.76.56-1.38 1.28-1.48-.28-.55-.28-1.01 0-1.56-.72-.1-1.28-.72-1.28-1.48 0-.83.67-1.5 1.5-1.5z" />
</svg> 