<?xml version="1.0" encoding="UTF-8" standalone="no"?>
<svg
   xmlns="http://www.w3.org/2000/svg"
   width="24"
   height="24"
   viewBox="0 0 24 24"
   fill="#FFFFFF">
  <path
     d="M17.66 8C17.44 6.8 16.81 5.7 15.95 4.84c-2.02-2.02-5.03-2.59-7.58-1.42C6.53 4.25 5.6 6.05 5.6 8c-1.94.21-3.5 1.73-3.6 3.68-.11 2.25 1.67 4.13 3.9 4.32H17.66c2.1-.07 3.82-1.7 3.94-3.79.13-2.33-1.65-4.26-3.94-4.21zM8.5 15h1v3.5h-1V15zm1.75 0h1v4.5h-1V15zm1.75 0h1v3.5h-1V15zm1.75 0h1v4.5h-1V15zm1.75 0h1v3.5h-1V15z" />
</svg> 