<?xml version="1.0" encoding="UTF-8"?>
<svg xmlns="http://www.w3.org/2000/svg" height="24" viewBox="0 0 24 24" width="24">
  <path d="M0 0h24v24H0V0z" fill="none"/>
  <path d="M19.5 12c.93 0 1.78.28 2.5.76V8c0-1.1-.9-2-2-2h-6.29l-1.06-1.06 1.41-1.41-.71-.71-3.53 3.53.7.71 1.42-1.42L13 6.71V9c0 1.1-.9 2-2 2h-4.54c-.31-.01-.61.01-.91.05l-1.41-1.41.71-.71-3.53-3.53-.71.71 1.41 1.41L1 8.6V20h9.5c-.49-.72-.78-1.57-.78-2.5 0-2.5 2.01-4.5 4.5-4.5s4.5 2.01 4.5 4.5c0 .93-.29 1.78-.78 2.5H21v-3.08c-.72-.48-1.57-.76-2.5-.76-1.93 0-3.5 1.57-3.5 3.5 0 1.93 1.57 3.5 3.5 3.5.93 0 1.78-.28 2.5-.76V22h-9.88c-.22.16-.47.3-.72.42-.4.2-.83.32-1.28.34-.86.05-1.56-.27-2.12-.83-.57-.56-.88-1.26-.83-2.12.02-.44.14-.87.34-1.28.12-.25.26-.5.42-.72zm0 5c-.83 0-1.5-.67-1.5-1.5s.67-1.5 1.5-1.5 1.5.67 1.5 1.5-.67 1.5-1.5 1.5z" fill="white"/>
</svg> 