<?xml version="1.0" encoding="UTF-8"?>
<svg width="24" height="24" version="1.1" viewBox="0 0 24 24" xmlns="http://www.w3.org/2000/svg">
 <path d="m12 2c-5.52 0-10 4.48-10 10s4.48 10 10 10 10-4.48 10-10-4.48-10-10-10zm0 18c-4.41 0-8-3.59-8-8s3.59-8 8-8 8 3.59 8 8-3.59 8-8 8z" fill="#757575"/>
 <path d="m5 7h14v10h-14z" fill="#1976d2" fill-opacity="0.1" stroke="#1976d2" stroke-width="1"/>
 <path d="m5 10h14" stroke="#1976d2" stroke-width="1"/>
 <path d="m5 13h14" stroke="#1976d2" stroke-width="1"/>
 <path d="m5 16h14" stroke="#1976d2" stroke-width="1"/>
 <path d="m9 7v10" stroke="#1976d2" stroke-width="1"/>
 <path d="m15 7v10" stroke="#1976d2" stroke-width="1"/>
</svg> 