<?xml version="1.0" encoding="UTF-8"?>
<svg width="24" height="24" version="1.1" viewBox="0 0 24 24" xmlns="http://www.w3.org/2000/svg">
 <path d="m12 2c-5.52 0-10 4.48-10 10s4.48 10 10 10 10-4.48 10-10-4.48-10-10-10zm0 18c-4.41 0-8-3.59-8-8s3.59-8 8-8 8 3.59 8 8-3.59 8-8 8z" fill="#757575"/>
 <path d="m6 6h12v12h-12z" fill="#1976d2" fill-opacity="0.1" stroke="#1976d2" stroke-width="1"/>
 <rect x="6" y="6" width="4" height="4" fill="#1976d2" fill-opacity="0.7"/>
 <rect x="10" y="6" width="4" height="4" fill="#1976d2" fill-opacity="0.3"/>
 <rect x="14" y="6" width="4" height="4" fill="#1976d2" fill-opacity="0.5"/>
 <rect x="6" y="10" width="4" height="4" fill="#1976d2" fill-opacity="0.4"/>
 <rect x="10" y="10" width="4" height="4" fill="#1976d2" fill-opacity="0.6"/>
 <rect x="14" y="10" width="4" height="4" fill="#1976d2" fill-opacity="0.2"/>
 <rect x="6" y="14" width="4" height="4" fill="#1976d2" fill-opacity="0.6"/>
 <rect x="10" y="14" width="4" height="4" fill="#1976d2" fill-opacity="0.2"/>
 <rect x="14" y="14" width="4" height="4" fill="#1976d2" fill-opacity="0.4"/>
</svg> 