<?xml version="1.0" encoding="UTF-8"?>
<svg width="24" height="24" version="1.1" viewBox="0 0 24 24" xmlns="http://www.w3.org/2000/svg">
 <path d="m12 2c-5.52 0-10 4.48-10 10s4.48 10 10 10 10-4.48 10-10-4.48-10-10-10zm0 18c-4.41 0-8-3.59-8-8s3.59-8 8-8 8 3.59 8 8-3.59 8-8 8z" fill="#757575"/>
 <path d="m5 12c0-3.87 3.13-7 7-7s7 3.13 7 7-3.13 7-7 7-7-3.13-7-7z" stroke="#1976d2" stroke-linecap="round" stroke-linejoin="round" stroke-width="2" fill="none"/>
 <path d="m5 12h14" stroke="#1976d2" stroke-linecap="round" stroke-linejoin="round" stroke-width="2" fill="none"/>
</svg> 